<?xml version="1.0" encoding="utf-8"?>
<!-- Generator: Adobe Illustrator 22.0.1, SVG Export Plug-In . SVG Version: 6.00 Build 0)  -->
<svg version="1.1" id="Capa_1" xmlns="http://www.w3.org/2000/svg" xmlns:xlink="http://www.w3.org/1999/xlink" x="0px" y="0px"
	 viewBox="0 0 758.4 562.5" style="enable-background:new 0 0 758.4 562.5;" xml:space="preserve">
<style type="text/css">
	.st0{fill:#7140E2;}
	.st1{fill:#94613A;}
	.st2{fill:#00223D;}
	.st3{fill:#70AD54;}
	.st4{fill:#FFFFFF;}
	.st5{fill:#BC9356;}
	.st6{fill:#9E7047;}
	.st7{fill:#84301E;}
	.st8{font-family:'Montserrat-Bold';}
	.st9{font-size:19px;}
</style>
<g id="Grupo_9333" transform="translate(-581.077 -1724.455)">
	<path id="Trazado_17168" class="st0" d="M808,1978.2v-7.3h14.6v-5.7H808v-6.8h16.6v-5.8h-23.8v31.5h24.4v-5.8L808,1978.2
		L808,1978.2z M845.2,1959.4c-3-0.1-5.9,1-8,3.2v-2.8h-6.7v24.2h7v-12c0-4.5,2.4-6.5,5.8-6.5c3.1,0,4.9,1.8,4.9,5.7v12.8h7v-13.9
		C855.2,1962.8,850.9,1959.4,845.2,1959.4z M875.3,1977.9c-0.8,0.6-1.8,0.9-2.8,0.9c-1.9,0-3-1.1-3-3.2v-9.8h6v-5.4h-6v-5.9h-7v5.9
		h-3.7v5.4h3.7v9.9c0,5.8,3.3,8.7,9,8.7c2,0.1,4-0.5,5.7-1.5L875.3,1977.9z M887.8,1963v-3.2h-6.7v24.2h7v-11.4
		c0-4.6,2.6-6.8,6.4-6.8c0.5,0,1,0,1.6,0.1v-6.5C892.4,1959.4,889.5,1960.6,887.8,1963z M923.8,1972c0-7.8-5.5-12.6-12.6-12.6
		c-7.4,0-12.9,5.2-12.9,12.5c0,7.2,5.4,12.5,13.8,12.5c4.4,0,7.7-1.3,10-3.9l-3.7-4c-1.6,1.6-3.8,2.4-6.1,2.3
		c-3.7,0-6.3-1.8-6.9-4.9h18.3C923.7,1973.3,923.8,1972.5,923.8,1972z M911.3,1964.7c3-0.1,5.6,2.1,5.9,5h-11.9
		C905.6,1966.8,908.2,1964.6,911.3,1964.7z M950.5,1964.3H948l0.5-6h13.1v-5.8h-19.2l-1.6,17.7h8.1c5.7,0,7.3,1.6,7.3,4.1
		c0,2.6-2.2,4.1-5.9,4.1c-3.2,0-6.3-1-9-2.8l-2.9,5.6c3.6,2.3,7.8,3.4,12,3.4c9,0,13.1-4.9,13.1-10.4
		C963.5,1968.5,959.9,1964.3,950.5,1964.3z M970.7,1984.4c2.4,0,4.3-1.9,4.4-4.2c0-0.1,0-0.1,0-0.2c0.1-2.3-1.8-4.3-4.1-4.3
		c-0.1,0-0.2,0-0.3,0c-2.3-0.1-4.3,1.7-4.4,4c0,0.1,0,0.2,0,0.3c-0.1,2.4,1.8,4.3,4.2,4.4C970.5,1984.4,970.6,1984.4,970.7,1984.4z
		 M1000.3,1967.4c2.3-1.3,3.7-3.8,3.7-6.5c0-5.5-5-9-12.2-9s-12.1,3.5-12.1,9c-0.1,2.7,1.3,5.2,3.6,6.5c-2.9,1.3-4.8,4.2-4.8,7.4
		c0,5.9,5.3,9.7,13.2,9.7c8,0,13.3-3.7,13.3-9.7C1005.2,1971.6,1003.3,1968.7,1000.3,1967.4z M991.8,1957.3c3,0,5,1.5,5,4
		c0,2.4-1.9,3.9-5,3.9c-3,0-4.9-1.5-4.9-3.9C986.9,1958.8,988.9,1957.3,991.8,1957.3z M991.8,1979.2c-3.6,0-5.8-1.8-5.8-4.5
		s2.2-4.5,5.8-4.5s5.9,1.7,5.9,4.5S995.5,1979.2,991.8,1979.2z M1019.4,1973.5h22.5v-4.4h-22.5V1973.5z M1071.6,1964.2
		c-2.9-0.2-5.7,0.8-7.8,2.8c0.2-6,3.6-9.1,8.9-9.1c2.1-0.1,4.1,0.5,5.9,1.6l2.7-5.4c-2.7-1.5-5.7-2.2-8.8-2.2
		c-9.5,0-16.1,6.1-16.1,17c0,10.2,5.4,15.6,14.1,15.6c6.7,0,11.9-4.1,11.9-10.5C1082.4,1968.1,1077.7,1964.2,1071.6,1964.2
		L1071.6,1964.2z M1070.1,1979.1c-3.5,0-5.5-2-5.5-4.7s2.2-4.7,5.4-4.7c3.2,0,5.4,1.8,5.4,4.7S1073.2,1979.1,1070.1,1979.1z
		 M1089.7,1984.4c2.4,0,4.3-1.9,4.4-4.2c0-0.1,0-0.1,0-0.2c0.1-2.3-1.8-4.3-4.1-4.3c-0.1,0-0.2,0-0.3,0c-2.3-0.1-4.3,1.7-4.4,4
		c0,0.1,0,0.2,0,0.3c-0.1,2.4,1.8,4.3,4.2,4.4C1089.6,1984.4,1089.6,1984.4,1089.7,1984.4z M1112.5,1965.3l7.1-8.1v-4.7h-22.1v5.8
		h13.4l-6.5,7.3v4.8h3.3c4.1,0,5.9,1.5,5.9,3.9c0,2.6-2.2,4.1-5.9,4.1c-3.2,0-6.4-1-9-2.8l-2.8,5.6c3.6,2.3,7.8,3.5,12,3.4
		c9,0,13-4.9,13-10.2C1121,1969.7,1118.2,1966.2,1112.5,1965.3z"/>
	<path id="Trazado_17167" class="st1" d="M811,1752.4c7,0,10.4-3.5,10.4-7.6c0-9-14.2-5.9-14.2-10.4c0-1.5,1.3-2.8,4.7-2.8
		c2.4,0,4.7,0.7,6.8,1.9l1.7-4.3c-2.6-1.5-5.5-2.2-8.5-2.2c-7,0-10.3,3.5-10.3,7.6c0,9.1,14.2,6,14.2,10.5c0,1.5-1.4,2.6-4.7,2.6
		c-2.9,0-5.7-0.9-8.1-2.6l-1.9,4.3C803.2,1751.3,807.1,1752.4,811,1752.4z M833.8,1752.3c6,0,10.3-4,10.3-9.7s-4.3-9.7-10.3-9.7
		s-10.4,4-10.4,9.7C823.5,1748.3,827.8,1752.3,833.8,1752.3z M833.8,1747.8c-2.7,0-4.8-2-4.8-5.2s2.1-5.2,4.8-5.2s4.8,2,4.8,5.2
		S836.5,1747.8,833.8,1747.8z M847.8,1752h5.5v-26h-5.5V1752z M871.8,1733.2v9.3c0,3.5-1.8,5.1-4.3,5.1c-2.4,0-3.8-1.4-3.8-4.6v-9.8
		h-5.5v10.6c0,5.8,3.3,8.5,8,8.5c2.2,0.1,4.4-0.9,5.8-2.5v2.2h5.2v-18.8L871.8,1733.2L871.8,1733.2z M891.5,1752.3
		c4,0,7.1-1.8,8.4-4.8l-4.2-2.3c-0.8,1.6-2.4,2.6-4.2,2.6c-2.8,0-4.9-1.9-4.9-5.2c0-3.3,2.2-5.2,4.9-5.2c1.8,0,3.4,1,4.2,2.6
		l4.2-2.3c-1.4-3.1-4.5-4.8-8.4-4.8c-6.1,0-10.5,4-10.5,9.7C881,1748.3,885.3,1752.3,891.5,1752.3z M905.8,1730.5
		c1.7,0.1,3.2-1.1,3.4-2.9c0-0.1,0-0.2,0-0.3c0-1.7-1.4-2.9-3.4-2.9c-1.7-0.2-3.2,1.1-3.4,2.8c0,0.1,0,0.1,0,0.2
		c0,1.7,1.5,3.1,3.2,3.1C905.6,1730.6,905.7,1730.6,905.8,1730.5z M903,1752h5.5v-18.8H903V1752z M919.3,1730.8h4.3l6.3-5H924
		L919.3,1730.8z M922.5,1752.3c6,0,10.3-4,10.3-9.7s-4.3-9.7-10.3-9.7s-10.4,4-10.4,9.7C912.2,1748.3,916.5,1752.3,922.5,1752.3z
		 M922.5,1747.8c-2.7,0-4.8-2-4.8-5.2s2.1-5.2,4.8-5.2s4.8,2,4.8,5.2S925.3,1747.8,922.5,1747.8z M947.9,1732.9
		c-2.3-0.1-4.6,0.8-6.2,2.5v-2.2h-5.2v18.8h5.5v-9.3c0-3.5,1.9-5.1,4.5-5.1c2.4,0,3.8,1.4,3.8,4.4v9.9h5.5v-10.8
		C955.8,1735.5,952.4,1732.9,947.9,1732.9z M1012.4,1733.2v9.3c0,3.5-1.8,5.1-4.3,5.1c-2.4,0-3.8-1.4-3.8-4.6v-9.8h-5.5v10.6
		c0,5.8,3.3,8.5,8,8.5c2.2,0.1,4.4-0.9,5.8-2.5v2.2h5.2v-18.8L1012.4,1733.2L1012.4,1733.2z M1033.6,1747.2
		c-0.6,0.5-1.4,0.7-2.2,0.7c-1.2,0.1-2.3-0.8-2.4-2c0-0.2,0-0.3,0-0.5v-7.7h4.7v-4.2h-4.7v-4.6h-5.5v4.6h-2.9v4.2h2.9v7.7
		c0,4.5,2.6,6.8,7,6.8c1.6,0.1,3.1-0.4,4.4-1.2L1033.6,1747.2z M1043.4,1735.7v-2.5h-5.2v18.8h5.5v-8.9c0-3.6,2-5.2,5-5.2
		c0.4,0,0.8,0,1.2,0.1v-5C1046.9,1732.9,1044.7,1733.8,1043.4,1735.7z M1055.8,1730.5c1.7,0.1,3.2-1.1,3.4-2.9c0-0.1,0-0.2,0-0.3
		c0-1.7-1.4-2.9-3.4-2.9c-1.7-0.2-3.2,1.1-3.4,2.8c0,0.1,0,0.1,0,0.2c0,1.7,1.5,3.1,3.2,3.1
		C1055.7,1730.6,1055.7,1730.6,1055.8,1730.5z M1053.1,1752h5.5v-18.8h-5.5V1752z M1074.3,1747.2c-0.6,0.5-1.4,0.7-2.2,0.7
		c-1.2,0.1-2.3-0.8-2.4-2c0-0.2,0-0.3,0-0.5v-7.7h4.7v-4.2h-4.7v-4.6h-5.5v4.6h-2.9v4.2h2.9v7.7c0,4.5,2.6,6.8,7,6.8
		c1.6,0.1,3.1-0.4,4.4-1.2L1074.3,1747.2z M1081.6,1730.5c1.7,0.1,3.2-1.1,3.4-2.9c0-0.1,0-0.2,0-0.3c0-1.7-1.4-2.9-3.4-2.9
		c-1.7-0.2-3.2,1.1-3.4,2.8c0,0.1,0,0.1,0,0.2c0,1.7,1.5,3.1,3.2,3.1C1081.4,1730.6,1081.5,1730.6,1081.6,1730.5L1081.6,1730.5z
		 M1078.8,1752h5.5v-18.8h-5.5V1752z M1102.8,1733.2l-5.4,12.8l-5.2-12.8h-5.6l7.9,18.8h5.6l7.9-18.8H1102.8z M1117.3,1732.9
		c-2.9-0.1-5.7,0.7-8.1,2.3l2,3.8c1.6-1.2,3.5-1.8,5.4-1.8c2.9,0,4.3,1.4,4.3,3.7h-4.3c-5.7,0-8.1,2.3-8.1,5.6c0,3.3,2.6,5.7,7,5.7
		c2.8,0,4.7-0.9,5.7-2.6v2.3h5.1v-10.7C1126.3,1735.6,1123,1732.9,1117.3,1732.9z M1116.9,1748.6c-1.9,0-3.1-0.9-3.1-2.3
		c0-1.3,0.8-2.2,3.4-2.2h3.7v1.9C1120.2,1747.7,1118.6,1748.7,1116.9,1748.6L1116.9,1748.6z M988.9,1731.9c-2.3-0.1-4.6,0.8-6.2,2.5
		v-2.2h-5.2v18.8h5.5v-9.3c0-3.5,1.9-5.1,4.5-5.1c2.4,0,3.8,1.4,3.8,4.4v9.9h5.5v-10.8C996.8,1734.5,993.4,1731.9,988.9,1731.9z"/>
	<path id="Trazado_17169" class="st2" d="M581.1,2039v-12.8h2.7v10.6h5.2v2.2L581.1,2039L581.1,2039z M593.2,2034.1
		c0,0.8,0.1,1.5,0.5,2.2c0.3,0.5,0.9,0.8,1.6,0.7c0.6,0.1,1.2-0.2,1.5-0.7c0.4-0.7,0.5-1.4,0.5-2.2c0-0.8-0.1-1.5-0.5-2.2
		c-0.7-0.9-2-1-2.8-0.3c-0.1,0.1-0.2,0.2-0.3,0.3C593.3,2032.6,593.1,2033.3,593.2,2034.1L593.2,2034.1z M600,2034.1
		c0.1,1.4-0.4,2.7-1.3,3.8c-0.9,0.9-2.2,1.4-3.5,1.4c-0.9,0-1.7-0.2-2.5-0.6c-0.7-0.4-1.3-1-1.7-1.8s-0.6-1.8-0.6-2.7
		c-0.1-1.4,0.4-2.7,1.3-3.7c0.9-0.9,2.2-1.4,3.5-1.3c0.9,0,1.7,0.2,2.5,0.6c0.7,0.4,1.3,1,1.7,1.8
		C599.8,2032.2,600,2033.1,600,2034.1z M609,2036.1c0.1,0.9-0.3,1.8-1,2.3c-0.9,0.6-2,0.9-3.1,0.8c-0.6,0-1.2,0-1.8-0.1
		c-0.5-0.1-1-0.2-1.4-0.4v-2.2c0.5,0.2,1.1,0.4,1.7,0.6c0.5,0.1,1.1,0.2,1.6,0.2c1,0,1.5-0.3,1.5-0.8c0-0.2-0.1-0.4-0.2-0.5
		c-0.2-0.2-0.4-0.3-0.7-0.4c-0.3-0.2-0.7-0.4-1.3-0.6s-1.1-0.5-1.7-0.9c-0.3-0.2-0.6-0.6-0.8-0.9c-0.2-0.4-0.3-0.8-0.2-1.3
		c0-0.8,0.4-1.6,1-2c0.9-0.5,1.9-0.8,2.9-0.7c1.2,0,2.4,0.3,3.5,0.8l-0.8,1.9c-0.5-0.2-1-0.4-1.4-0.5s-0.9-0.2-1.3-0.2
		c-0.8,0-1.2,0.2-1.2,0.6c0,0.3,0.2,0.5,0.4,0.6c0.5,0.3,1.1,0.6,1.7,0.8c0.6,0.2,1.2,0.5,1.7,0.9c0.3,0.2,0.6,0.6,0.8,0.9
		C609,2035.2,609,2035.7,609,2036.1z M621.2,2039.2c-1.1,0-2.1-0.4-2.7-1.3h-0.1c0.1,0.8,0.1,1.3,0.1,1.4v4h-2.7v-14.2h2.2l0.4,1.3
		h0.1c0.6-1,1.7-1.5,2.8-1.5s2.1,0.5,2.7,1.3c0.7,1.1,1.1,2.4,1,3.7c0,0.9-0.1,1.9-0.5,2.7c-0.3,0.7-0.7,1.3-1.3,1.8
		C622.6,2039,621.9,2039.2,621.2,2039.2z M620.4,2031.1c-0.6,0-1.1,0.2-1.5,0.6c-0.4,0.6-0.5,1.3-0.5,2v0.3
		c-0.1,0.8,0.1,1.6,0.5,2.3c0.3,0.5,0.9,0.7,1.5,0.7c1.2,0,1.8-1,1.8-3c0-0.8-0.1-1.5-0.4-2.2C621.5,2031.4,621,2031.1,620.4,2031.1
		L620.4,2031.1z M632.7,2029c0.3,0,0.6,0,0.9,0.1l-0.2,2.5c-0.3-0.1-0.5-0.1-0.8-0.1c-0.7,0-1.4,0.2-2,0.7c-0.5,0.5-0.8,1.2-0.7,1.8
		v5h-2.7v-9.8h2l0.4,1.7h0.1c0.3-0.5,0.7-1,1.2-1.3C631.5,2029.2,632.1,2029,632.7,2029L632.7,2029z M637.1,2034.1
		c0,0.8,0.1,1.5,0.5,2.2c0.3,0.5,0.9,0.8,1.6,0.7c0.6,0.1,1.2-0.2,1.5-0.7c0.4-0.7,0.5-1.4,0.5-2.2c0-0.8-0.1-1.5-0.5-2.2
		c-0.7-0.9-2-1-2.8-0.3c-0.1,0.1-0.2,0.2-0.3,0.3C637.3,2032.6,637.1,2033.3,637.1,2034.1L637.1,2034.1z M643.9,2034.1
		c0.1,1.4-0.4,2.7-1.3,3.8c-0.9,0.9-2.2,1.4-3.5,1.4c-0.9,0-1.7-0.2-2.5-0.6c-0.7-0.4-1.3-1-1.7-1.8s-0.6-1.8-0.6-2.7
		c-0.1-1.4,0.4-2.7,1.3-3.7c0.9-0.9,2.2-1.4,3.5-1.3c0.9,0,1.7,0.2,2.5,0.6c0.7,0.4,1.3,1,1.7,1.8
		C643.8,2032.2,644,2033.1,643.9,2034.1L643.9,2034.1z M649.3,2039.2c-1.1,0-2.1-0.5-2.7-1.3c-0.7-1.1-1.1-2.4-1-3.7
		c-0.1-1.3,0.3-2.7,1-3.8c0.6-0.9,1.7-1.4,2.8-1.3c1.1-0.1,2.2,0.5,2.8,1.4h0.1c-0.1-0.6-0.2-1.3-0.2-2v-3.1h2.7v13.7h-2.1l-0.5-1.3
		h-0.1C651.5,2038.7,650.4,2039.2,649.3,2039.2L649.3,2039.2z M650.2,2037c0.6,0,1.1-0.2,1.5-0.6c0.4-0.6,0.6-1.3,0.5-2v-0.3
		c0.1-0.8-0.1-1.6-0.5-2.3c-0.4-0.5-1-0.7-1.6-0.7s-1.1,0.3-1.4,0.8c-0.4,0.7-0.5,1.4-0.5,2.2c-0.1,0.8,0.1,1.5,0.5,2.2
		C649.1,2036.8,649.6,2037.1,650.2,2037L650.2,2037z M664.5,2039l-0.4-1.3H664c-0.3,0.5-0.7,0.8-1.2,1.1c-0.6,0.3-1.2,0.4-1.8,0.4
		c-1,0.1-1.9-0.3-2.6-0.9c-0.6-0.7-0.9-1.7-0.9-2.7v-6.4h2.7v5.7c0,0.6,0.1,1.1,0.4,1.6c0.3,0.4,0.7,0.6,1.2,0.5
		c0.6,0.1,1.3-0.2,1.6-0.8c0.4-0.8,0.6-1.6,0.5-2.5v-4.6h2.7v9.8h-2.1V2039z M673.4,2039.2c-3.1,0-4.6-1.7-4.6-5
		c-0.1-1.4,0.4-2.8,1.2-3.8c1-0.9,2.3-1.4,3.6-1.3c1.1,0,2.1,0.2,3.1,0.7l-0.8,2.1c-0.4-0.2-0.8-0.3-1.2-0.4s-0.7-0.2-1.1-0.2
		c-1.4,0-2.1,1-2.1,3c0,1.9,0.7,2.9,2.1,2.9c0.5,0,1-0.1,1.4-0.2c0.5-0.2,0.9-0.4,1.3-0.6v2.3c-0.4,0.3-0.8,0.5-1.3,0.6
		C674.5,2039.1,673.9,2039.2,673.4,2039.2L673.4,2039.2z M682.8,2037c0.6,0,1.1-0.1,1.7-0.3v2c-0.8,0.3-1.6,0.5-2.5,0.4
		c-0.9,0.1-1.7-0.2-2.3-0.8c-0.5-0.7-0.8-1.6-0.7-2.4v-4.7h-1.3v-1.1l1.5-0.9l0.8-2.1h1.7v2.1h2.8v2h-2.8v4.7c0,0.3,0.1,0.6,0.3,0.8
		C682.2,2037,682.5,2037.1,682.8,2037L682.8,2037z M688.6,2034.1c0,0.8,0.1,1.5,0.5,2.2c0.3,0.5,0.9,0.8,1.6,0.7
		c0.6,0.1,1.2-0.2,1.5-0.7c0.4-0.7,0.5-1.4,0.5-2.2c0-0.8-0.1-1.5-0.5-2.2c-0.7-0.9-2-1-2.8-0.3c-0.1,0.1-0.2,0.2-0.3,0.3
		C688.7,2032.6,688.5,2033.3,688.6,2034.1L688.6,2034.1z M695.4,2034.1c0.1,1.4-0.4,2.7-1.3,3.8c-0.9,0.9-2.2,1.4-3.5,1.4
		c-0.9,0-1.7-0.2-2.5-0.6c-0.7-0.4-1.3-1-1.7-1.8s-0.6-1.8-0.6-2.7c-0.1-1.4,0.4-2.7,1.3-3.7c0.9-0.9,2.2-1.4,3.5-1.3
		c0.9,0,1.7,0.2,2.5,0.6c0.7,0.4,1.3,1,1.7,1.8C695.2,2032.2,695.4,2033.1,695.4,2034.1L695.4,2034.1z M704.4,2036.1
		c0.1,0.9-0.3,1.8-1,2.3c-0.9,0.6-2,0.9-3.1,0.8c-0.6,0-1.2,0-1.8-0.1c-0.5-0.1-1-0.2-1.4-0.4v-2.2c0.5,0.2,1.1,0.4,1.7,0.6
		c0.5,0.1,1.1,0.2,1.6,0.2c1,0,1.5-0.3,1.5-0.8c0-0.2-0.1-0.4-0.2-0.5c-0.2-0.2-0.4-0.3-0.7-0.4c-0.3-0.2-0.7-0.4-1.3-0.6
		s-1.1-0.5-1.7-0.9c-0.3-0.2-0.6-0.6-0.8-0.9c-0.2-0.4-0.3-0.8-0.2-1.3c0-0.8,0.3-1.6,1-2c0.9-0.5,1.9-0.8,2.9-0.7
		c1.2,0,2.4,0.3,3.5,0.8l-0.8,1.9c-0.5-0.2-1-0.4-1.4-0.5s-0.9-0.2-1.3-0.2c-0.8,0-1.2,0.2-1.2,0.6c0,0.3,0.2,0.5,0.4,0.6
		c0.5,0.3,1.1,0.6,1.7,0.8c0.6,0.2,1.2,0.5,1.7,0.9c0.3,0.2,0.6,0.6,0.8,0.9C704.4,2035.2,704.4,2035.6,704.4,2036.1L704.4,2036.1z
		 M720,2039h-2.7v-5.7c0-0.6-0.1-1.1-0.4-1.6c-0.3-0.4-0.7-0.6-1.1-0.5c-0.6,0-1.2,0.2-1.5,0.8c-0.4,0.8-0.5,1.6-0.5,2.5v4.6h-2.7
		v-9.8h2l0.4,1.3h0.1c0.3-0.5,0.7-0.8,1.1-1.1c0.5-0.3,1.1-0.4,1.7-0.4c1.2-0.1,2.4,0.4,3,1.4h0.2c0.3-0.5,0.7-0.8,1.2-1.1
		c0.5-0.3,1.1-0.4,1.7-0.4c0.9-0.1,1.8,0.2,2.5,0.9c0.6,0.8,0.9,1.8,0.9,2.7v6.4h-2.7v-5.7c0-0.6-0.1-1.1-0.4-1.6
		c-0.3-0.4-0.7-0.6-1.1-0.5c-0.6,0-1.1,0.2-1.5,0.7c-0.4,0.7-0.5,1.5-0.5,2.2L720,2039z M735.1,2039l-0.5-1.3h-0.1
		c-0.4,0.5-0.8,0.9-1.4,1.2c-0.6,0.2-1.2,0.4-1.9,0.3c-0.8,0-1.6-0.2-2.2-0.8c-0.6-0.6-0.9-1.5-0.8-2.3c-0.1-0.9,0.3-1.8,1.1-2.3
		c1-0.6,2.1-0.9,3.3-0.8l1.7-0.1v-0.4c0.1-0.7-0.4-1.4-1.2-1.5c-0.1,0-0.3,0-0.4,0c-1,0-1.9,0.3-2.8,0.7l-0.9-1.8
		c1.2-0.6,2.5-0.9,3.8-0.9c1.1-0.1,2.2,0.2,3,0.9c0.7,0.7,1.1,1.6,1.1,2.6v6.5L735.1,2039L735.1,2039z M734.3,2034.4h-1
		c-0.6,0-1.2,0.1-1.7,0.4c-0.4,0.3-0.6,0.7-0.6,1.2c0,0.8,0.4,1.1,1.3,1.1c0.5,0,1.1-0.2,1.5-0.5c0.4-0.4,0.6-0.9,0.6-1.4
		L734.3,2034.4L734.3,2034.4z M731.4,2028.1v-0.2c0.7-0.8,1.4-1.7,2.1-2.6h3v0.2c-0.3,0.3-0.8,0.8-1.6,1.4c-0.7,0.6-1.3,1-1.7,1.3
		L731.4,2028.1z M746.6,2036.1c0.1,0.9-0.3,1.8-1,2.3c-0.9,0.6-2,0.9-3.1,0.8c-0.6,0-1.2,0-1.8-0.1c-0.5-0.1-1-0.2-1.4-0.4v-2.2
		c0.5,0.2,1.1,0.4,1.7,0.6c0.5,0.1,1.1,0.2,1.6,0.2c1,0,1.5-0.3,1.5-0.8c0-0.2-0.1-0.4-0.2-0.5c-0.2-0.2-0.4-0.3-0.7-0.4
		c-0.3-0.2-0.7-0.4-1.3-0.6s-1.1-0.5-1.7-0.9c-0.3-0.2-0.6-0.6-0.8-0.9c-0.2-0.4-0.3-0.8-0.2-1.3c0-0.8,0.3-1.6,1-2
		c0.9-0.5,1.9-0.8,2.9-0.7c1.2,0,2.4,0.3,3.5,0.8l-0.8,1.9c-0.5-0.2-1-0.4-1.4-0.5s-0.9-0.2-1.3-0.2c-0.8,0-1.2,0.2-1.2,0.6
		c0,0.3,0.2,0.5,0.4,0.6c0.5,0.3,1.1,0.6,1.7,0.8c0.6,0.2,1.2,0.5,1.7,0.9c0.3,0.2,0.6,0.6,0.8,0.9
		C746.5,2035.2,746.6,2035.7,746.6,2036.1L746.6,2036.1z M758.9,2029c0.3,0,0.6,0,0.9,0.1l-0.2,2.5c-0.3-0.1-0.5-0.1-0.8-0.1
		c-0.7,0-1.4,0.2-2,0.7c-0.5,0.5-0.8,1.2-0.7,1.8v5h-2.7v-9.8h2l0.4,1.7h0.1c0.3-0.5,0.7-1,1.2-1.3
		C757.7,2029.2,758.3,2029,758.9,2029L758.9,2029z M765.3,2030.9c-0.5,0-1,0.2-1.3,0.5c-0.4,0.4-0.5,1-0.6,1.5h3.8
		c0-0.6-0.2-1.1-0.5-1.5C766.3,2031.1,765.8,2030.9,765.3,2030.9L765.3,2030.9z M765.6,2039.2c-1.4,0.1-2.7-0.4-3.7-1.3
		c-0.9-1-1.4-2.3-1.3-3.7c-0.1-1.4,0.4-2.7,1.2-3.8c0.9-0.9,2.1-1.4,3.4-1.3c1.2-0.1,2.4,0.4,3.2,1.2c0.8,0.9,1.2,2.1,1.2,3.3v1.3
		h-6.3c0,0.7,0.2,1.3,0.7,1.8c0.5,0.4,1.1,0.7,1.8,0.6c0.6,0,1.1-0.1,1.7-0.2c0.6-0.1,1.1-0.3,1.7-0.6v2.1c-0.5,0.2-1,0.4-1.5,0.5
		C766.9,2039.1,766.3,2039.2,765.6,2039.2L765.6,2039.2z M775.8,2039.2c-3.1,0-4.6-1.7-4.6-5c-0.1-1.4,0.4-2.8,1.2-3.8
		c1-0.9,2.3-1.4,3.6-1.3c1.1,0,2.1,0.2,3.1,0.7l-0.8,2.1c-0.4-0.2-0.8-0.3-1.2-0.4s-0.7-0.2-1.1-0.2c-1.4,0-2.1,1-2.1,3
		c0,1.9,0.7,2.9,2.1,2.9c0.5,0,1-0.1,1.4-0.2c0.5-0.2,0.9-0.4,1.3-0.6v2.3c-0.4,0.3-0.8,0.5-1.3,0.6
		C776.9,2039.1,776.4,2039.2,775.8,2039.2L775.8,2039.2z M783.2,2034.1c0,0.8,0.1,1.5,0.5,2.2c0.3,0.5,0.9,0.8,1.6,0.7
		c0.6,0.1,1.2-0.2,1.5-0.7c0.4-0.7,0.5-1.4,0.5-2.2c0-0.8-0.1-1.5-0.5-2.2c-0.7-0.9-2-1-2.8-0.3c-0.1,0.1-0.2,0.2-0.3,0.3
		C783.3,2032.6,783.2,2033.3,783.2,2034.1L783.2,2034.1z M790,2034.1c0.1,1.4-0.4,2.7-1.3,3.8c-0.9,0.9-2.2,1.4-3.5,1.4
		c-0.9,0-1.7-0.2-2.5-0.6c-0.7-0.4-1.3-1-1.7-1.8s-0.6-1.8-0.6-2.7c-0.1-1.4,0.4-2.7,1.3-3.7c0.9-0.9,2.2-1.4,3.5-1.3
		c0.9,0,1.7,0.2,2.5,0.6c0.7,0.4,1.3,1,1.7,1.8C789.8,2032.2,790,2033.1,790,2034.1L790,2034.1z M801,2039h-2.7v-5.7
		c0-0.6-0.1-1.1-0.4-1.6c-0.3-0.4-0.7-0.6-1.1-0.5c-0.6,0-1.2,0.2-1.5,0.8c-0.4,0.8-0.5,1.6-0.5,2.5v4.6h-2.7v-9.8h2l0.4,1.3h0.1
		c0.3-0.5,0.7-0.8,1.1-1.1c0.5-0.3,1.1-0.4,1.7-0.4c1.2-0.1,2.4,0.4,3,1.4h0.2c0.3-0.5,0.7-0.8,1.2-1.1c0.5-0.3,1.1-0.4,1.7-0.4
		c0.9-0.1,1.8,0.2,2.5,0.9c0.6,0.8,0.9,1.8,0.9,2.7v6.4h-2.7v-5.7c0-0.6-0.1-1.1-0.4-1.6c-0.3-0.4-0.7-0.6-1.1-0.5
		c-0.6,0-1.1,0.2-1.5,0.7c-0.4,0.7-0.5,1.5-0.5,2.2v4.9H801z M814,2030.9c-0.5,0-1,0.2-1.3,0.5c-0.4,0.4-0.5,1-0.6,1.5h3.8
		c0-0.6-0.2-1.1-0.5-1.5C815,2031.1,814.5,2030.9,814,2030.9L814,2030.9z M814.3,2039.2c-1.4,0.1-2.7-0.4-3.7-1.3
		c-0.9-1-1.4-2.3-1.3-3.7c-0.1-1.4,0.4-2.7,1.2-3.8c0.9-0.9,2.1-1.4,3.4-1.3c1.2-0.1,2.4,0.4,3.2,1.2c0.8,0.9,1.2,2.1,1.2,3.3v1.3
		H812c0,0.7,0.2,1.3,0.7,1.8c0.5,0.4,1.1,0.7,1.8,0.6c0.6,0,1.1-0.1,1.7-0.2c0.6-0.1,1.1-0.3,1.7-0.6v2.1c-0.5,0.2-1,0.4-1.5,0.5
		C815.7,2039.1,815,2039.2,814.3,2039.2L814.3,2039.2z M829.6,2039h-2.7v-5.7c0-0.6-0.1-1.1-0.4-1.6c-0.3-0.4-0.7-0.6-1.2-0.5
		c-0.6-0.1-1.3,0.2-1.6,0.8c-0.4,0.8-0.6,1.6-0.5,2.5v4.6h-2.7v-9.8h2l0.4,1.3h0.1c0.3-0.5,0.7-0.8,1.2-1.1c0.6-0.3,1.2-0.4,1.8-0.4
		c1-0.1,1.9,0.3,2.6,0.9c0.6,0.7,1,1.7,0.9,2.7L829.6,2039z M835.5,2039.2c-1.1,0-2.1-0.5-2.7-1.3c-0.7-1.1-1.1-2.4-1-3.7
		c-0.1-1.3,0.3-2.7,1-3.8c0.6-0.9,1.7-1.4,2.8-1.3c1.1-0.1,2.2,0.5,2.8,1.4h0.1c-0.1-0.6-0.2-1.3-0.2-2v-3.1h2.7v13.7h-2.1l-0.5-1.3
		h-0.1C837.7,2038.7,836.6,2039.2,835.5,2039.2L835.5,2039.2z M836.4,2037c0.6,0,1.1-0.2,1.5-0.6c0.4-0.6,0.6-1.3,0.5-2v-0.3
		c0.1-0.8-0.1-1.6-0.5-2.3c-0.4-0.5-1-0.7-1.6-0.7s-1.1,0.3-1.4,0.8c-0.4,0.7-0.5,1.4-0.5,2.2c-0.1,0.8,0.1,1.5,0.5,2.2
		C835.3,2036.8,835.8,2037.1,836.4,2037L836.4,2037z M850,2039l-0.5-1.3h-0.1c-0.4,0.5-0.8,0.9-1.4,1.2c-0.6,0.2-1.2,0.4-1.9,0.3
		c-0.8,0-1.6-0.2-2.2-0.8c-0.6-0.6-0.9-1.5-0.8-2.3c-0.1-0.9,0.3-1.8,1.1-2.3c1-0.6,2.1-0.9,3.3-0.8l1.7-0.1v-0.4
		c0.1-0.7-0.4-1.4-1.2-1.5c-0.1,0-0.3,0-0.4,0c-1,0-1.9,0.3-2.8,0.7l-0.9-1.8c1.2-0.6,2.5-0.9,3.8-0.9c1.1-0.1,2.2,0.2,3,0.9
		c0.7,0.7,1.1,1.6,1.1,2.6v6.5L850,2039L850,2039z M849.2,2034.4h-1c-0.6,0-1.2,0.1-1.7,0.4c-0.4,0.3-0.6,0.7-0.6,1.2
		c0,0.8,0.4,1.1,1.3,1.1c0.5,0,1.1-0.2,1.5-0.5c0.4-0.4,0.6-0.9,0.6-1.4L849.2,2034.4L849.2,2034.4z M857.7,2039.2
		c-1.1,0-2.1-0.5-2.7-1.3c-0.7-1.1-1.1-2.4-1-3.7c-0.1-1.3,0.3-2.7,1-3.8c0.6-0.9,1.7-1.4,2.8-1.3c1.1-0.1,2.2,0.5,2.8,1.4h0.1
		c-0.1-0.6-0.2-1.3-0.2-2v-3.1h2.7v13.7h-2.1l-0.5-1.3h-0.1C859.9,2038.7,858.9,2039.2,857.7,2039.2L857.7,2039.2z M858.7,2037
		c0.6,0,1.1-0.2,1.5-0.6c0.4-0.6,0.6-1.3,0.5-2v-0.3c0.1-0.8-0.1-1.6-0.5-2.3c-0.4-0.5-1-0.7-1.6-0.7s-1.1,0.3-1.4,0.8
		c-0.4,0.7-0.5,1.4-0.5,2.2c-0.1,0.8,0.1,1.5,0.5,2.2C857.6,2036.8,858.1,2037.1,858.7,2037L858.7,2037z M868.2,2034.1
		c0,0.8,0.1,1.5,0.5,2.2c0.3,0.5,0.9,0.8,1.6,0.7c0.6,0.1,1.2-0.2,1.5-0.7c0.4-0.7,0.5-1.4,0.5-2.2c0-0.8-0.1-1.5-0.5-2.2
		c-0.7-0.9-2-1-2.8-0.3c-0.1,0.1-0.2,0.2-0.3,0.3C868.3,2032.6,868.1,2033.3,868.2,2034.1L868.2,2034.1z M875,2034.1
		c0.1,1.4-0.4,2.7-1.3,3.8c-0.9,0.9-2.2,1.4-3.5,1.4c-0.9,0-1.7-0.2-2.5-0.6c-0.7-0.4-1.3-1-1.7-1.8s-0.6-1.8-0.6-2.7
		c-0.1-1.4,0.4-2.7,1.3-3.7c0.9-0.9,2.2-1.4,3.5-1.3c0.9,0,1.7,0.2,2.5,0.6c0.7,0.4,1.3,1,1.7,1.8
		C874.8,2032.2,875,2033.1,875,2034.1L875,2034.1z M884,2036.1c0.1,0.9-0.3,1.8-1,2.3c-0.9,0.6-2,0.9-3.1,0.8c-0.6,0-1.2,0-1.8-0.1
		c-0.5-0.1-1-0.2-1.4-0.4v-2.2c0.5,0.2,1.1,0.4,1.7,0.6c0.5,0.1,1.1,0.2,1.6,0.2c1,0,1.5-0.3,1.5-0.8c0-0.2-0.1-0.4-0.2-0.5
		c-0.2-0.2-0.4-0.3-0.7-0.4c-0.3-0.2-0.7-0.4-1.3-0.6s-1.1-0.5-1.7-0.9c-0.3-0.2-0.6-0.6-0.8-0.9c-0.2-0.4-0.3-0.8-0.2-1.3
		c0-0.8,0.3-1.6,1-2c0.9-0.5,1.9-0.8,2.9-0.7c1.2,0,2.4,0.3,3.5,0.8l-0.8,1.9c-0.5-0.2-1-0.4-1.4-0.5s-0.9-0.2-1.3-0.2
		c-0.8,0-1.2,0.2-1.2,0.6c0,0.3,0.2,0.5,0.4,0.6c0.5,0.3,1.1,0.6,1.7,0.8c0.6,0.2,1.2,0.5,1.7,0.9c0.3,0.2,0.6,0.6,0.8,0.9
		C883.9,2035.2,884,2035.7,884,2036.1L884,2036.1z M896.2,2039.2c-1.1,0-2.1-0.4-2.7-1.3h-0.1c0.1,0.8,0.1,1.3,0.1,1.4v4h-2.7v-14.2
		h2.2l0.4,1.3h0.1c0.6-1,1.7-1.5,2.8-1.5s2.1,0.5,2.7,1.3c0.7,1.1,1.1,2.4,1,3.7c0,0.9-0.1,1.9-0.5,2.7c-0.3,0.7-0.7,1.3-1.3,1.8
		C897.6,2039,896.9,2039.2,896.2,2039.2L896.2,2039.2z M895.4,2031.1c-0.6,0-1.1,0.2-1.5,0.6c-0.4,0.6-0.5,1.3-0.5,2v0.3
		c-0.1,0.8,0.1,1.6,0.5,2.3c0.3,0.5,0.9,0.7,1.5,0.7c1.2,0,1.8-1,1.8-3c0-0.8-0.1-1.5-0.4-2.2C896.5,2031.4,896,2031.1,895.4,2031.1
		L895.4,2031.1z M908.4,2039l-0.5-1.3h-0.1c-0.4,0.5-0.8,0.9-1.4,1.2c-0.6,0.2-1.2,0.4-1.9,0.3c-0.8,0-1.6-0.2-2.2-0.8
		c-0.6-0.6-0.9-1.5-0.8-2.3c-0.1-0.9,0.3-1.8,1.1-2.3c1-0.6,2.1-0.9,3.3-0.8l1.7-0.1v-0.4c0.1-0.7-0.4-1.4-1.2-1.5
		c-0.1,0-0.3,0-0.4,0c-1,0-1.9,0.3-2.8,0.7l-0.9-1.8c1.2-0.6,2.5-0.9,3.8-0.9c1.1-0.1,2.2,0.2,3,0.9c0.7,0.7,1.1,1.6,1.1,2.6v6.5
		L908.4,2039L908.4,2039z M907.6,2034.4h-1c-0.6,0-1.2,0.1-1.7,0.4c-0.4,0.3-0.6,0.7-0.6,1.2c0,0.8,0.4,1.1,1.3,1.1
		c0.5,0,1.1-0.2,1.5-0.5c0.4-0.4,0.6-0.9,0.6-1.4L907.6,2034.4L907.6,2034.4z M918.5,2029c0.3,0,0.6,0,0.9,0.1l-0.2,2.5
		c-0.3-0.1-0.5-0.1-0.8-0.1c-0.7,0-1.4,0.2-2,0.7c-0.5,0.5-0.8,1.2-0.7,1.8v5H913v-9.8h2l0.4,1.7h0.1c0.3-0.5,0.7-1,1.2-1.3
		C917.3,2029.2,917.9,2029,918.5,2029L918.5,2029z M927.1,2039l-0.5-1.3h-0.1c-0.4,0.5-0.8,0.9-1.4,1.2c-0.6,0.2-1.2,0.4-1.9,0.3
		c-0.8,0-1.6-0.2-2.2-0.8c-0.6-0.6-0.9-1.5-0.8-2.3c-0.1-0.9,0.3-1.8,1.1-2.3c1-0.6,2.1-0.9,3.3-0.8l1.7-0.1v-0.4
		c0.1-0.7-0.4-1.4-1.2-1.5c-0.1,0-0.3,0-0.4,0c-1,0-1.9,0.3-2.8,0.7l-0.9-1.8c1.2-0.6,2.5-0.9,3.8-0.9c1.1-0.1,2.2,0.2,3,0.9
		c0.7,0.7,1.1,1.6,1.1,2.6v6.5L927.1,2039L927.1,2039z M926.3,2034.4h-1c-0.6,0-1.2,0.1-1.7,0.4c-0.4,0.3-0.6,0.7-0.6,1.2
		c0,0.8,0.4,1.1,1.3,1.1c0.5,0,1.1-0.2,1.5-0.5c0.4-0.4,0.6-0.9,0.6-1.4L926.3,2034.4L926.3,2034.4z M939.1,2039h-2.7v-13.7h2.7
		V2039z M948.1,2039l-0.5-1.3h-0.1c-0.4,0.5-0.8,0.9-1.4,1.2c-0.6,0.2-1.2,0.4-1.9,0.3c-0.8,0-1.6-0.2-2.2-0.8
		c-0.6-0.6-0.9-1.5-0.8-2.3c-0.1-0.9,0.3-1.8,1.1-2.3c1-0.6,2.1-0.9,3.3-0.8l1.7-0.1v-0.4c0.1-0.7-0.4-1.4-1.2-1.5
		c-0.1,0-0.3,0-0.4,0c-1,0-1.9,0.3-2.8,0.7l-0.9-1.8c1.2-0.6,2.5-0.9,3.8-0.9c1.1-0.1,2.2,0.2,3,0.9c0.7,0.7,1.1,1.6,1.1,2.6v6.5
		L948.1,2039L948.1,2039z M947.4,2034.4h-1c-0.6,0-1.2,0.1-1.7,0.4c-0.4,0.3-0.6,0.7-0.6,1.2c0,0.8,0.4,1.1,1.3,1.1
		c0.5,0,1.1-0.2,1.5-0.5c0.4-0.4,0.6-0.9,0.6-1.4L947.4,2034.4z M963.7,2039l-0.5-1.3h-0.1c-0.4,0.5-0.8,0.9-1.4,1.2
		c-0.6,0.2-1.2,0.4-1.9,0.3c-0.8,0-1.6-0.2-2.2-0.8c-0.6-0.6-0.9-1.5-0.8-2.3c-0.1-0.9,0.3-1.8,1.1-2.3c1-0.6,2.1-0.9,3.3-0.8
		l1.7-0.1v-0.4c0.1-0.7-0.4-1.4-1.2-1.5c-0.1,0-0.3,0-0.4,0c-1,0-1.9,0.3-2.8,0.7l-0.9-1.8c1.2-0.6,2.5-0.9,3.8-0.9
		c1.1-0.1,2.2,0.2,3,0.9c0.7,0.7,1.1,1.6,1.1,2.6v6.5L963.7,2039L963.7,2039z M962.9,2034.4h-1c-0.6,0-1.2,0.1-1.7,0.4
		c-0.4,0.3-0.6,0.7-0.6,1.2c0,0.8,0.4,1.1,1.3,1.1c0.5,0,1.1-0.2,1.5-0.5c0.4-0.4,0.6-0.9,0.6-1.4L962.9,2034.4L962.9,2034.4z
		 M972.3,2039.2c-3.1,0-4.6-1.7-4.6-5c-0.1-1.4,0.4-2.8,1.2-3.8c1-0.9,2.3-1.4,3.6-1.3c1.1,0,2.1,0.2,3.1,0.7l-0.8,2.1
		c-0.4-0.2-0.8-0.3-1.2-0.4s-0.7-0.2-1.1-0.2c-1.4,0-2.1,1-2.1,3c0,1.9,0.7,2.9,2.1,2.9c0.5,0,1-0.1,1.4-0.2
		c0.5-0.2,0.9-0.4,1.3-0.6v2.3c-0.4,0.3-0.8,0.5-1.3,0.6C973.4,2039.1,972.9,2039.2,972.3,2039.2z M977.5,2026.6
		c0-0.9,0.5-1.3,1.5-1.3s1.5,0.4,1.5,1.3c0,0.4-0.1,0.7-0.4,1c-0.3,0.3-0.7,0.4-1.1,0.3C978,2028,977.5,2027.5,977.5,2026.6
		L977.5,2026.6z M980.3,2039h-2.7v-9.8h2.7V2039z M986.2,2039.2c-1.1,0-2.1-0.5-2.7-1.3c-0.7-1.1-1.1-2.4-1-3.7
		c-0.1-1.3,0.3-2.7,1-3.8c0.6-0.9,1.7-1.4,2.8-1.3c1.1-0.1,2.2,0.5,2.8,1.4h0.1c-0.1-0.6-0.2-1.3-0.2-2v-3.1h2.7v13.7h-2.1l-0.5-1.3
		H989C988.4,2038.7,987.3,2039.2,986.2,2039.2z M987.1,2037c0.6,0,1.1-0.2,1.5-0.6c0.4-0.6,0.6-1.3,0.5-2v-0.3
		c0.1-0.8-0.1-1.6-0.5-2.3c-0.4-0.5-1-0.7-1.6-0.7s-1.1,0.3-1.4,0.8c-0.4,0.7-0.5,1.4-0.5,2.2c-0.1,0.8,0.1,1.5,0.5,2.2
		C986,2036.8,986.5,2037.1,987.1,2037z M994.3,2026.6c0-0.9,0.5-1.3,1.5-1.3s1.5,0.4,1.5,1.3c0,0.4-0.1,0.7-0.4,1
		c-0.3,0.3-0.7,0.4-1.1,0.3C994.8,2028,994.3,2027.5,994.3,2026.6L994.3,2026.6z M997.1,2039h-2.7v-9.8h2.7V2039z M1005.4,2031.2
		h-2.3v7.8h-2.7v-7.8h-1.5v-1.3l1.5-0.7v-0.7c-0.1-0.9,0.2-1.8,0.8-2.5c0.8-0.6,1.7-0.9,2.6-0.8c0.8,0,1.7,0.1,2.5,0.4l-0.7,2
		c-0.5-0.2-1-0.2-1.5-0.3c-0.3,0-0.6,0.1-0.8,0.3c-0.2,0.3-0.3,0.6-0.3,0.9v0.6h2.3L1005.4,2031.2z M1006.8,2026.6
		c0-0.9,0.5-1.3,1.5-1.3s1.5,0.4,1.5,1.3c0,0.4-0.1,0.7-0.4,1c-0.3,0.3-0.7,0.4-1.1,0.3C1007.3,2028,1006.8,2027.5,1006.8,2026.6
		L1006.8,2026.6z M1009.6,2039h-2.7v-9.8h2.7V2039z M1016.4,2039.2c-3.1,0-4.6-1.7-4.6-5c-0.1-1.4,0.4-2.8,1.2-3.8
		c1-0.9,2.3-1.4,3.6-1.3c1.1,0,2.1,0.2,3.1,0.7l-0.8,2.1c-0.4-0.2-0.8-0.3-1.2-0.4s-0.7-0.2-1.1-0.2c-1.4,0-2.1,1-2.1,3
		c0,1.9,0.7,2.9,2.1,2.9c0.5,0,1-0.1,1.4-0.2c0.5-0.2,0.9-0.4,1.3-0.6v2.3c-0.4,0.3-0.8,0.5-1.3,0.6
		C1017.5,2039.1,1017,2039.2,1016.4,2039.2L1016.4,2039.2z M1027.9,2039l-0.5-1.3h-0.1c-0.4,0.5-0.8,0.9-1.4,1.2
		c-0.6,0.2-1.2,0.4-1.9,0.3c-0.8,0-1.6-0.2-2.2-0.8c-0.6-0.6-0.9-1.5-0.8-2.3c-0.1-0.9,0.3-1.8,1.1-2.3c1-0.6,2.1-0.9,3.3-0.8
		l1.7-0.1v-0.4c0.1-0.7-0.4-1.4-1.2-1.5c-0.1,0-0.3,0-0.4,0c-1,0-1.9,0.3-2.8,0.7l-0.9-1.8c1.2-0.6,2.5-0.9,3.8-0.9
		c1.1-0.1,2.2,0.2,3,0.9c0.7,0.7,1.1,1.6,1.1,2.6v6.5L1027.9,2039L1027.9,2039z M1027.1,2034.4h-1c-0.6,0-1.2,0.1-1.7,0.4
		c-0.4,0.3-0.6,0.7-0.6,1.2c0,0.8,0.4,1.1,1.3,1.1c0.5,0,1.1-0.2,1.5-0.5c0.4-0.4,0.6-0.9,0.6-1.4v-0.8H1027.1z M1036.5,2039.2
		c-3.1,0-4.6-1.7-4.6-5c-0.1-1.4,0.4-2.8,1.2-3.8c1-0.9,2.3-1.4,3.6-1.3c1.1,0,2.1,0.2,3.1,0.7l-0.8,2.1c-0.4-0.2-0.8-0.3-1.2-0.4
		c-0.4-0.1-0.7-0.2-1.1-0.2c-1.4,0-2.1,1-2.1,3c0,1.9,0.7,2.9,2.1,2.9c0.5,0,1-0.1,1.4-0.2c0.5-0.2,0.9-0.4,1.3-0.6v2.3
		c-0.4,0.3-0.8,0.5-1.3,0.6C1037.7,2039.1,1037.1,2039.2,1036.5,2039.2L1036.5,2039.2z M1041.7,2026.6c0-0.9,0.5-1.3,1.5-1.3
		s1.5,0.4,1.5,1.3c0,0.4-0.1,0.7-0.4,1s-0.7,0.4-1.1,0.3C1042.2,2028,1041.7,2027.5,1041.7,2026.6L1041.7,2026.6z M1044.5,2039h-2.7
		v-9.8h2.7V2039z M1049.4,2034.1c0,0.8,0.1,1.5,0.5,2.2c0.3,0.5,0.9,0.8,1.6,0.7c0.6,0.1,1.2-0.2,1.5-0.7c0.4-0.7,0.5-1.4,0.5-2.2
		c0.1-0.8-0.1-1.5-0.5-2.2c-0.7-0.9-2-1-2.8-0.3c-0.1,0.1-0.2,0.2-0.3,0.3C1049.5,2032.6,1049.4,2033.3,1049.4,2034.1z
		 M1056.2,2034.1c0.1,1.4-0.4,2.7-1.3,3.8c-0.9,0.9-2.2,1.4-3.5,1.4c-0.9,0-1.7-0.2-2.5-0.6c-0.7-0.4-1.3-1-1.7-1.8
		c-0.4-0.8-0.6-1.8-0.6-2.7c-0.1-1.4,0.4-2.7,1.3-3.7c0.9-0.9,2.2-1.4,3.5-1.3c0.9,0,1.7,0.2,2.5,0.6c0.7,0.4,1.3,1,1.7,1.8
		C1056,2032.2,1056.2,2033.1,1056.2,2034.1z M1050,2028.1v-0.2c0.7-0.8,1.4-1.7,2.1-2.6h3v0.2c-0.3,0.3-0.8,0.8-1.6,1.4
		c-0.7,0.6-1.3,1-1.7,1.3h-1.8V2028.1z M1067.5,2039h-2.7v-5.7c0-0.6-0.1-1.1-0.4-1.6c-0.3-0.4-0.7-0.6-1.2-0.5
		c-0.6-0.1-1.3,0.2-1.6,0.8c-0.4,0.8-0.6,1.6-0.5,2.5v4.6h-2.7v-9.8h2l0.4,1.3h0.1c0.3-0.5,0.7-0.8,1.2-1.1c0.6-0.3,1.2-0.4,1.8-0.4
		c1-0.1,1.9,0.3,2.6,0.9c0.6,0.7,1,1.7,0.9,2.7L1067.5,2039z M1078,2039.2c-1.1,0-2.1-0.5-2.7-1.3c-0.7-1.1-1.1-2.4-1-3.7
		c-0.1-1.3,0.3-2.7,1-3.8c0.6-0.9,1.7-1.4,2.8-1.3c1.1-0.1,2.2,0.5,2.8,1.4h0.1c-0.1-0.6-0.2-1.3-0.2-2v-3.1h2.7v13.7h-2.1l-0.5-1.3
		h-0.1C1080.2,2038.7,1079.2,2039.2,1078,2039.2L1078,2039.2z M1079,2037c0.6,0,1.1-0.2,1.5-0.6c0.4-0.6,0.6-1.3,0.5-2v-0.3
		c0.1-0.8-0.1-1.6-0.5-2.3c-0.4-0.5-1-0.7-1.6-0.7s-1.1,0.3-1.4,0.8c-0.4,0.7-0.5,1.4-0.5,2.2c-0.1,0.8,0.1,1.5,0.5,2.2
		C1077.9,2036.8,1078.4,2037.1,1079,2037L1079,2037z M1090.4,2030.9c-0.5,0-1,0.2-1.3,0.5c-0.4,0.4-0.5,1-0.6,1.5h3.8
		c0-0.6-0.2-1.1-0.5-1.5C1091.4,2031.1,1090.9,2030.9,1090.4,2030.9z M1090.8,2039.2c-1.4,0.1-2.7-0.4-3.7-1.3
		c-0.9-1-1.4-2.3-1.3-3.7c-0.1-1.4,0.4-2.7,1.2-3.8c0.9-0.9,2.1-1.4,3.4-1.3c1.2-0.1,2.4,0.4,3.2,1.2c0.8,0.9,1.2,2.1,1.2,3.3v1.3
		h-6.3c0,0.7,0.2,1.3,0.7,1.8c0.5,0.4,1.1,0.7,1.8,0.6c0.6,0,1.1-0.1,1.7-0.2s1.1-0.3,1.7-0.6v2.1c-0.5,0.2-1,0.4-1.5,0.5
		C1092.1,2039.1,1091.4,2039.2,1090.8,2039.2L1090.8,2039.2z M1108.6,2039l-0.4-1.3h-0.1c-0.3,0.5-0.7,0.8-1.2,1.1
		c-0.6,0.3-1.2,0.4-1.8,0.4c-1,0.1-1.9-0.3-2.6-0.9c-0.6-0.7-0.9-1.7-0.9-2.7v-6.4h2.7v5.7c0,0.6,0.1,1.1,0.4,1.6
		c0.3,0.4,0.7,0.6,1.2,0.5c0.6,0.1,1.3-0.2,1.6-0.8c0.4-0.8,0.6-1.6,0.5-2.5v-4.6h2.7v9.8h-2.1V2039z M1122.5,2039h-2.7v-5.7
		c0-0.6-0.1-1.1-0.4-1.6c-0.3-0.4-0.7-0.6-1.2-0.5c-0.6-0.1-1.3,0.2-1.6,0.8c-0.4,0.8-0.6,1.6-0.5,2.5v4.6h-2.7v-9.8h2l0.4,1.3h0.1
		c0.3-0.5,0.7-0.8,1.2-1.1c0.6-0.3,1.2-0.4,1.8-0.4c1-0.1,1.9,0.3,2.6,0.9c0.6,0.7,1,1.7,0.9,2.7L1122.5,2039z M1131.5,2039
		l-0.5-1.3h-0.1c-0.4,0.5-0.8,0.9-1.4,1.2c-0.6,0.2-1.2,0.4-1.9,0.3c-0.8,0-1.6-0.2-2.2-0.8c-0.6-0.6-0.9-1.5-0.8-2.3
		c-0.1-0.9,0.3-1.8,1.1-2.3c1-0.6,2.1-0.9,3.3-0.8l1.7-0.1v-0.4c0.1-0.7-0.4-1.4-1.2-1.5c-0.1,0-0.3,0-0.4,0c-1,0-1.9,0.3-2.8,0.7
		l-0.9-1.8c1.2-0.6,2.5-0.9,3.8-0.9c1.1-0.1,2.2,0.2,3,0.9c0.7,0.7,1.1,1.6,1.1,2.6v6.5L1131.5,2039L1131.5,2039z M1130.7,2034.4h-1
		c-0.6,0-1.2,0.1-1.7,0.4c-0.4,0.3-0.6,0.7-0.6,1.2c0,0.8,0.4,1.1,1.3,1.1c0.5,0,1.1-0.2,1.5-0.5c0.4-0.4,0.6-0.9,0.6-1.4v-0.8
		H1130.7z M1147.7,2036.1c0.1,0.9-0.3,1.8-1,2.3c-0.9,0.6-2,0.9-3.1,0.8c-0.6,0-1.2,0-1.8-0.1c-0.5-0.1-1-0.2-1.4-0.4v-2.2
		c0.5,0.2,1.1,0.4,1.7,0.6c0.5,0.1,1.1,0.2,1.6,0.2c1,0,1.5-0.3,1.5-0.8c0-0.2-0.1-0.4-0.2-0.5c-0.2-0.2-0.4-0.3-0.7-0.4
		c-0.3-0.2-0.7-0.4-1.3-0.6c-0.6-0.2-1.1-0.5-1.7-0.9c-0.3-0.2-0.6-0.6-0.8-0.9c-0.2-0.4-0.3-0.8-0.2-1.3c0-0.8,0.3-1.6,1-2
		c0.9-0.5,1.9-0.8,2.9-0.7c1.2,0,2.4,0.3,3.5,0.8l-0.8,1.9c-0.5-0.2-1-0.4-1.4-0.5s-0.9-0.2-1.3-0.2c-0.8,0-1.2,0.2-1.2,0.6
		c0,0.3,0.2,0.5,0.4,0.6c0.5,0.3,1.1,0.6,1.7,0.8c0.6,0.2,1.2,0.5,1.7,0.9c0.3,0.2,0.6,0.6,0.8,0.9
		C1147.6,2035.2,1147.7,2035.6,1147.7,2036.1z M1151.9,2034.1c0,0.8,0.1,1.5,0.5,2.2c0.3,0.5,0.9,0.8,1.6,0.7
		c0.6,0.1,1.2-0.2,1.5-0.7c0.4-0.7,0.5-1.4,0.5-2.2c0-0.8-0.1-1.5-0.5-2.2c-0.7-0.9-2-1-2.8-0.3c-0.1,0.1-0.2,0.2-0.3,0.3
		C1152,2032.6,1151.9,2033.3,1151.9,2034.1L1151.9,2034.1z M1158.7,2034.1c0.1,1.4-0.4,2.7-1.3,3.8c-0.9,0.9-2.2,1.4-3.5,1.4
		c-0.9,0-1.7-0.2-2.5-0.6c-0.7-0.4-1.3-1-1.7-1.8c-0.4-0.8-0.6-1.8-0.6-2.7c-0.1-1.4,0.4-2.7,1.3-3.7c0.9-0.9,2.2-1.4,3.5-1.3
		c0.9,0,1.7,0.2,2.5,0.6c0.7,0.4,1.3,1,1.7,1.8C1158.5,2032.2,1158.7,2033.1,1158.7,2034.1L1158.7,2034.1z M1163.6,2039h-2.7v-13.7
		h2.7V2039z M1173.4,2039l-0.4-1.3h-0.1c-0.3,0.5-0.7,0.8-1.2,1.1c-0.6,0.3-1.2,0.4-1.8,0.4c-1,0.1-1.9-0.3-2.6-0.9
		c-0.6-0.7-0.9-1.7-0.9-2.7v-6.4h2.7v5.7c0,0.6,0.1,1.1,0.4,1.6c0.3,0.4,0.7,0.6,1.2,0.5c0.6,0.1,1.3-0.2,1.6-0.8
		c0.4-0.8,0.6-1.6,0.5-2.5v-4.6h2.7v9.8h-2.1V2039z M1182.3,2039.2c-3.1,0-4.6-1.7-4.6-5c-0.1-1.4,0.4-2.8,1.2-3.8
		c1-0.9,2.3-1.4,3.6-1.3c1.1,0,2.1,0.2,3.1,0.7l-0.8,2.1c-0.4-0.2-0.8-0.3-1.2-0.4c-0.4-0.1-0.7-0.2-1.1-0.2c-1.4,0-2.1,1-2.1,3
		c0,1.9,0.7,2.9,2.1,2.9c0.5,0,1-0.1,1.4-0.2c0.5-0.2,0.9-0.4,1.3-0.6v2.3c-0.4,0.3-0.8,0.5-1.3,0.6
		C1183.4,2039.1,1182.8,2039.2,1182.3,2039.2L1182.3,2039.2z M1187.4,2026.6c0-0.9,0.5-1.3,1.5-1.3s1.5,0.4,1.5,1.3
		c0,0.4-0.1,0.7-0.4,1s-0.7,0.4-1.1,0.3C1187.9,2028,1187.4,2027.5,1187.4,2026.6z M1190.2,2039h-2.7v-9.8h2.7V2039z M1195.1,2034.1
		c0,0.8,0.1,1.5,0.5,2.2c0.3,0.5,0.9,0.8,1.6,0.7c0.6,0.1,1.2-0.2,1.5-0.7c0.4-0.7,0.5-1.4,0.5-2.2c0-0.8-0.1-1.5-0.5-2.2
		c-0.7-0.9-2-1-2.8-0.3c-0.1,0.1-0.2,0.2-0.3,0.3C1195.3,2032.6,1195.1,2033.3,1195.1,2034.1L1195.1,2034.1z M1201.9,2034.1
		c0.1,1.4-0.4,2.7-1.3,3.8c-0.9,0.9-2.2,1.4-3.5,1.4c-0.9,0-1.7-0.2-2.5-0.6c-0.7-0.4-1.3-1-1.7-1.8c-0.4-0.8-0.6-1.8-0.6-2.7
		c-0.1-1.4,0.4-2.7,1.3-3.7c0.9-0.9,2.2-1.4,3.5-1.3c0.9,0,1.7,0.2,2.5,0.6c0.7,0.4,1.3,1,1.7,1.8
		C1201.8,2032.2,1202,2033.1,1201.9,2034.1L1201.9,2034.1z M1195.7,2028.1v-0.2c0.7-0.8,1.4-1.7,2.1-2.6h3v0.2
		c-0.3,0.3-0.8,0.8-1.6,1.4c-0.7,0.6-1.3,1-1.7,1.3h-1.8V2028.1z M1213.2,2039h-2.7v-5.7c0-0.6-0.1-1.1-0.4-1.6
		c-0.3-0.4-0.7-0.6-1.2-0.5c-0.6-0.1-1.3,0.2-1.6,0.8c-0.4,0.8-0.6,1.6-0.5,2.5v4.6h-2.7v-9.8h2l0.4,1.3h0.1
		c0.3-0.5,0.7-0.8,1.2-1.1c0.6-0.3,1.2-0.4,1.8-0.4c1-0.1,1.9,0.3,2.6,0.9c0.6,0.7,1,1.7,0.9,2.7L1213.2,2039z M1229.7,2039h-2.7
		v-5.7c0-0.6-0.1-1.1-0.4-1.6c-0.3-0.4-0.7-0.6-1.2-0.5c-0.6-0.1-1.3,0.2-1.6,0.8c-0.4,0.8-0.6,1.6-0.5,2.5v4.6h-2.7v-9.8h2l0.4,1.3
		h0.1c0.3-0.5,0.7-0.8,1.2-1.1c0.6-0.3,1.2-0.4,1.8-0.4c1-0.1,1.9,0.3,2.6,0.9c0.6,0.7,1,1.7,0.9,2.7L1229.7,2039z M1239.4,2039
		l-0.4-1.3h-0.1c-0.3,0.5-0.7,0.8-1.2,1.1c-0.6,0.3-1.2,0.4-1.8,0.4c-1,0.1-1.9-0.3-2.6-0.9c-0.6-0.7-0.9-1.7-0.9-2.7v-6.4h2.7v5.7
		c0,0.6,0.1,1.1,0.4,1.6c0.3,0.4,0.7,0.6,1.2,0.5c0.6,0.1,1.3-0.2,1.6-0.8c0.4-0.8,0.6-1.6,0.5-2.5v-4.6h2.7v9.8h-2.1V2039z
		 M1248.5,2037c0.6,0,1.1-0.1,1.7-0.3v2c-0.8,0.3-1.6,0.5-2.5,0.4c-0.9,0.1-1.7-0.2-2.3-0.8c-0.5-0.7-0.8-1.6-0.7-2.4v-4.7h-1.3
		v-1.1l1.5-0.9l0.8-2.1h1.7v2.1h2.8v2h-2.8v4.7c0,0.3,0.1,0.6,0.3,0.8C1247.9,2037,1248.2,2037.1,1248.5,2037L1248.5,2037z
		 M1257.6,2029c0.3,0,0.6,0,0.9,0.1l-0.2,2.5c-0.3-0.1-0.5-0.1-0.8-0.1c-0.7,0-1.4,0.2-2,0.7c-0.5,0.5-0.8,1.2-0.7,1.8v5h-2.7v-9.8
		h2l0.4,1.7h0.1c0.3-0.5,0.7-1,1.2-1.3C1256.4,2029.2,1257,2029,1257.6,2029L1257.6,2029z M1260.2,2026.6c0-0.9,0.5-1.3,1.5-1.3
		s1.5,0.4,1.5,1.3c0,0.4-0.1,0.7-0.4,1s-0.7,0.4-1.1,0.3C1260.7,2028,1260.2,2027.5,1260.2,2026.6L1260.2,2026.6z M1263,2039h-2.7
		v-9.8h2.7V2039z M1269.9,2037c0.6,0,1.1-0.1,1.7-0.3v2c-0.8,0.3-1.6,0.5-2.5,0.4c-0.9,0.1-1.7-0.2-2.3-0.8
		c-0.5-0.7-0.8-1.6-0.7-2.4v-4.7h-1.3v-1.1l1.5-0.9l0.8-2.1h1.7v2.1h2.8v2h-2.8v4.7c0,0.3,0.1,0.6,0.3,0.8
		C1269.3,2037,1269.6,2037.1,1269.9,2037L1269.9,2037z M1273.5,2026.6c0-0.9,0.5-1.3,1.5-1.3s1.5,0.4,1.5,1.3c0,0.4-0.1,0.7-0.4,1
		s-0.7,0.4-1.1,0.3C1274,2028,1273.5,2027.5,1273.5,2026.6z M1276.3,2039h-2.7v-9.8h2.7V2039z M1281.4,2039l-3.7-9.8h2.8l1.9,5.6
		c0.2,0.7,0.3,1.3,0.4,2h0.1c0.1-0.7,0.2-1.4,0.4-2l1.9-5.6h2.8l-3.8,9.8H1281.4z M1295.6,2039l-0.5-1.3h-0.1
		c-0.4,0.5-0.8,0.9-1.4,1.2c-0.6,0.2-1.2,0.4-1.9,0.3c-0.8,0-1.6-0.2-2.2-0.8c-0.6-0.6-0.9-1.5-0.8-2.3c-0.1-0.9,0.3-1.8,1.1-2.3
		c1-0.6,2.1-0.9,3.3-0.8l1.7-0.1v-0.4c0.1-0.7-0.4-1.4-1.2-1.5c-0.1,0-0.3,0-0.4,0c-1,0-1.9,0.3-2.8,0.7l-0.9-1.8
		c1.2-0.6,2.5-0.9,3.8-0.9c1.1-0.1,2.2,0.2,3,0.9c0.7,0.7,1.1,1.6,1.1,2.6v6.5L1295.6,2039L1295.6,2039z M1294.8,2034.4h-1
		c-0.6,0-1.2,0.1-1.7,0.4c-0.4,0.3-0.6,0.7-0.6,1.2c0,0.8,0.4,1.1,1.3,1.1c0.5,0,1.1-0.2,1.5-0.5c0.4-0.4,0.6-0.9,0.6-1.4v-0.8
		H1294.8z M1311.7,2036.1c0.1,0.9-0.3,1.8-1,2.3c-0.9,0.6-2,0.9-3.1,0.8c-0.6,0-1.2,0-1.8-0.1c-0.5-0.1-1-0.2-1.4-0.4v-2.2
		c0.5,0.2,1.1,0.4,1.7,0.6c0.5,0.1,1.1,0.2,1.6,0.2c1,0,1.5-0.3,1.5-0.8c0-0.2-0.1-0.4-0.2-0.5c-0.2-0.2-0.4-0.3-0.7-0.4
		c-0.3-0.2-0.7-0.4-1.3-0.6c-0.6-0.2-1.1-0.5-1.7-0.9c-0.3-0.2-0.6-0.6-0.8-0.9c-0.2-0.4-0.3-0.8-0.2-1.3c0-0.8,0.3-1.6,1-2
		c0.9-0.5,1.9-0.8,2.9-0.7c1.2,0,2.4,0.3,3.5,0.8l-0.8,1.9c-0.5-0.2-1-0.4-1.4-0.5s-0.9-0.2-1.3-0.2c-0.8,0-1.2,0.2-1.2,0.6
		c0,0.3,0.2,0.5,0.4,0.6c0.5,0.3,1.1,0.6,1.7,0.8c0.6,0.2,1.2,0.5,1.7,0.9c0.3,0.2,0.6,0.6,0.8,0.9
		C1311.7,2035.2,1311.8,2035.6,1311.7,2036.1z M1316,2034.1c0,0.8,0.1,1.5,0.5,2.2c0.3,0.5,0.9,0.8,1.6,0.7c0.6,0.1,1.2-0.2,1.5-0.7
		c0.4-0.7,0.5-1.4,0.5-2.2c0-0.8-0.1-1.5-0.5-2.2c-0.7-0.9-2-1-2.8-0.3c-0.1,0.1-0.2,0.2-0.3,0.3
		C1316.1,2032.6,1315.9,2033.3,1316,2034.1L1316,2034.1z M1322.8,2034.1c0.1,1.4-0.4,2.7-1.3,3.8c-0.9,0.9-2.2,1.4-3.5,1.4
		c-0.9,0-1.7-0.2-2.5-0.6c-0.7-0.4-1.3-1-1.7-1.8c-0.4-0.8-0.6-1.8-0.6-2.7c-0.1-1.4,0.4-2.7,1.3-3.7c0.9-0.9,2.2-1.4,3.5-1.3
		c0.9,0,1.7,0.2,2.5,0.6c0.7,0.4,1.3,1,1.7,1.8C1322.6,2032.2,1322.8,2033.1,1322.8,2034.1L1322.8,2034.1z M1334.1,2039h-2.7v-5.7
		c0-0.6-0.1-1.1-0.4-1.6c-0.3-0.4-0.7-0.6-1.2-0.5c-0.6-0.1-1.3,0.2-1.6,0.8c-0.4,0.8-0.6,1.6-0.5,2.5v4.6h-2.7v-9.8h2l0.4,1.3h0.1
		c0.3-0.5,0.7-0.8,1.2-1.1c0.6-0.3,1.2-0.4,1.8-0.4c1-0.1,1.9,0.3,2.6,0.9c0.6,0.7,1,1.7,0.9,2.7L1334.1,2039z M1336.4,2037.7
		c0-0.4,0.1-0.8,0.4-1.1c0.3-0.3,0.7-0.4,1.2-0.4c0.4,0,0.8,0.1,1.1,0.4c0.5,0.6,0.5,1.6,0,2.2c-0.3,0.3-0.7,0.4-1.1,0.4
		s-0.8-0.1-1.1-0.4C1336.6,2038.6,1336.4,2038.2,1336.4,2037.7L1336.4,2037.7z M1336.4,2030.5c0-0.4,0.1-0.8,0.4-1.1
		c0.3-0.3,0.7-0.4,1.2-0.4c0.4,0,0.8,0.1,1.1,0.4c0.3,0.3,0.4,0.7,0.4,1.1s-0.1,0.8-0.4,1.1c-0.3,0.3-0.7,0.4-1.1,0.4
		s-0.8-0.1-1.1-0.4C1336.6,2031.3,1336.4,2030.9,1336.4,2030.5L1336.4,2030.5z"/>
	<path id="Rectángulo_2011" class="st3" d="M775,2089h371c2.2,0,4,1.8,4,4v52c0,2.2-1.8,4-4,4H775c-2.2,0-4-1.8-4-4v-52
		C771,2090.8,772.8,2089,775,2089z"/>
	<path id="Trazado_17170" class="st4" d="M878.9,2105.4h-4l-3.2,3.5h2.9L878.9,2105.4z M879.1,2127h4.1l-7.5-16.8h-3.8l-7.5,16.8h4
		l1.5-3.6h7.8L879.1,2127z M871.1,2120.4l2.7-6.4l2.7,6.4H871.1z M890.8,2127.2c2.7,0,4.8-1.2,5.8-3.3l-2.9-1.6
		c-0.5,1.1-1.7,1.8-2.9,1.8c-1.8,0.1-3.3-1.4-3.4-3.2c0-0.1,0-0.2,0-0.4c-0.2-1.8,1.2-3.4,3-3.6c0.1,0,0.2,0,0.4,0
		c1.2,0,2.4,0.7,2.9,1.8l2.9-1.6c-0.9-2.1-3.1-3.3-5.8-3.3c-4.2,0-7.2,2.8-7.2,6.6S886.6,2127.2,890.8,2127.2z M900.6,2112.3
		c1.2,0.1,2.2-0.8,2.3-2c0-0.1,0-0.1,0-0.2c0-1.2-1-2.1-2.2-2c-0.1,0-0.1,0-0.2,0c-1.2-0.1-2.2,0.8-2.3,1.9v0.1c0,1.2,1,2.1,2.2,2.1
		C900.6,2112.3,900.6,2112.3,900.6,2112.3L900.6,2112.3z M898.8,2127h3.7v-12.9h-3.7V2127z M915.4,2109.2v6.3
		c-1-1.1-2.4-1.6-3.9-1.6c-3.5-0.1-6.4,2.6-6.5,6.1c0,0.2,0,0.4,0,0.6c-0.2,3.5,2.4,6.4,5.9,6.6c0.2,0,0.4,0,0.6,0
		c1.5,0.1,3-0.5,4-1.7v1.5h3.6v-17.8L915.4,2109.2L915.4,2109.2z M912.2,2124.1c-1.8,0-3.3-1.4-3.3-3.2c0-0.1,0-0.2,0-0.4
		c-0.2-1.8,1.2-3.4,3-3.6c0.1,0,0.2,0,0.4,0c1.8,0,3.3,1.4,3.3,3.2c0,0.1,0,0.2,0,0.3c0.2,1.8-1.2,3.4-3,3.6
		C912.4,2124.1,912.3,2124.1,912.2,2124.1z M928.8,2127.2c4.1,0,7.1-2.8,7.1-6.6s-3-6.6-7.1-6.6s-7.1,2.8-7.1,6.6
		S924.6,2127.2,928.8,2127.2z M928.8,2124.1c-1.8,0-3.3-1.4-3.3-3.2c0-0.1,0-0.2,0-0.4c-0.2-1.8,1.2-3.4,3-3.6c0.1,0,0.2,0,0.4,0
		c1.8,0,3.3,1.4,3.3,3.2c0,0.1,0,0.2,0,0.4c0.2,1.8-1.1,3.4-2.9,3.6C929,2124.1,928.9,2124.1,928.8,2124.1z M969.7,2114.1v6.4
		c0,2.4-1.2,3.5-3,3.5c-1.7,0-2.6-1-2.6-3.1v-6.7h-3.7v7.3c0,4,2.3,5.8,5.5,5.8c1.5,0,3-0.6,4-1.7v1.5h3.6v-12.9h-3.8V2114.1z
		 M976.9,2127h3.7v-17.8h-3.7V2127z M988.2,2113.8c0-1.3,0.6-1.9,1.7-1.9c0.5,0,1.1,0.2,1.5,0.5l1-2.7c-0.9-0.5-1.9-0.7-2.9-0.7
		c-3.2,0-5,1.9-5,4.8v0.6h-2v2.9h2v9.7h3.7v-9.7h3.2v-2.9h-3.3L988.2,2113.8L988.2,2113.8z M1005,2109h-4l-3.2,3.5h2.9L1005,2109z
		 M1002.7,2114.1v6.4c0,2.4-1.2,3.5-3,3.5c-1.7,0-2.6-1-2.6-3.1v-6.7h-3.7v7.3c0,4,2.3,5.8,5.5,5.8c1.5,0,3-0.6,4-1.7v1.5h3.6v-12.9
		h-3.8V2114.1z M1013.5,2115.8v-1.7h-3.6v12.9h3.7v-6.1c0-2.5,1.4-3.6,3.4-3.6c0.3,0,0.5,0,0.8,0v-3.4
		C1016.2,2113.8,1014.6,2114.5,1013.5,2115.8L1013.5,2115.8z M1022,2112.3c1.2,0.1,2.2-0.8,2.3-2c0-0.1,0-0.1,0-0.2
		c0-1.2-1-2.1-2.2-2c-0.1,0-0.1,0-0.2,0c-1.2-0.1-2.2,0.8-2.3,1.9v0.1c0,1.2,1,2.1,2.2,2.1C1021.9,2112.3,1022,2112.3,1022,2112.3
		L1022,2112.3z M1020.2,2127h3.7v-12.9h-3.7V2127z M1033.6,2127.2c2.7,0,4.8-1.2,5.8-3.3l-2.9-1.6c-0.5,1.1-1.7,1.8-2.9,1.8
		c-1.8,0.1-3.3-1.4-3.4-3.2c0-0.1,0-0.2,0-0.4c-0.2-1.8,1.2-3.4,3-3.6c0.1,0,0.2,0,0.4,0c1.2,0,2.4,0.7,2.9,1.8l2.9-1.6
		c-0.9-2.1-3.1-3.3-5.8-3.3c-4.2,0-7.2,2.8-7.2,6.6S1029.4,2127.2,1033.6,2127.2z M1047.6,2127.2c4.1,0,7.1-2.8,7.1-6.6
		s-3-6.6-7.1-6.6s-7.1,2.8-7.1,6.6S1043.4,2127.2,1047.6,2127.2z M1047.6,2124.1c-1.8,0-3.3-1.4-3.3-3.2c0-0.1,0-0.2,0-0.4
		c-0.2-1.8,1.2-3.4,3-3.6c0.1,0,0.2,0,0.4,0c1.8,0,3.3,1.4,3.3,3.2c0,0.1,0,0.2,0,0.4c0.2,1.8-1.1,3.4-2.9,3.6
		C1047.8,2124.1,1047.7,2124.1,1047.6,2124.1z M952.4,2127.2c3.9,0,6.1-1.7,6.1-4.1c0-5.1-7.8-3-7.8-5.2c0-0.7,0.7-1.2,2.4-1.2
		c1.3,0,2.6,0.3,3.7,1l1.2-2.7c-1.5-0.8-3.2-1.2-5-1.1c-3.8,0-6,1.7-6,4.2c0,5.2,7.8,3,7.8,5.1c0,0.7-0.6,1.2-2.4,1.2
		c-1.6,0-3.1-0.4-4.5-1.2l-1.2,2.7C948.5,2126.7,950.5,2127.2,952.4,2127.2z"/>
	<path id="Rectángulo_2068" class="st3" d="M775,2158h371c2.2,0,4,1.8,4,4v52c0,2.2-1.8,4-4,4H775c-2.2,0-4-1.8-4-4v-52
		C771,2159.8,772.8,2158,775,2158z"/>
	<path id="Trazado_17171" class="st4" d="M877.1,2174.4h-4l-3.2,3.5h2.9L877.1,2174.4z M877.4,2196h4.1l-7.5-16.8h-3.8l-7.5,16.8h4
		l1.5-3.6h7.8L877.4,2196z M869.4,2189.4l2.7-6.4l2.7,6.4H869.4z M889.1,2196.2c2.7,0,4.8-1.2,5.8-3.3l-2.9-1.6
		c-0.5,1.1-1.7,1.8-2.9,1.8c-1.8,0.1-3.3-1.4-3.4-3.2c0-0.1,0-0.2,0-0.4c-0.2-1.8,1.2-3.4,3-3.6c0.1,0,0.2,0,0.4,0
		c1.2,0,2.4,0.7,2.9,1.8l2.9-1.6c-0.9-2.1-3.1-3.3-5.8-3.3c-4.2,0-7.2,2.8-7.2,6.6S884.9,2196.2,889.1,2196.2z M898.9,2181.3
		c1.2,0.1,2.2-0.8,2.3-2c0-0.1,0-0.1,0-0.2c0-1.2-1-2.1-2.2-2c-0.1,0-0.1,0-0.2,0c-1.2-0.1-2.2,0.8-2.3,1.9v0.1c0,1.2,1,2.1,2.2,2.1
		C898.8,2181.3,898.9,2181.3,898.9,2181.3L898.9,2181.3z M897,2196h3.7v-12.9H897V2196z M913.7,2178.2v6.3c-1-1.1-2.4-1.6-3.9-1.6
		c-3.5-0.1-6.4,2.6-6.5,6.1c0,0.2,0,0.4,0,0.6c-0.2,3.5,2.4,6.4,5.9,6.6c0.2,0,0.4,0,0.6,0c1.5,0.1,3-0.5,4-1.7v1.5h3.6v-17.8
		L913.7,2178.2L913.7,2178.2z M910.4,2193.1c-1.8,0-3.3-1.4-3.3-3.2c0-0.1,0-0.2,0-0.4c-0.2-1.8,1.2-3.4,3-3.6c0.1,0,0.2,0,0.4,0
		c1.8,0,3.3,1.4,3.3,3.2c0,0.1,0,0.2,0,0.3c0.2,1.8-1.2,3.4-3,3.6C910.7,2193.1,910.6,2193.1,910.4,2193.1z M927,2196.2
		c4.1,0,7.1-2.8,7.1-6.6s-3-6.6-7.1-6.6s-7.1,2.8-7.1,6.6S922.9,2196.2,927,2196.2z M927,2193.1c-1.8,0-3.3-1.4-3.3-3.2
		c0-0.1,0-0.2,0-0.4c-0.2-1.8,1.2-3.4,3-3.6c0.1,0,0.2,0,0.4,0c1.8,0,3.3,1.4,3.3,3.2c0,0.1,0,0.2,0,0.4c0.2,1.8-1.1,3.4-2.9,3.6
		C927.2,2193.1,927.1,2193.1,927,2193.1z M964.5,2196.2c4.1,0,7.1-2.8,7.1-6.6s-3-6.6-7.1-6.6s-7.1,2.8-7.1,6.6
		S960.4,2196.2,964.5,2196.2z M964.5,2193.1c-1.8,0-3.3-1.4-3.3-3.2c0-0.1,0-0.2,0-0.4c-0.2-1.8,1.2-3.4,3-3.6c0.1,0,0.2,0,0.4,0
		c1.8,0,3.3,1.4,3.3,3.2c0,0.1,0,0.2,0,0.4c0.2,1.8-1.1,3.4-2.9,3.6C964.8,2193.1,964.6,2193.1,964.5,2193.1z M978.4,2196.2
		c3.9,0,6.1-1.7,6.1-4.1c0-5.1-7.8-3-7.8-5.2c0-0.7,0.7-1.2,2.4-1.2c1.3,0,2.6,0.3,3.7,1l1.2-2.7c-1.5-0.8-3.2-1.2-5-1.1
		c-3.8,0-6,1.7-6,4.2c0,5.2,7.8,3,7.8,5.1c0,0.7-0.6,1.2-2.4,1.2c-1.6,0-3.1-0.4-4.5-1.2l-1.2,2.7
		C974.5,2195.7,976.5,2196.2,978.4,2196.2z M990.9,2182.8c0-1.3,0.6-1.9,1.7-1.9c0.5,0,1.1,0.2,1.5,0.5l1-2.7
		c-0.9-0.5-1.9-0.7-2.8-0.7c-3.2,0-5,1.9-5,4.8v0.6h-2v2.9h2v9.7h3.7v-9.7h3.2v-2.9h-3.3L990.9,2182.8z M999.9,2181.4h2.9l4.3-3.5
		h-4L999.9,2181.4z M1002.1,2196.2c4.1,0,7.1-2.8,7.1-6.6s-3-6.6-7.1-6.6s-7.1,2.8-7.1,6.6S998,2196.2,1002.1,2196.2z
		 M1002.1,2193.1c-1.8,0-3.3-1.4-3.3-3.2c0-0.1,0-0.2,0-0.4c-0.2-1.8,1.2-3.4,3-3.6c0.1,0,0.2,0,0.4,0c1.8,0,3.3,1.4,3.3,3.2
		c0,0.1,0,0.2,0,0.4c0.2,1.8-1.1,3.4-2.9,3.6C1002.3,2193.1,1002.2,2193.1,1002.1,2193.1z M1015.3,2184.8v-1.7h-3.6v12.9h3.7v-6.1
		c0-2.5,1.4-3.6,3.4-3.6c0.3,0,0.5,0,0.8,0v-3.4C1018,2182.8,1016.3,2183.5,1015.3,2184.8L1015.3,2184.8z M1023.8,2181.3
		c1.2,0.1,2.2-0.8,2.3-2c0-0.1,0-0.1,0-0.2c0-1.2-1-2.1-2.2-2c-0.1,0-0.1,0-0.2,0c-1.2-0.1-2.2,0.8-2.3,1.9v0.1c0,1.2,1,2.1,2.2,2.1
		C1023.7,2181.3,1023.7,2181.3,1023.8,2181.3L1023.8,2181.3z M1021.9,2196h3.7v-12.9h-3.7L1021.9,2196L1021.9,2196z M1035.4,2196.2
		c2.7,0,4.8-1.2,5.8-3.3l-2.9-1.6c-0.5,1.1-1.7,1.8-2.9,1.8c-1.8,0.1-3.3-1.4-3.4-3.2c0-0.1,0-0.2,0-0.4c-0.2-1.8,1.2-3.4,3-3.6
		c0.1,0,0.2,0,0.4,0c1.2,0,2.4,0.7,2.9,1.8l2.9-1.6c-0.9-2.1-3.1-3.3-5.8-3.3c-4.2,0-7.2,2.8-7.2,6.6
		C1028.2,2193.4,1031.2,2196.2,1035.4,2196.2z M1049.3,2196.2c4.1,0,7.1-2.8,7.1-6.6s-3-6.6-7.1-6.6s-7.1,2.8-7.1,6.6
		C1042.2,2193.4,1045.2,2196.2,1049.3,2196.2L1049.3,2196.2z M1049.3,2193.1c-1.8,0-3.3-1.4-3.3-3.2c0-0.1,0-0.2,0-0.4
		c-0.2-1.8,1.2-3.4,3-3.6c0.1,0,0.2,0,0.3,0c1.8,0,3.3,1.4,3.3,3.2c0,0.1,0,0.2,0,0.4c0.2,1.8-1.1,3.4-2.9,3.6
		C1049.5,2193.1,1049.4,2193.1,1049.3,2193.1L1049.3,2193.1z M952.9,2182.8c0-1.3,0.6-1.9,1.7-1.9c0.5,0,1.1,0.2,1.5,0.5l1-2.7
		c-0.9-0.5-1.9-0.7-2.8-0.7c-3.2,0-5,1.9-5,4.8v0.6h-2v2.9h2v9.7h3.7v-9.7h3.2v-2.9h-3.3L952.9,2182.8z"/>
	<path id="Rectángulo_2069" class="st3" d="M775,2227h371c2.2,0,4,1.8,4,4v52c0,2.2-1.8,4-4,4H775c-2.2,0-4-1.8-4-4v-52
		C771,2228.8,772.8,2227,775,2227z"/>
	<path id="Trazado_17172" class="st4" d="M892.8,2243.4h-4l-3.2,3.5h2.9L892.8,2243.4z M893,2265h4.1l-7.5-16.8h-3.8l-7.5,16.8h4
		l1.5-3.6h7.8L893,2265z M885,2258.4l2.7-6.4l2.7,6.4H885z M904.7,2265.2c2.7,0,4.8-1.2,5.8-3.3l-2.9-1.6c-0.5,1.1-1.7,1.8-2.9,1.8
		c-1.8,0.1-3.3-1.4-3.4-3.2c0-0.1,0-0.2,0-0.4c-0.2-1.8,1.2-3.4,3-3.6c0.1,0,0.2,0,0.4,0c1.2,0,2.4,0.7,2.9,1.8l2.9-1.6
		c-0.9-2.1-3.1-3.3-5.8-3.3c-4.2,0-7.2,2.8-7.2,6.6S900.5,2265.2,904.7,2265.2z M914.5,2250.3c1.2,0.1,2.2-0.8,2.3-2
		c0-0.1,0-0.1,0-0.2c0-1.2-1-2.1-2.2-2c-0.1,0-0.1,0-0.2,0c-1.2-0.1-2.2,0.8-2.3,1.9v0.1c0,1.2,1,2.1,2.2,2.1
		C914.4,2250.3,914.5,2250.3,914.5,2250.3L914.5,2250.3z M912.6,2265h3.7v-12.9h-3.7V2265z M929.3,2247.2v6.3
		c-1-1.1-2.4-1.6-3.9-1.6c-3.5-0.1-6.4,2.6-6.5,6.1c0,0.2,0,0.4,0,0.6c-0.2,3.5,2.4,6.4,5.9,6.6c0.2,0,0.4,0,0.6,0
		c1.5,0.1,3-0.5,4-1.7v1.5h3.6v-17.8L929.3,2247.2L929.3,2247.2z M926.1,2262.1c-1.8,0-3.3-1.4-3.3-3.2c0-0.1,0-0.2,0-0.4
		c-0.2-1.8,1.2-3.4,3-3.6c0.1,0,0.2,0,0.4,0c1.8,0,3.3,1.4,3.3,3.2c0,0.1,0,0.2,0,0.3c0.2,1.8-1.2,3.4-3,3.6
		C926.3,2262.1,926.2,2262.1,926.1,2262.1z M942.6,2265.2c4.1,0,7.1-2.8,7.1-6.6s-3-6.6-7.1-6.6s-7.1,2.8-7.1,6.6
		S938.5,2265.2,942.6,2265.2z M942.6,2262.1c-1.8,0-3.3-1.4-3.3-3.2c0-0.1,0-0.2,0-0.4c-0.2-1.8,1.2-3.4,3-3.6c0.1,0,0.2,0,0.4,0
		c1.8,0,3.3,1.4,3.3,3.2c0,0.1,0,0.2,0,0.4c0.2,1.8-1.1,3.4-2.9,3.6C942.9,2262.1,942.7,2262.1,942.6,2262.1z M978.1,2250.4h2.9
		l4.3-3.5h-4L978.1,2250.4z M978.4,2265h3.7v-12.9h-3.7V2265z M992.9,2261.7c-0.4,0.3-1,0.5-1.5,0.5c-0.8,0.1-1.6-0.6-1.6-1.4
		c0-0.1,0-0.2,0-0.3v-5.3h3.2v-2.9h-3.2v-3.1h-3.7v3.1h-2v2.9h2v5.3c0,3.1,1.8,4.6,4.8,4.6c1.1,0,2.1-0.2,3-0.8L992.9,2261.7z
		 M999.6,2253.8v-1.7H996v12.9h3.7v-6.1c0-2.5,1.4-3.6,3.4-3.6c0.3,0,0.5,0,0.8,0v-3.4C1002.4,2251.8,1000.7,2252.5,999.6,2253.8
		L999.6,2253.8z M1008.2,2250.3c1.2,0.1,2.2-0.8,2.3-2c0-0.1,0-0.1,0-0.2c0-1.2-1-2.1-2.2-2c-0.1,0-0.1,0-0.2,0
		c-1.2-0.1-2.2,0.8-2.3,1.9v0.1c0,1.2,1,2.1,2.2,2.1C1008.1,2250.3,1008.1,2250.3,1008.2,2250.3L1008.2,2250.3z M1006.3,2265h3.7
		v-12.9h-3.7V2265z M1019.8,2265.2c2.7,0,4.8-1.2,5.8-3.3l-2.9-1.6c-0.5,1.1-1.7,1.8-2.9,1.8c-1.8,0.1-3.3-1.4-3.4-3.2
		c0-0.1,0-0.2,0-0.4c-0.2-1.8,1.2-3.4,3-3.6c0.1,0,0.2,0,0.4,0c1.2,0,2.4,0.7,2.9,1.8l2.9-1.6c-0.9-2.1-3.1-3.3-5.8-3.3
		c-4.2,0-7.2,2.8-7.2,6.6S1015.6,2265.2,1019.8,2265.2z M1033.7,2265.2c4.1,0,7.1-2.8,7.1-6.6s-3-6.6-7.1-6.6s-7.1,2.8-7.1,6.6
		S1029.6,2265.2,1033.7,2265.2z M1033.7,2262.1c-1.8,0-3.3-1.4-3.3-3.2c0-0.1,0-0.2,0-0.4c-0.2-1.8,1.2-3.4,3-3.6c0.1,0,0.2,0,0.4,0
		c1.8,0,3.3,1.4,3.3,3.2c0,0.1,0,0.2,0,0.4c0.2,1.8-1.1,3.4-2.9,3.6C1033.9,2262.1,1033.8,2262.1,1033.7,2262.1z M970,2251
		c-1.7-0.1-3.4,0.6-4.6,1.8v-1.6h-3.8v13.8h4v-6.8c0-2.5,1.4-3.7,3.3-3.7c1.8,0,2.8,1,2.8,3.3v7.3h4v-7.9
		C975.7,2252.9,973.3,2251,970,2251z"/>
	<g id="Grupo_9294" transform="translate(27)">
		<g id="infographic" transform="translate(831 1416.859)">
			<g id="Grupo_9289" transform="translate(38.075 355.712)">
				
					<rect id="Rectángulo_2076" x="17.6" y="28.2" transform="matrix(0.7071 -0.7072 0.7072 0.7071 -32.4065 78.2124)" class="st5" width="121.2" height="100"/>
				
					<rect id="Rectángulo_2077" x="20.8" y="30.9" transform="matrix(0.7072 -0.7071 0.7071 0.7072 -32.4216 78.232)" class="st1" width="114.8" height="94.7"/>
				<path id="Trazado_17117" class="st6" d="M83.1,4.5l3.6-2.2L154,69.5l-2.2,3.6L100,56.3L83.1,4.5z"/>
				<path id="Trazado_17118" class="st5" d="M102,54.3l-8.3-25.4L85.5,3.6l33.6,33.6l33.6,33.6l-25.4-8.3L102,54.3z"/>
				<path id="Trazado_17119" class="st7" d="M161.1,88.5c0,1.7-1.4,3.1-3.1,3.1c-1.7,0-3.1-1.4-3.1-3.1s1.4-3.1,3.1-3.1
					C159.7,85.4,161.1,86.8,161.1,88.5L161.1,88.5z"/>
				<path id="Trazado_17120" class="st7" d="M158.1,101c0,1.7-1.4,3.1-3.1,3.1s-3.1-1.4-3.1-3.1s1.4-3.1,3.1-3.1
					C156.7,97.9,158.1,99.3,158.1,101z"/>
				<path id="Trazado_17121" class="st7" d="M164.1,108.7c0,1.7-1.4,3.1-3.1,3.1s-3.1-1.4-3.1-3.1s1.4-3.1,3.1-3.1
					C162.8,105.6,164.1,107,164.1,108.7z"/>
				<path id="Trazado_17122" class="st7" d="M157.1,125.9c0,1.7-1.4,3.1-3.1,3.1c-1.7,0-3.1-1.4-3.1-3.1s1.4-3.1,3.1-3.1l0,0
					C155.7,122.8,157.1,124.2,157.1,125.9L157.1,125.9z"/>
				<path id="Trazado_17123" class="st7" d="M164.6,142.1c0,1.7-1.4,3.1-3.1,3.1s-3.1-1.4-3.1-3.1c0-1.7,1.4-3.1,3.1-3.1
					C163.3,139,164.6,140.4,164.6,142.1z"/>
				<path id="Trazado_17124" class="st7" d="M171.2,137.3c0,1.7-1.4,3.1-3.1,3.1c-1.7,0-3.1-1.4-3.1-3.1s1.4-3.1,3.1-3.1l0,0
					C169.8,134.2,171.2,135.6,171.2,137.3z"/>
				<path id="Trazado_17125" class="st7" d="M155.1,151.4c0,1.7-1.4,3.1-3.1,3.1c-1.7,0-3.1-1.4-3.1-3.1c0-1.7,1.4-3.1,3.1-3.1
					S155.1,149.6,155.1,151.4L155.1,151.4z"/>
				<path id="Trazado_17126" class="st7" d="M156,139.5c0,1.7-1.4,3.1-3.1,3.1s-3.1-1.4-3.1-3.1c0-1.7,1.4-3.1,3.1-3.1
					S156,137.8,156,139.5L156,139.5z"/>
				<path id="Trazado_17127" class="st7" d="M173.5,151.5c0,1.7-1.4,3.1-3.1,3.1c-1.7,0-3.1-1.4-3.1-3.1c0-1.7,1.4-3.1,3.1-3.1
					S173.5,149.8,173.5,151.5z"/>
				<path id="Trazado_17128" class="st7" d="M181.4,151.5c0,1.7-1.4,3.1-3.1,3.1c-1.7,0-3.1-1.4-3.1-3.1c0-1.7,1.4-3.1,3.1-3.1l0,0
					C180,148.4,181.4,149.8,181.4,151.5z"/>
				<path id="Trazado_17129" class="st7" d="M140.2,151.5c0,1.7-1.4,3.1-3.1,3.1s-3.1-1.4-3.1-3.1c0-1.7,1.4-3.1,3.1-3.1
					S140.2,149.8,140.2,151.5z"/>
				<path id="Trazado_17130" class="st7" d="M163.6,151.5c0,1.6-1.3,2.9-2.9,2.9s-2.9-1.3-2.9-2.9c0-1.6,1.3-2.9,2.9-2.9
					S163.6,149.9,163.6,151.5L163.6,151.5z"/>
				<path id="Trazado_17131" class="st7" d="M146.6,151.5c0,1.6-1.3,2.9-2.9,2.9s-2.9-1.3-2.9-2.9c0-1.6,1.3-2.9,2.9-2.9l0,0
					C145.3,148.6,146.6,149.9,146.6,151.5L146.6,151.5z"/>
				<path id="Trazado_17132" class="st7" d="M149.3,135.1c0,1.6-1.3,2.9-2.9,2.9c-1.6,0-2.9-1.3-2.9-2.9s1.3-2.9,2.9-2.9l0,0
					C147.9,132.2,149.3,133.5,149.3,135.1z"/>
				<path id="Trazado_17133" class="st7" d="M163.3,130.1c0,1.6-1.3,2.9-2.9,2.9s-2.9-1.3-2.9-2.9c0-1.6,1.3-2.9,2.9-2.9
					C162,127.2,163.3,128.5,163.3,130.1L163.3,130.1z"/>
				<path id="Trazado_17134" class="st7" d="M160.1,117.6c0,1.6-1.3,2.9-2.9,2.9c-1.6,0-2.9-1.3-2.9-2.9s1.3-2.9,2.9-2.9l0,0
					C158.8,114.7,160.1,116,160.1,117.6z"/>
				<path id="Trazado_17135" class="st7" d="M146.1,143.3c0,1.6-1.3,2.9-2.9,2.9s-2.9-1.3-2.9-2.9c0-1.6,1.3-2.9,2.9-2.9
					C144.8,140.4,146.1,141.7,146.1,143.3L146.1,143.3z"/>
				<path id="Trazado_17136" class="st7" d="M167.1,122.3c0,1.6-1.3,2.9-2.9,2.9s-2.9-1.3-2.9-2.9s1.3-2.9,2.9-2.9l0,0
					C165.8,119.3,167.1,120.6,167.1,122.3z"/>
			</g>
		</g>
		<circle id="Elipse_563" class="st4" cx="868.5" cy="1861.5" r="52.5"/>
		<g id="Grupo_9293" transform="translate(-76 25.709)">
			<path id="Trazado_16554" class="st0" d="M945.1,1884.5c-27.1,0.1-49-21.8-49.1-48.9c0-0.1,0-0.1,0-0.2c0-13,5.1-25.5,14.4-34.7
				c9.2-9.2,21.7-14.4,34.7-14.4s25.5,5.1,34.7,14.4c19.2,19.2,19.2,50.3,0,69.4l0,0C970.6,1879.3,958.1,1884.5,945.1,1884.5z
				 M945.1,1792.4c-23.7,0-43,19.2-43,43s19.2,43,43,43s43-19.2,43-43l0,0C988,1811.7,968.8,1792.4,945.1,1792.4z M940.3,1835.4
				c0,2.7,2.2,4.8,4.8,4.8c2.7,0,4.8-2.2,4.8-4.8c0-2.7-2.2-4.8-4.8-4.8l0,0C942.4,1830.6,940.3,1832.7,940.3,1835.4z M945.1,1796.3
				c-21.6,0-39.1,17.5-39.1,39.1s17.5,39.1,39.1,39.1s39.1-17.5,39.1-39.1l0,0C984.2,1813.8,966.7,1796.3,945.1,1796.3L945.1,1796.3
				z M945.1,1801.8c2.9,0,5.9,0.4,8.7,1.1l-2.4,8.9c-4-1.1-8.2-1.1-12.2-0.1l-2.2-8.9C939.6,1802.1,942.4,1801.8,945.1,1801.8
				L945.1,1801.8z M949.8,1826.6c-0.6-0.5-0.9-1.1-0.6-1.3l13.6-13.8c0.2-0.2,0.9-0.1,1.4,0.4s0.8,1,0.7,1.3l-10.8,16.1
				c-0.2,0.3-0.9,0.1-1.4-0.3L949.8,1826.6z M952.5,1835.4c0,4.1-3.3,7.4-7.4,7.4s-7.4-3.3-7.4-7.4s3.3-7.4,7.4-7.4l0,0
				C949.2,1827.9,952.5,1831.3,952.5,1835.4L952.5,1835.4L952.5,1835.4z M920.6,1835.4h-9.2c0-5.7,1.4-11.3,4.2-16.3l8,4.5
				C921.7,1827.2,920.6,1831.2,920.6,1835.4L920.6,1835.4z M925.8,1820.3l-7.2-5.7c3.5-4.5,8.1-8,13.3-10.2l3.6,8.4
				C931.7,1814.5,928.4,1817.1,925.8,1820.3L925.8,1820.3z M963.3,1819l3.2-4.8c0.8-1.1,0.3-2.7-1-3.9c-1.4-1.1-3-1.2-4-0.2l-4,4.1
				c-0.8-0.4-1.5-0.8-2.3-1.2l3.7-8.4c5.2,2.3,9.7,5.9,13.2,10.5l-7.3,5.5C964.2,1820.1,963.7,1819.6,963.3,1819L963.3,1819z
				 M969.5,1835.4c0-4-1-7.9-2.8-11.4l8.1-4.3c2.6,4.9,3.9,10.3,3.9,15.8L969.5,1835.4z"/>
			<text transform="matrix(1 0 0 1 932 1862.453)" class="st4 st8 st9">PH</text>
		</g>
	</g>
</g>
</svg>
