<?xml version="1.0" encoding="utf-8"?>
<!-- Generator: Adobe Illustrator 22.0.1, SVG Export Plug-In . SVG Version: 6.00 Build 0)  -->
<svg version="1.1" id="Capa_1" xmlns="http://www.w3.org/2000/svg" xmlns:xlink="http://www.w3.org/1999/xlink" x="0px" y="0px"
	 viewBox="0 0 842 174" style="enable-background:new 0 0 842 174;" xml:space="preserve">
<style type="text/css">
	.st0{fill:#FDAC29;}
	.st1{fill:#FFFFFF;}
</style>
<g id="Grupo_9334" transform="translate(-390 -725)">
	<path id="Rectángulo_2049" class="st0" d="M395,725h634c2.8,0,5,2.2,5,5v34c0,2.8-2.2,5-5,5H395c-2.8,0-5-2.2-5-5v-34
		C390,727.2,392.2,725,395,725z"/>
	<path id="Trazado_17173" class="st1" d="M436.5,750c0.1,1.5-0.6,2.9-1.7,3.8c-1.4,1-3.1,1.5-4.8,1.4c-1.7,0-3.5-0.3-5.1-1.1v-3.5
		c1,0.5,2,0.8,3.1,1.1c0.7,0.2,1.5,0.3,2.3,0.3c0.7,0,1.3-0.1,1.9-0.5c0.4-0.3,0.7-0.9,0.7-1.4c0-0.3-0.1-0.7-0.3-0.9
		c-0.2-0.3-0.5-0.6-0.9-0.8c-0.7-0.4-1.5-0.8-2.3-1.2c-0.9-0.4-1.7-0.9-2.5-1.5c-0.5-0.5-1-1-1.3-1.6c-0.3-0.7-0.5-1.4-0.5-2.2
		c-0.1-1.4,0.5-2.8,1.6-3.7c1.3-1,2.8-1.4,4.4-1.4c0.9,0,1.8,0.1,2.7,0.3c0.9,0.2,1.8,0.6,2.6,0.9l-1.2,2.9
		c-0.8-0.3-1.6-0.6-2.4-0.8c-0.6-0.2-1.2-0.2-1.8-0.2c-0.6,0-1.2,0.1-1.6,0.5c-0.4,0.3-0.6,0.8-0.6,1.3c0,0.3,0.1,0.6,0.2,0.9
		c0.2,0.3,0.4,0.5,0.7,0.7c0.8,0.5,1.6,0.9,2.4,1.3c1.3,0.5,2.5,1.4,3.4,2.4C436.2,747.9,436.5,749,436.5,750z M442.4,748.2
		c-0.1,1.1,0.2,2.1,0.7,3.1c0.5,0.7,1.3,1.1,2.2,1c0.8,0.1,1.7-0.3,2.1-1c0.5-0.9,0.7-2,0.7-3.1c0.1-1.1-0.2-2.1-0.7-3
		c-0.5-0.7-1.3-1.1-2.2-1c-0.8-0.1-1.7,0.3-2.1,1C442.5,746,442.3,747.1,442.4,748.2z M451.8,748.2c0.1,1.9-0.5,3.8-1.8,5.2
		c-1.3,1.3-3.1,2-4.9,1.9c-1.2,0-2.4-0.3-3.5-0.9c-1-0.6-1.8-1.4-2.3-2.5c-0.6-1.2-0.8-2.5-0.8-3.8c-0.1-1.9,0.5-3.8,1.7-5.2
		c1.3-1.3,3.1-2,4.9-1.9c1.2,0,2.4,0.3,3.5,0.9c1,0.6,1.8,1.4,2.3,2.5C451.6,745.6,451.8,746.9,451.8,748.2L451.8,748.2z M458.6,755
		h-3.7v-19h3.7L458.6,755z M472.2,755l-0.5-1.7h-0.2c-0.4,0.6-1,1.2-1.7,1.5c-0.8,0.4-1.6,0.5-2.5,0.5c-1.3,0.1-2.7-0.4-3.6-1.3
		c-0.9-1-1.3-2.4-1.2-3.7v-8.9h3.7v8c-0.1,0.8,0.1,1.5,0.5,2.2c0.4,0.5,1,0.8,1.7,0.7c0.9,0.1,1.7-0.3,2.3-1
		c0.5-1.1,0.8-2.3,0.7-3.5v-6.4h3.7V755H472.2z M484.5,755.2c-4.2,0-6.4-2.3-6.4-7c-0.1-1.9,0.5-3.8,1.7-5.3c1.3-1.3,3.1-2,5-1.8
		c1.5,0,2.9,0.3,4.2,0.9l-1.1,2.9c-0.6-0.2-1.1-0.4-1.6-0.6c-0.5-0.1-1-0.2-1.5-0.2c-1.9,0-2.9,1.4-2.9,4.1c0,2.7,1,4,2.9,4
		c0.7,0,1.3-0.1,2-0.3c0.7-0.2,1.3-0.5,1.8-0.9v3.2c-0.6,0.4-1.2,0.6-1.8,0.8C486,755.2,485.3,755.3,484.5,755.2L484.5,755.2z
		 M491.6,737.8c0-1.2,0.7-1.8,2-1.8s2,0.6,2,1.8c0,0.5-0.2,1-0.5,1.3c-0.4,0.4-1,0.5-1.5,0.5C492.3,739.7,491.6,739,491.6,737.8
		L491.6,737.8z M495.5,755h-3.7v-13.6h3.7V755z M502.4,748.2c-0.1,1.1,0.2,2.1,0.7,3.1c0.5,0.7,1.3,1.1,2.2,1c0.8,0.1,1.7-0.3,2.1-1
		c0.5-0.9,0.7-2,0.7-3.1c0.1-1.1-0.2-2.1-0.7-3c-0.5-0.7-1.3-1.1-2.2-1c-0.8-0.1-1.7,0.3-2.1,1C502.5,746,502.3,747.1,502.4,748.2
		L502.4,748.2z M511.8,748.2c0.1,1.9-0.5,3.8-1.8,5.2c-1.3,1.3-3.1,2-4.9,1.9c-1.2,0-2.4-0.3-3.5-0.9c-1-0.6-1.8-1.4-2.3-2.5
		c-0.6-1.2-0.8-2.5-0.8-3.8c-0.1-1.9,0.5-3.8,1.7-5.2c1.3-1.3,3.1-2,4.9-1.9c1.2,0,2.4,0.3,3.5,0.9c1,0.6,1.8,1.4,2.3,2.5
		C511.6,745.6,511.9,746.9,511.8,748.2L511.8,748.2z M527.5,755h-3.7v-8c0.1-0.8-0.1-1.5-0.5-2.2c-0.4-0.5-1-0.8-1.7-0.7
		c-0.9-0.1-1.7,0.3-2.3,1c-0.5,1.1-0.8,2.3-0.7,3.5v6.4h-3.7v-13.6h2.8l0.5,1.7h0.2c0.4-0.7,1-1.2,1.7-1.5c0.8-0.3,1.6-0.5,2.5-0.5
		c1.3-0.1,2.6,0.4,3.6,1.3c0.9,1,1.3,2.4,1.2,3.7V755z M537,743.7c-0.7,0-1.4,0.2-1.9,0.8c-0.5,0.6-0.8,1.4-0.8,2.1h5.2
		c0-0.8-0.2-1.5-0.7-2.1C538.4,744,537.7,743.7,537,743.7L537,743.7z M537.5,755.2c-1.9,0.1-3.7-0.5-5.2-1.8c-1.3-1.4-2-3.3-1.9-5.2
		c-0.1-1.9,0.5-3.8,1.7-5.3c1.2-1.3,3-2,4.7-1.9c1.7-0.1,3.3,0.5,4.5,1.6c1.1,1.2,1.7,2.9,1.6,4.6v1.8h-8.8c0,0.9,0.3,1.8,0.9,2.5
		c0.7,0.6,1.6,0.9,2.5,0.9c0.8,0,1.6-0.1,2.3-0.3c0.8-0.2,1.6-0.5,2.3-0.8v2.9c-0.7,0.3-1.4,0.6-2.1,0.7
		C539.3,755.2,538.4,755.3,537.5,755.2L537.5,755.2z M555.6,750.9c0.1,1.2-0.5,2.4-1.5,3.2c-1.3,0.8-2.8,1.2-4.4,1.1
		c-0.9,0-1.7-0.1-2.5-0.2c-0.7-0.1-1.3-0.3-2-0.6v-3.1c0.8,0.3,1.5,0.6,2.3,0.8c0.7,0.2,1.5,0.3,2.3,0.3c1.4,0,2-0.4,2-1.2
		c0-0.3-0.1-0.5-0.3-0.7c-0.3-0.3-0.6-0.5-0.9-0.6c-0.4-0.2-1-0.5-1.8-0.8c-0.8-0.3-1.6-0.7-2.3-1.2c-0.5-0.3-0.8-0.8-1.1-1.3
		c-0.2-0.6-0.4-1.2-0.3-1.8c0-1.1,0.5-2.2,1.4-2.8c1.2-0.7,2.6-1.1,4-1c1.7,0,3.3,0.4,4.8,1.1l-1.1,2.7c-0.7-0.3-1.3-0.5-1.9-0.7
		c-0.6-0.2-1.2-0.3-1.8-0.3c-1.1,0-1.6,0.3-1.6,0.9c0,0.4,0.2,0.7,0.5,0.9c0.7,0.4,1.5,0.8,2.3,1.1c0.8,0.3,1.6,0.7,2.3,1.2
		c0.5,0.3,0.8,0.8,1.1,1.3C555.5,749.7,555.6,750.3,555.6,750.9L555.6,750.9z M595,755l-0.5-1.7h-0.2c-0.4,0.6-1,1.2-1.7,1.5
		c-0.8,0.4-1.6,0.5-2.5,0.5c-1.3,0.1-2.7-0.4-3.6-1.3c-0.9-1-1.3-2.4-1.2-3.7v-8.9h3.7v8c-0.1,0.8,0.1,1.5,0.5,2.2
		c0.4,0.5,1,0.8,1.7,0.7c0.9,0.1,1.7-0.3,2.3-1c0.5-1.1,0.8-2.3,0.7-3.5v-6.4h3.7V755H595z M607.5,752.3c0.8,0,1.6-0.2,2.3-0.4v2.8
		c-1.1,0.4-2.2,0.7-3.4,0.6c-1.2,0.1-2.4-0.3-3.3-1.1c-0.7-1-1.1-2.2-1-3.4v-6.6h-1.8v-1.6l2.1-1.2l1.1-2.9h2.4v2.9h3.8v2.8h-3.8
		v6.6c0,0.4,0.1,0.9,0.4,1.2C606.7,752.2,607.1,752.3,607.5,752.3z M620.2,741.1c0.4,0,0.8,0,1.3,0.1l-0.3,3.5
		c-0.4-0.1-0.7-0.1-1.1-0.1c-1-0.1-2,0.3-2.8,0.9c-0.7,0.7-1.1,1.6-1,2.6v6.9h-3.7v-13.6h2.8l0.6,2.3h0.2c0.4-0.7,1-1.4,1.7-1.8
		C618.6,741.3,619.4,741.1,620.2,741.1z M623.8,737.8c0-1.2,0.7-1.8,2-1.8c1.4,0,2,0.6,2,1.8c0,0.5-0.2,1-0.5,1.3
		c-0.4,0.4-1,0.5-1.5,0.5C624.5,739.7,623.8,739,623.8,737.8L623.8,737.8z M627.7,755H624v-13.6h3.7V755z M637.4,752.3
		c0.8,0,1.6-0.2,2.3-0.4v2.8c-1.1,0.4-2.2,0.7-3.4,0.6c-1.2,0.1-2.4-0.3-3.2-1.1c-0.7-1-1.1-2.2-1-3.4v-6.6h-1.8v-1.6l2.1-1.2
		l1.1-2.9h2.4v2.9h3.8v2.8h-3.8v6.6c0,0.4,0.1,0.9,0.4,1.2C636.5,752.2,636.9,752.3,637.4,752.3L637.4,752.3z M642.3,737.8
		c0-1.2,0.7-1.8,2-1.8c1.4,0,2,0.6,2,1.8c0,0.5-0.2,1-0.5,1.3c-0.4,0.4-1,0.5-1.5,0.5C643,739.7,642.3,739,642.3,737.8z M646.2,755
		h-3.7v-13.6h3.7V755z M653.3,755l-5.2-13.6h3.9l2.6,7.8c0.3,0.9,0.5,1.9,0.5,2.8h0.1c0.1-1,0.3-1.9,0.5-2.8l2.6-7.8h3.9l-5.2,13.6
		H653.3z M673,755l-0.7-1.9h-0.1c-0.5,0.7-1.2,1.3-1.9,1.6c-0.8,0.3-1.7,0.5-2.6,0.5c-1.1,0.1-2.3-0.3-3.1-1.1
		c-0.8-0.9-1.2-2-1.1-3.2c-0.1-1.3,0.5-2.5,1.5-3.2c1.4-0.8,3-1.2,4.6-1.1l2.4-0.1v-0.6c0.1-1-0.6-1.9-1.6-2.1c-0.2,0-0.4,0-0.5,0
		c-1.3,0.1-2.6,0.4-3.8,1l-1.2-2.5c1.6-0.8,3.4-1.3,5.2-1.2c1.5-0.1,3,0.3,4.2,1.2c1,0.9,1.6,2.3,1.5,3.6v9.1H673z M671.9,748.7
		l-1.4,0c-0.8,0-1.7,0.2-2.4,0.6c-0.5,0.4-0.8,1-0.8,1.6c0,1,0.6,1.6,1.8,1.6c0.8,0,1.5-0.2,2.1-0.7c0.5-0.5,0.8-1.2,0.8-2
		L671.9,748.7z M688.9,750.9c0.1,1.2-0.5,2.4-1.5,3.2c-1.3,0.8-2.8,1.2-4.4,1.1c-0.9,0-1.7-0.1-2.5-0.2c-0.7-0.1-1.3-0.3-2-0.6v-3.1
		c0.8,0.3,1.5,0.6,2.3,0.8c0.7,0.2,1.5,0.3,2.3,0.3c1.4,0,2-0.4,2-1.2c0-0.3-0.1-0.5-0.3-0.7c-0.3-0.3-0.6-0.5-0.9-0.6
		c-0.4-0.2-1-0.5-1.8-0.8c-0.8-0.3-1.6-0.7-2.3-1.2c-0.5-0.3-0.8-0.8-1.1-1.3c-0.2-0.6-0.4-1.2-0.3-1.8c0-1.1,0.5-2.2,1.4-2.8
		c1.2-0.7,2.6-1.1,4-1c1.7,0,3.3,0.4,4.8,1.1l-1.1,2.7c-0.7-0.3-1.3-0.5-1.9-0.7c-0.6-0.2-1.2-0.3-1.8-0.3c-1.1,0-1.6,0.3-1.6,0.9
		c0,0.4,0.2,0.7,0.5,0.9c0.7,0.4,1.5,0.8,2.3,1.1c0.8,0.3,1.6,0.7,2.3,1.2c0.5,0.3,0.8,0.8,1.1,1.3
		C688.8,749.7,689,750.3,688.9,750.9L688.9,750.9z M707,755l-0.7-1.9h-0.1c-0.5,0.7-1.2,1.3-1.9,1.6c-0.8,0.3-1.7,0.5-2.6,0.5
		c-1.1,0.1-2.3-0.3-3.1-1.1c-0.8-0.9-1.2-2-1.1-3.2c-0.1-1.3,0.5-2.5,1.5-3.2c1.4-0.8,3-1.2,4.6-1.1l2.4-0.1v-0.6
		c0.1-1-0.6-1.9-1.6-2.1c-0.2,0-0.4,0-0.5,0c-1.3,0.1-2.6,0.4-3.8,1l-1.2-2.5c1.6-0.8,3.4-1.3,5.2-1.2c1.5-0.1,3,0.3,4.2,1.2
		c1,0.9,1.6,2.3,1.5,3.6v9.1H707z M705.9,748.7l-1.4,0c-0.8,0-1.7,0.2-2.4,0.6c-0.5,0.4-0.8,1-0.8,1.6c0,1,0.6,1.6,1.8,1.6
		c0.8,0,1.5-0.2,2.1-0.7c0.5-0.5,0.8-1.2,0.8-2V748.7z M744.3,755l-0.7-1.9h-0.1c-0.5,0.7-1.2,1.3-1.9,1.6c-0.8,0.3-1.7,0.5-2.6,0.5
		c-1.1,0.1-2.3-0.3-3.1-1.1c-0.8-0.9-1.2-2-1.1-3.2c-0.1-1.3,0.5-2.5,1.5-3.2c1.4-0.8,3-1.2,4.6-1.1l2.4-0.1v-0.6
		c0.1-1-0.6-1.9-1.6-2.1c-0.2,0-0.4,0-0.5,0c-1.3,0.1-2.6,0.4-3.8,1l-1.2-2.5c1.6-0.8,3.4-1.3,5.2-1.2c1.5-0.1,3,0.3,4.2,1.2
		c1,0.9,1.6,2.3,1.5,3.6v9.1H744.3z M743.2,748.7l-1.4,0c-0.8,0-1.7,0.2-2.4,0.6c-0.5,0.4-0.8,1-0.8,1.6c0,1,0.6,1.6,1.8,1.6
		c0.8,0,1.5-0.2,2.1-0.7c0.5-0.5,0.8-1.2,0.8-2V748.7z M758.3,741.1c0.4,0,0.8,0,1.3,0.1l-0.3,3.5c-0.4-0.1-0.7-0.1-1.1-0.1
		c-1-0.1-2,0.3-2.8,0.9c-0.7,0.7-1.1,1.6-1,2.6v6.9h-3.7v-13.6h2.8l0.5,2.3h0.2c0.4-0.7,1-1.4,1.7-1.8
		C756.7,741.3,757.5,741.1,758.3,741.1z M767.8,752.3c0.8,0,1.6-0.2,2.3-0.4v2.8c-1.1,0.4-2.2,0.7-3.4,0.6c-1.2,0.1-2.4-0.3-3.3-1.1
		c-0.7-1-1.1-2.2-1-3.4v-6.6h-1.8v-1.6l2.1-1.2l1.1-2.9h2.4v2.9h3.8v2.8h-3.8v6.6c0,0.4,0.1,0.9,0.4,1.2
		C767,752.2,767.4,752.3,767.8,752.3z M772.8,737.8c0-1.2,0.7-1.8,2-1.8s2,0.6,2,1.8c0,0.5-0.2,1-0.5,1.3c-0.4,0.4-1,0.5-1.5,0.5
		C773.4,739.7,772.8,739,772.8,737.8z M776.7,755h-3.7v-13.6h3.7L776.7,755z M788.2,741.1c0.4,0,0.8,0,1.3,0.1l-0.3,3.5
		c-0.4-0.1-0.7-0.1-1.1-0.1c-1-0.1-2,0.3-2.8,0.9c-0.7,0.7-1.1,1.6-1,2.6v6.9h-3.7v-13.6h2.8l0.5,2.3h0.2c0.4-0.7,1-1.4,1.7-1.8
		C786.5,741.3,787.3,741.1,788.2,741.1z M802.7,755.2c-1.5,0.1-2.9-0.6-3.8-1.9c-1-1.5-1.5-3.3-1.4-5.2c-0.1-1.8,0.4-3.7,1.4-5.2
		c0.9-1.2,2.3-1.9,3.8-1.9c1.6-0.1,3.1,0.7,3.9,2h0.1c-0.2-0.9-0.3-1.8-0.3-2.7V736h3.7v19h-2.9l-0.7-1.8h-0.2
		C805.8,754.6,804.3,755.3,802.7,755.2z M804,752.3c0.8,0.1,1.6-0.2,2.1-0.8c0.5-0.8,0.8-1.8,0.7-2.8v-0.4c0.1-1.1-0.1-2.2-0.7-3.1
		c-0.5-0.7-1.4-1-2.2-1c-0.8,0-1.5,0.4-1.9,1.1c-0.5,0.9-0.8,2-0.7,3.1c-0.1,1.1,0.2,2.1,0.7,3C802.5,751.9,803.2,752.3,804,752.3z
		 M819.9,743.7c-0.7,0-1.4,0.2-1.9,0.8c-0.5,0.6-0.8,1.4-0.8,2.1h5.2c0-0.8-0.2-1.5-0.7-2.1C821.3,744,820.6,743.7,819.9,743.7z
		 M820.4,755.2c-1.9,0.1-3.7-0.5-5.2-1.8c-1.3-1.4-2-3.3-1.8-5.2c-0.1-1.9,0.5-3.8,1.7-5.3c1.2-1.3,3-2,4.7-1.9
		c1.7-0.1,3.3,0.5,4.5,1.6c1.1,1.2,1.7,2.9,1.6,4.6v1.8h-8.8c0,0.9,0.3,1.8,0.9,2.5c0.7,0.6,1.6,0.9,2.5,0.9c0.8,0,1.6-0.1,2.3-0.3
		c0.8-0.2,1.6-0.5,2.3-0.8v2.9c-0.7,0.3-1.4,0.6-2.1,0.7C822.2,755.2,821.3,755.3,820.4,755.2z M857.9,755l-0.7-1.9h-0.1
		c-0.5,0.7-1.2,1.3-1.9,1.6c-0.8,0.3-1.7,0.5-2.6,0.5c-1.1,0.1-2.3-0.3-3.1-1.1c-0.8-0.9-1.2-2-1.1-3.2c-0.1-1.3,0.5-2.5,1.5-3.2
		c1.4-0.8,3-1.2,4.6-1.1l2.4-0.1v-0.6c0.1-1-0.6-1.9-1.6-2.1c-0.2,0-0.4,0-0.5,0c-1.3,0.1-2.6,0.4-3.8,1l-1.2-2.5
		c1.6-0.8,3.4-1.3,5.2-1.2c1.5-0.1,3,0.3,4.2,1.2c1,0.9,1.6,2.3,1.5,3.6v9.1H857.9z M856.8,748.7l-1.4,0c-0.8,0-1.7,0.2-2.4,0.6
		c-0.5,0.4-0.8,1-0.8,1.6c0,1,0.6,1.6,1.8,1.6c0.8,0,1.5-0.2,2.1-0.7c0.5-0.5,0.8-1.2,0.8-2L856.8,748.7z M868.1,755h-3.7v-19h3.7
		V755z M877.6,743.7c-0.7,0-1.4,0.2-1.9,0.8c-0.5,0.6-0.8,1.4-0.8,2.1h5.2c0-0.8-0.2-1.5-0.7-2.1C879,744,878.3,743.7,877.6,743.7z
		 M878.2,755.2c-1.9,0.1-3.7-0.5-5.2-1.8c-1.3-1.4-2-3.3-1.9-5.2c-0.1-1.9,0.5-3.8,1.7-5.3c1.2-1.3,3-2,4.7-1.9
		c1.7-0.1,3.3,0.5,4.5,1.6c1.1,1.2,1.7,2.9,1.6,4.6v1.8h-8.8c0,0.9,0.3,1.8,0.9,2.5c0.7,0.6,1.6,0.9,2.5,0.9c0.8,0,1.6-0.1,2.3-0.3
		c0.8-0.2,1.6-0.5,2.3-0.8v2.9c-0.7,0.3-1.4,0.6-2.1,0.7C880,755.2,879.1,755.3,878.2,755.2L878.2,755.2z M896.3,750.9
		c0.1,1.2-0.5,2.4-1.5,3.2c-1.3,0.8-2.8,1.2-4.4,1.1c-0.9,0-1.7-0.1-2.5-0.2c-0.7-0.1-1.3-0.3-2-0.6v-3.1c0.8,0.3,1.5,0.6,2.3,0.8
		c0.7,0.2,1.5,0.3,2.3,0.3c1.4,0,2-0.4,2-1.2c0-0.3-0.1-0.5-0.3-0.7c-0.3-0.3-0.6-0.5-0.9-0.6c-0.4-0.2-1-0.5-1.8-0.8
		c-0.8-0.3-1.6-0.7-2.3-1.2c-0.5-0.3-0.8-0.8-1.1-1.3c-0.2-0.6-0.4-1.2-0.3-1.8c0-1.1,0.5-2.2,1.4-2.8c1.2-0.7,2.6-1.1,4-1
		c1.7,0,3.3,0.4,4.8,1.1l-1.1,2.7c-0.7-0.3-1.3-0.5-1.9-0.7c-0.6-0.2-1.2-0.3-1.8-0.3c-1.1,0-1.6,0.3-1.6,0.9c0,0.4,0.2,0.7,0.5,0.9
		c0.7,0.4,1.5,0.8,2.3,1.1c0.8,0.3,1.6,0.7,2.3,1.2c0.5,0.3,0.8,0.8,1.1,1.3C896.2,749.7,896.3,750.3,896.3,750.9L896.3,750.9z
		 M919.3,737.8c0-1.2,0.7-1.8,2-1.8c1.4,0,2,0.6,2,1.8c0,0.5-0.2,1-0.5,1.3c-0.4,0.4-1,0.5-1.5,0.5C920,739.7,919.3,739,919.3,737.8
		L919.3,737.8z M923.2,755h-3.7v-13.6h3.7V755z M939.3,755h-3.7v-8c0.1-0.8-0.1-1.5-0.5-2.2c-0.4-0.5-0.9-0.8-1.6-0.7
		c-0.8-0.1-1.6,0.3-2.1,1.1c-0.5,1.1-0.7,2.3-0.6,3.5v6.4h-3.7v-13.6h2.8l0.5,1.7h0.2c0.4-0.6,0.9-1.1,1.6-1.5
		c0.7-0.4,1.6-0.5,2.4-0.5c2,0,3.4,0.7,4.2,2h0.3c0.4-0.6,0.9-1.2,1.6-1.5c0.8-0.4,1.6-0.5,2.4-0.5c1.3-0.1,2.5,0.3,3.5,1.2
		c0.9,1.1,1.3,2.4,1.2,3.8v8.9h-3.7v-8c0.1-0.8-0.1-1.5-0.5-2.2c-0.4-0.5-0.9-0.8-1.6-0.7c-0.8-0.1-1.6,0.3-2,1
		c-0.5,0.9-0.8,2-0.7,3.1L939.3,755z M959.1,755.2c-1.5,0.1-2.9-0.6-3.8-1.7h-0.2c0.1,1.1,0.2,1.8,0.2,2v5.5h-3.7v-19.7h3l0.5,1.8
		h0.2c0.8-1.3,2.3-2.1,3.9-2c1.5-0.1,2.9,0.6,3.8,1.9c1,1.5,1.5,3.4,1.4,5.2c0,1.3-0.2,2.6-0.6,3.8c-0.4,1-1,1.8-1.8,2.4
		C961.1,755,960.1,755.3,959.1,755.2L959.1,755.2z M958,744.1c-0.8-0.1-1.5,0.3-2,0.8c-0.5,0.8-0.7,1.8-0.7,2.8v0.4
		c-0.1,1.1,0.1,2.2,0.7,3.1c0.5,0.7,1.3,1,2.1,1c1.7,0,2.5-1.4,2.5-4.1c0.1-1-0.1-2.1-0.6-3C959.6,744.4,958.8,744,958,744.1
		L958,744.1z M971.2,755h-3.7v-19h3.7L971.2,755z M980.7,743.7c-0.7,0-1.4,0.2-1.9,0.8c-0.5,0.6-0.8,1.4-0.8,2.1h5.2
		c0-0.8-0.2-1.5-0.7-2.1C982.1,744,981.4,743.7,980.7,743.7L980.7,743.7z M981.3,755.2c-1.9,0.1-3.7-0.5-5.2-1.8
		c-1.3-1.4-2-3.3-1.9-5.2c-0.1-1.9,0.5-3.8,1.7-5.3c1.2-1.3,3-2,4.7-1.9c1.7-0.1,3.3,0.5,4.5,1.6c1.1,1.2,1.7,2.9,1.6,4.6v1.8H978
		c0,0.9,0.3,1.8,0.9,2.5c0.7,0.6,1.6,0.9,2.5,0.9c0.8,0,1.6-0.1,2.3-0.3c0.8-0.2,1.6-0.5,2.3-0.8v2.9c-0.7,0.3-1.4,0.6-2.1,0.7
		C983.1,755.2,982.2,755.3,981.3,755.2L981.3,755.2z M999.4,750.9c0.1,1.2-0.5,2.4-1.5,3.2c-1.3,0.8-2.8,1.2-4.4,1.1
		c-0.9,0-1.7-0.1-2.5-0.2c-0.7-0.1-1.3-0.3-2-0.6v-3.1c0.8,0.3,1.5,0.6,2.3,0.8c0.7,0.2,1.5,0.3,2.3,0.3c1.4,0,2-0.4,2-1.2
		c0-0.3-0.1-0.5-0.3-0.7c-0.3-0.3-0.6-0.5-0.9-0.6c-0.4-0.2-1-0.5-1.8-0.8c-0.8-0.3-1.6-0.7-2.3-1.2c-0.5-0.3-0.8-0.8-1.1-1.3
		c-0.2-0.6-0.4-1.2-0.3-1.8c0-1.1,0.5-2.2,1.4-2.8c1.2-0.7,2.6-1.1,4-1c1.7,0,3.3,0.4,4.8,1.1l-1.1,2.7c-0.7-0.3-1.3-0.5-1.9-0.7
		c-0.6-0.2-1.2-0.3-1.8-0.3c-1.1,0-1.6,0.3-1.6,0.9c0,0.4,0.2,0.7,0.5,0.9c0.7,0.4,1.5,0.8,2.3,1.1c0.8,0.3,1.6,0.7,2.3,1.2
		c0.5,0.3,0.8,0.8,1.1,1.3C999.3,749.7,999.4,750.3,999.4,750.9L999.4,750.9z M582.5,755h-3.7v-8c0.1-0.8-0.1-1.5-0.5-2.2
		c-0.4-0.5-1-0.8-1.7-0.7c-0.9-0.1-1.7,0.3-2.3,1c-0.5,1.1-0.8,2.3-0.7,3.5v6.4h-3.7v-13.6h2.8l0.5,1.7h0.2c0.4-0.7,1-1.2,1.7-1.5
		c0.8-0.3,1.6-0.5,2.5-0.5c1.3-0.1,2.6,0.4,3.6,1.3c0.9,1,1.3,2.4,1.2,3.7V755z M729.1,755.2c-1.5,0.1-2.9-0.6-3.8-1.7h-0.2
		c0.1,1.1,0.2,1.8,0.2,2v5.5h-3.7v-19.7h3l0.5,1.8h0.2c0.8-1.3,2.3-2.1,3.9-2c1.5-0.1,2.9,0.6,3.8,1.9c1,1.5,1.5,3.4,1.4,5.2
		c0,1.3-0.2,2.6-0.6,3.8c-0.4,1-1,1.8-1.8,2.4C731.1,755,730.1,755.3,729.1,755.2L729.1,755.2z M728,744.1c-0.8-0.1-1.5,0.3-2,0.8
		c-0.5,0.8-0.7,1.8-0.7,2.8v0.4c-0.1,1.1,0.1,2.2,0.7,3.1c0.5,0.7,1.3,1,2.1,1c1.7,0,2.5-1.4,2.5-4.1c0.1-1-0.1-2.1-0.6-3
		C729.6,744.4,728.8,744,728,744.1L728,744.1z M847.3,750.9c0.1,1.2-0.5,2.4-1.5,3.2c-1.3,0.8-2.8,1.2-4.4,1.1
		c-0.9,0-1.7-0.1-2.5-0.2c-0.7-0.1-1.3-0.3-2-0.6v-3.1c0.8,0.3,1.5,0.6,2.3,0.8c0.7,0.2,1.5,0.3,2.3,0.3c1.4,0,2-0.4,2-1.2
		c0-0.3-0.1-0.5-0.3-0.7c-0.3-0.3-0.6-0.5-0.9-0.6c-0.4-0.2-1-0.5-1.8-0.8c-0.8-0.3-1.6-0.7-2.3-1.2c-0.5-0.3-0.8-0.8-1.1-1.3
		c-0.2-0.6-0.4-1.2-0.3-1.8c0-1.1,0.5-2.2,1.4-2.8c1.2-0.7,2.6-1.1,4-1c1.7,0,3.3,0.4,4.8,1.1l-1.1,2.7c-0.7-0.3-1.3-0.5-1.9-0.7
		c-0.6-0.2-1.2-0.3-1.8-0.3c-1.1,0-1.6,0.3-1.6,0.9c0,0.4,0.2,0.7,0.5,0.9c0.7,0.4,1.5,0.8,2.3,1.1c0.8,0.3,1.6,0.7,2.3,1.2
		c0.5,0.3,0.8,0.8,1.1,1.3C847.2,749.7,847.3,750.3,847.3,750.9L847.3,750.9z M917.3,750.9c0.1,1.2-0.5,2.4-1.5,3.2
		c-1.3,0.8-2.8,1.2-4.4,1.1c-0.9,0-1.7-0.1-2.5-0.2c-0.7-0.1-1.3-0.3-2-0.6v-3.1c0.8,0.3,1.5,0.6,2.3,0.8c0.7,0.2,1.5,0.3,2.3,0.3
		c1.4,0,2-0.4,2-1.2c0-0.3-0.1-0.5-0.3-0.7c-0.3-0.3-0.6-0.5-0.9-0.6c-0.4-0.2-1-0.5-1.8-0.8c-0.8-0.3-1.6-0.7-2.3-1.2
		c-0.5-0.3-0.8-0.8-1.1-1.3c-0.2-0.6-0.4-1.2-0.3-1.8c0-1.1,0.5-2.2,1.4-2.8c1.2-0.7,2.6-1.1,4-1c1.7,0,3.3,0.4,4.8,1.1l-1.1,2.7
		c-0.7-0.3-1.3-0.5-1.9-0.7c-0.6-0.2-1.2-0.3-1.8-0.3c-1.1,0-1.6,0.3-1.6,0.9c0,0.4,0.2,0.7,0.5,0.9c0.7,0.4,1.5,0.8,2.3,1.1
		c0.8,0.3,1.6,0.7,2.3,1.2c0.5,0.3,0.8,0.8,1.1,1.3C917.2,749.7,917.3,750.3,917.3,750.9L917.3,750.9z"/>
	<path id="Rectángulo_2078" class="st0" d="M395,790h764c2.8,0,5,2.2,5,5v34c0,2.8-2.2,5-5,5H395c-2.8,0-5-2.2-5-5v-34
		C390,792.2,392.2,790,395,790z"/>
	<path id="Trazado_17174" class="st1" d="M436.7,815c0.1,1.5-0.6,2.9-1.7,3.8c-1.4,1-3.1,1.5-4.8,1.4c-1.7,0-3.5-0.3-5.1-1.1v-3.5
		c1,0.5,2,0.8,3.1,1.1c0.7,0.2,1.5,0.3,2.3,0.3c0.7,0,1.3-0.1,1.9-0.5c0.4-0.3,0.7-0.9,0.7-1.4c0-0.3-0.1-0.7-0.3-0.9
		c-0.2-0.3-0.5-0.6-0.9-0.8c-0.7-0.4-1.5-0.8-2.3-1.2c-0.9-0.4-1.7-0.9-2.5-1.5c-0.5-0.5-1-1-1.3-1.6c-0.3-0.7-0.5-1.4-0.5-2.2
		c-0.1-1.4,0.5-2.8,1.6-3.7c1.3-1,2.8-1.4,4.4-1.4c0.9,0,1.8,0.1,2.7,0.3c0.9,0.2,1.8,0.6,2.6,0.9l-1.2,2.9
		c-0.8-0.3-1.6-0.6-2.4-0.8c-0.6-0.2-1.2-0.2-1.8-0.2c-0.6,0-1.2,0.1-1.6,0.5c-0.4,0.3-0.6,0.8-0.6,1.3c0,0.3,0.1,0.6,0.2,0.9
		c0.2,0.3,0.4,0.5,0.7,0.7c0.8,0.5,1.6,0.9,2.4,1.3c1.3,0.5,2.5,1.4,3.4,2.4C436.4,812.9,436.7,814,436.7,815z M442.6,813.2
		c-0.1,1.1,0.2,2.1,0.7,3.1c0.5,0.7,1.3,1.1,2.2,1c0.8,0.1,1.7-0.3,2.1-1c0.5-0.9,0.7-2,0.7-3.1c0.1-1.1-0.2-2.1-0.7-3
		c-0.5-0.7-1.3-1.1-2.2-1c-0.8-0.1-1.7,0.3-2.1,1C442.8,811,442.5,812.1,442.6,813.2L442.6,813.2z M452.1,813.2
		c0.1,1.9-0.5,3.8-1.8,5.2c-1.3,1.3-3.1,2-4.9,1.9c-1.2,0-2.4-0.3-3.5-0.9c-1-0.6-1.8-1.4-2.3-2.5c-0.6-1.2-0.8-2.5-0.8-3.8
		c-0.1-1.9,0.5-3.8,1.7-5.2c1.3-1.3,3.1-2,4.9-1.9c1.2,0,2.4,0.3,3.5,0.9c1,0.6,1.8,1.4,2.3,2.5
		C451.8,810.6,452.1,811.9,452.1,813.2L452.1,813.2z M458.9,820h-3.7v-19h3.7V820z M472.4,820l-0.5-1.7h-0.2c-0.4,0.6-1,1.2-1.7,1.5
		c-0.8,0.4-1.6,0.5-2.5,0.5c-1.3,0.1-2.7-0.4-3.6-1.3c-0.9-1-1.3-2.4-1.2-3.7v-8.9h3.7v8c-0.1,0.8,0.1,1.5,0.5,2.2
		c0.4,0.5,1,0.8,1.7,0.7c0.9,0.1,1.7-0.3,2.3-1c0.5-1.1,0.8-2.3,0.7-3.5v-6.4h3.7V820H472.4z M484.7,820.2c-4.2,0-6.4-2.3-6.4-7
		c-0.1-1.9,0.5-3.8,1.7-5.3c1.3-1.3,3.1-2,5-1.8c1.5,0,2.9,0.3,4.2,0.9l-1.1,2.9c-0.6-0.2-1.1-0.4-1.6-0.6c-0.5-0.1-1-0.2-1.5-0.2
		c-1.9,0-2.9,1.4-2.9,4.1c0,2.7,1,4,2.9,4c0.7,0,1.3-0.1,2-0.3c0.7-0.2,1.3-0.5,1.8-0.9v3.2c-0.6,0.4-1.2,0.6-1.8,0.8
		C486.3,820.2,485.5,820.3,484.7,820.2L484.7,820.2z M491.9,802.8c0-1.2,0.7-1.8,2-1.8s2,0.6,2,1.8c0,0.5-0.2,1-0.5,1.3
		c-0.4,0.4-1,0.5-1.5,0.5C492.6,804.7,491.9,804,491.9,802.8L491.9,802.8z M495.8,820H492v-13.6h3.7V820z M502.6,813.2
		c-0.1,1.1,0.2,2.1,0.7,3.1c0.5,0.7,1.3,1.1,2.2,1c0.8,0.1,1.7-0.3,2.1-1c0.5-0.9,0.7-2,0.7-3.1c0.1-1.1-0.2-2.1-0.7-3
		c-0.5-0.7-1.3-1.1-2.2-1c-0.8-0.1-1.7,0.3-2.1,1C502.8,811,502.6,812.1,502.6,813.2z M512.1,813.2c0.1,1.9-0.5,3.8-1.8,5.2
		c-1.3,1.3-3.1,2-4.9,1.9c-1.2,0-2.4-0.3-3.5-0.9c-1-0.6-1.8-1.4-2.3-2.5c-0.6-1.2-0.8-2.5-0.8-3.8c-0.1-1.9,0.5-3.8,1.7-5.2
		c1.3-1.3,3.1-2,4.9-1.9c1.2,0,2.4,0.3,3.5,0.9c1,0.6,1.8,1.4,2.3,2.5C511.8,810.6,512.1,811.9,512.1,813.2z M527.8,820H524v-8
		c0.1-0.8-0.1-1.5-0.5-2.2c-0.4-0.5-1-0.8-1.7-0.7c-0.9-0.1-1.7,0.3-2.3,1c-0.5,1.1-0.8,2.3-0.7,3.5v6.4h-3.7v-13.6h2.9l0.5,1.7h0.2
		c0.4-0.7,1-1.2,1.7-1.5c0.8-0.3,1.6-0.5,2.5-0.5c1.3-0.1,2.6,0.4,3.6,1.3c0.9,1,1.3,2.4,1.2,3.7V820z M537.2,808.7
		c-0.7,0-1.4,0.2-1.9,0.8c-0.5,0.6-0.8,1.4-0.8,2.1h5.2c0-0.8-0.2-1.5-0.7-2.1C538.6,809,537.9,808.7,537.2,808.7z M537.8,820.2
		c-1.9,0.1-3.7-0.5-5.2-1.8c-1.3-1.4-2-3.3-1.9-5.2c-0.1-1.9,0.5-3.8,1.7-5.3c1.2-1.3,3-2,4.7-1.9c1.7-0.1,3.3,0.5,4.5,1.6
		c1.1,1.2,1.7,2.9,1.6,4.6v1.8h-8.8c0,0.9,0.3,1.8,0.9,2.5c0.7,0.6,1.6,0.9,2.5,0.9c0.8,0,1.6-0.1,2.3-0.3c0.8-0.2,1.6-0.5,2.3-0.8
		v2.9c-0.7,0.3-1.4,0.6-2.1,0.7C539.6,820.2,538.7,820.3,537.8,820.2L537.8,820.2z M555.9,815.9c0.1,1.2-0.5,2.4-1.5,3.2
		c-1.3,0.8-2.8,1.2-4.4,1.1c-0.9,0-1.7-0.1-2.5-0.2c-0.7-0.1-1.3-0.3-2-0.6v-3.1c0.8,0.3,1.5,0.6,2.3,0.8c0.7,0.2,1.5,0.3,2.3,0.3
		c1.4,0,2-0.4,2-1.2c0-0.3-0.1-0.5-0.3-0.7c-0.3-0.3-0.6-0.5-0.9-0.6c-0.4-0.2-1-0.5-1.8-0.8c-0.8-0.3-1.6-0.7-2.3-1.2
		c-0.5-0.3-0.8-0.8-1.1-1.3c-0.2-0.6-0.4-1.2-0.3-1.8c0-1.1,0.5-2.2,1.4-2.8c1.2-0.7,2.6-1.1,4-1c1.7,0,3.3,0.4,4.8,1.1l-1.1,2.7
		c-0.7-0.3-1.3-0.5-1.9-0.7c-0.6-0.2-1.2-0.3-1.8-0.3c-1.1,0-1.6,0.3-1.6,0.9c0,0.4,0.2,0.7,0.5,0.9c0.7,0.4,1.5,0.8,2.3,1.1
		c0.8,0.3,1.6,0.7,2.3,1.2c0.5,0.3,0.8,0.8,1.1,1.3C555.8,814.7,555.9,815.3,555.9,815.9L555.9,815.9z M707.3,820l-0.7-1.9h-0.1
		c-0.5,0.7-1.2,1.3-1.9,1.6c-0.8,0.3-1.7,0.5-2.6,0.5c-1.1,0.1-2.3-0.3-3.1-1.1c-0.8-0.9-1.2-2-1.1-3.2c-0.1-1.3,0.5-2.5,1.5-3.2
		c1.4-0.8,3-1.2,4.6-1.1l2.4-0.1v-0.6c0.1-1-0.6-1.9-1.6-2.1c-0.2,0-0.4,0-0.5,0c-1.3,0.1-2.6,0.4-3.8,1l-1.2-2.5
		c1.6-0.8,3.4-1.3,5.2-1.2c1.5-0.1,3,0.3,4.2,1.2c1,0.9,1.6,2.3,1.5,3.6v9.1H707.3z M706.2,813.7l-1.4,0c-0.8,0-1.7,0.2-2.4,0.6
		c-0.5,0.4-0.8,1-0.8,1.6c0,1,0.6,1.6,1.8,1.6c0.8,0,1.5-0.2,2.1-0.7c0.5-0.5,0.8-1.2,0.8-2L706.2,813.7z M744.5,820l-0.7-1.9h-0.1
		c-0.5,0.7-1.2,1.3-1.9,1.6c-0.8,0.3-1.7,0.5-2.6,0.5c-1.1,0.1-2.3-0.3-3.1-1.1c-0.8-0.9-1.2-2-1.1-3.2c-0.1-1.3,0.5-2.5,1.5-3.2
		c1.4-0.8,3-1.2,4.6-1.1l2.4-0.1v-0.6c0.1-1-0.6-1.9-1.6-2.1c-0.2,0-0.4,0-0.5,0c-1.3,0.1-2.6,0.4-3.8,1l-1.2-2.5
		c1.6-0.8,3.4-1.3,5.2-1.2c1.5-0.1,3,0.3,4.2,1.2c1,0.9,1.6,2.3,1.5,3.6v9.1H744.5z M743.4,813.7l-1.4,0c-0.8,0-1.7,0.2-2.4,0.6
		c-0.5,0.4-0.8,1-0.8,1.6c0,1,0.6,1.6,1.8,1.6c0.8,0,1.5-0.2,2.1-0.7c0.5-0.5,0.8-1.2,0.8-2L743.4,813.7z M758.6,806.1
		c0.4,0,0.8,0,1.3,0.1l-0.3,3.5c-0.4-0.1-0.7-0.1-1.1-0.1c-1-0.1-2,0.3-2.8,0.9c-0.7,0.7-1.1,1.6-1,2.6v6.9H751v-13.6h2.8l0.5,2.3
		h0.2c0.4-0.7,1-1.4,1.7-1.8C756.9,806.3,757.8,806.1,758.6,806.1z M768.1,817.3c0.8,0,1.6-0.2,2.3-0.4v2.8
		c-1.1,0.4-2.2,0.7-3.4,0.6c-1.2,0.1-2.4-0.3-3.3-1.1c-0.7-1-1.1-2.2-1-3.4v-6.6H761v-1.6l2-1.2l1.1-2.9h2.4v2.9h3.8v2.8h-3.8v6.6
		c0,0.4,0.1,0.9,0.4,1.2C767.2,817.2,767.7,817.3,768.1,817.3z M773,802.8c0-1.2,0.7-1.8,2-1.8s2,0.6,2,1.8c0,0.5-0.2,1-0.5,1.3
		c-0.4,0.4-1,0.5-1.5,0.5C773.7,804.7,773,804,773,802.8z M776.9,820h-3.7v-13.6h3.7V820z M788.4,806.1c0.4,0,0.8,0,1.3,0.1
		l-0.3,3.5c-0.4-0.1-0.7-0.1-1.1-0.1c-1-0.1-2,0.3-2.8,0.9c-0.7,0.7-1.1,1.6-1,2.6v6.9h-3.7v-13.6h2.8l0.5,2.3h0.2
		c0.4-0.7,1-1.4,1.7-1.8C786.8,806.3,787.6,806.1,788.4,806.1z M803,820.2c-1.5,0.1-2.9-0.6-3.8-1.9c-1-1.5-1.5-3.3-1.4-5.2
		c-0.1-1.8,0.4-3.7,1.4-5.2c0.9-1.2,2.3-1.9,3.8-1.9c1.6-0.1,3.1,0.7,3.9,2h0.1c-0.2-0.9-0.3-1.8-0.3-2.7V801h3.7v19h-2.9l-0.7-1.8
		h-0.2C806,819.6,804.5,820.3,803,820.2z M804.3,817.3c0.8,0.1,1.6-0.2,2.1-0.8c0.5-0.8,0.8-1.8,0.7-2.8v-0.4
		c0.1-1.1-0.1-2.2-0.7-3.1c-0.5-0.7-1.4-1-2.2-1c-0.8,0-1.5,0.4-1.9,1.1c-0.5,0.9-0.8,2-0.7,3.1c-0.1,1.1,0.2,2.1,0.7,3
		C802.7,816.9,803.5,817.3,804.3,817.3L804.3,817.3z M820.1,808.7c-0.7,0-1.4,0.2-1.9,0.8c-0.5,0.6-0.8,1.4-0.8,2.1h5.2
		c0-0.8-0.2-1.5-0.7-2.1C821.5,809,820.8,808.7,820.1,808.7z M820.7,820.2c-1.9,0.1-3.7-0.5-5.2-1.8c-1.3-1.4-2-3.3-1.9-5.2
		c-0.1-1.9,0.5-3.8,1.7-5.3c1.2-1.3,3-2,4.7-1.9c1.7-0.1,3.3,0.5,4.5,1.6c1.1,1.2,1.7,2.9,1.6,4.6v1.8h-8.8c0,0.9,0.3,1.8,0.9,2.5
		c0.7,0.6,1.6,0.9,2.5,0.9c0.8,0,1.6-0.1,2.3-0.3c0.8-0.2,1.6-0.5,2.3-0.8v2.9c-0.7,0.3-1.4,0.6-2.1,0.7
		C822.5,820.2,821.6,820.3,820.7,820.2L820.7,820.2z M853.6,820h-3.7v-13.6h3.7V820z M849.7,804.9v-0.3c1-1.2,2-2.4,2.9-3.7h4.2v0.3
		c-0.4,0.4-1.1,1.1-2.2,1.9c-1,0.8-1.8,1.5-2.4,1.9H849.7z M863.2,817.3c0.8,0.1,1.5-0.2,2.1-0.8c0.5-0.8,0.8-1.8,0.7-2.8v-0.5
		c0.1-1.1-0.1-2.2-0.7-3.1c-0.5-0.7-1.3-1-2.2-1c-1.8,0-2.6,1.4-2.6,4.1c-0.1,1.1,0.2,2.1,0.7,3.1
		C861.6,817,862.3,817.4,863.2,817.3z M861.8,820.2c-1.5,0.1-2.9-0.6-3.8-1.9c-1-1.5-1.5-3.4-1.4-5.2c-0.1-1.8,0.4-3.7,1.4-5.2
		c0.9-1.2,2.3-1.9,3.8-1.9c0.8,0,1.6,0.1,2.3,0.5c0.7,0.4,1.3,0.9,1.7,1.5h0.1l0.3-1.7h3.1V826h-3.7v-5.7c0-0.7,0.1-1.4,0.2-2.1
		h-0.2c-0.4,0.6-0.9,1.2-1.6,1.5C863.4,820.1,862.6,820.3,861.8,820.2z M883,820l-0.5-1.7h-0.2c-0.4,0.6-1,1.2-1.7,1.5
		c-0.8,0.4-1.6,0.5-2.5,0.5c-1.3,0.1-2.7-0.4-3.6-1.3c-0.9-1-1.3-2.4-1.2-3.7v-8.9h3.7v8c-0.1,0.8,0.1,1.5,0.5,2.2
		c0.4,0.5,1,0.8,1.7,0.7c0.9,0.1,1.7-0.3,2.3-1c0.5-1.1,0.8-2.3,0.7-3.5v-6.4h3.7V820H883z M889.6,802.8c0-1.2,0.7-1.8,2-1.8
		c1.4,0,2,0.6,2,1.8c0,0.5-0.2,1-0.5,1.3c-0.4,0.4-1,0.5-1.5,0.5C890.3,804.7,889.6,804,889.6,802.8L889.6,802.8z M893.5,820h-3.7
		v-13.6h3.7V820z M901.7,820.2c-1.5,0.1-2.9-0.6-3.8-1.9c-1-1.5-1.5-3.3-1.4-5.2c-0.1-1.8,0.4-3.7,1.4-5.2c0.9-1.2,2.3-1.9,3.9-1.9
		c1.6-0.1,3.1,0.7,3.9,2h0.1c-0.2-0.9-0.3-1.8-0.3-2.7V801h3.7v19h-2.9l-0.7-1.8h-0.2C904.7,819.6,903.3,820.3,901.7,820.2z
		 M903,817.3c0.8,0.1,1.6-0.2,2.1-0.8c0.5-0.8,0.8-1.8,0.7-2.8v-0.4c0.1-1.1-0.1-2.2-0.7-3.1c-0.5-0.7-1.4-1-2.2-1
		c-0.8,0-1.5,0.4-1.9,1.1c-0.5,0.9-0.8,2-0.7,3.1c-0.1,1.1,0.2,2.1,0.7,3C901.5,816.9,902.2,817.3,903,817.3L903,817.3z
		 M916.2,813.2c-0.1,1.1,0.2,2.1,0.7,3.1c0.5,0.7,1.3,1.1,2.2,1c0.8,0.1,1.7-0.3,2.1-1c0.5-0.9,0.7-2,0.7-3.1c0.1-1.1-0.2-2.1-0.7-3
		c-0.5-0.7-1.3-1.1-2.2-1c-0.8-0.1-1.7,0.3-2.1,1C916.3,811,916.1,812.1,916.2,813.2L916.2,813.2z M925.6,813.2
		c0.1,1.9-0.5,3.8-1.8,5.2c-1.3,1.3-3.1,2-4.9,1.9c-1.2,0-2.4-0.3-3.5-0.9c-1-0.6-1.8-1.4-2.3-2.5c-0.6-1.2-0.8-2.5-0.8-3.8
		c-0.1-1.9,0.5-3.8,1.7-5.2c1.3-1.3,3.1-2,4.9-1.9c1.2,0,2.4,0.3,3.5,0.9c1,0.6,1.8,1.4,2.3,2.5
		C925.4,810.6,925.6,811.9,925.6,813.2L925.6,813.2z M938.2,816c0.1,1.2-0.5,2.4-1.5,3.2c-1.3,0.8-2.8,1.2-4.4,1.1
		c-0.9,0-1.7-0.1-2.5-0.2c-0.7-0.1-1.3-0.3-2-0.6v-3.1c0.8,0.3,1.5,0.6,2.3,0.8c0.7,0.2,1.5,0.3,2.3,0.3c1.4,0,2-0.4,2-1.2
		c0-0.3-0.1-0.5-0.3-0.7c-0.3-0.3-0.6-0.5-0.9-0.6c-0.4-0.2-1-0.5-1.8-0.8c-0.8-0.3-1.6-0.7-2.3-1.2c-0.5-0.3-0.8-0.8-1.1-1.3
		c-0.2-0.6-0.4-1.2-0.3-1.8c0-1.1,0.5-2.2,1.4-2.8c1.2-0.7,2.6-1.1,4-1c1.7,0,3.3,0.4,4.8,1.1l-1.1,2.7c-0.7-0.3-1.3-0.5-1.9-0.7
		c-0.6-0.2-1.2-0.3-1.8-0.3c-1.1,0-1.6,0.3-1.6,0.9c0,0.4,0.2,0.7,0.5,0.9c0.7,0.4,1.5,0.8,2.3,1.1c0.8,0.3,1.6,0.7,2.3,1.2
		c0.5,0.3,0.8,0.8,1.1,1.3C938.1,814.7,938.2,815.3,938.2,816L938.2,816z M966.5,813.2c-0.1,1.1,0.2,2.1,0.7,3.1
		c0.5,0.7,1.3,1.1,2.2,1c0.8,0.1,1.7-0.3,2.1-1c0.5-0.9,0.7-2,0.7-3.1c0.1-1.1-0.2-2.1-0.7-3c-0.5-0.7-1.3-1.1-2.2-1
		c-0.8-0.1-1.7,0.3-2.1,1C966.7,811,966.4,812.1,966.5,813.2z M975.9,813.2c0.1,1.9-0.5,3.8-1.8,5.2c-1.3,1.3-3.1,2-4.9,1.9
		c-1.2,0-2.4-0.3-3.5-0.9c-1-0.6-1.8-1.4-2.3-2.5c-0.6-1.2-0.8-2.5-0.8-3.8c-0.1-1.9,0.5-3.8,1.7-5.2c1.3-1.3,3.1-2,4.9-1.9
		c1.2,0,2.4,0.3,3.5,0.9c1,0.6,1.8,1.4,2.3,2.5C975.7,810.6,976,811.9,975.9,813.2L975.9,813.2z M991.6,820h-3.7v-8
		c0.1-0.8-0.1-1.5-0.5-2.2c-0.4-0.5-1-0.8-1.7-0.7c-0.9-0.1-1.7,0.3-2.3,1c-0.5,1.1-0.8,2.3-0.7,3.5v6.4H979v-13.6h2.8l0.5,1.7h0.2
		c0.4-0.7,1-1.2,1.7-1.5c0.8-0.3,1.6-0.5,2.5-0.5c1.3-0.1,2.6,0.4,3.6,1.3c0.9,1,1.3,2.4,1.2,3.7V820z M1001,820.2
		c-4.2,0-6.4-2.3-6.4-7c-0.1-1.9,0.5-3.8,1.7-5.3c1.3-1.3,3.1-2,5-1.8c1.5,0,2.9,0.3,4.2,0.9l-1.1,2.9c-0.6-0.2-1.1-0.4-1.6-0.6
		c-0.5-0.1-1-0.2-1.5-0.2c-1.9,0-2.9,1.4-2.9,4.1c0,2.7,1,4,2.9,4c0.7,0,1.3-0.1,2-0.3c0.7-0.2,1.3-0.5,1.8-0.9v3.2
		c-0.6,0.4-1.2,0.6-1.8,0.8C1002.5,820.2,1001.8,820.3,1001,820.2z M1013.9,808.7c-0.7,0-1.4,0.2-1.9,0.8c-0.5,0.6-0.8,1.4-0.8,2.1
		h5.2c0-0.8-0.2-1.5-0.7-2.1C1015.3,809,1014.7,808.7,1013.9,808.7L1013.9,808.7z M1014.5,820.2c-1.9,0.1-3.7-0.5-5.2-1.8
		c-1.3-1.4-2-3.3-1.9-5.2c-0.1-1.9,0.5-3.8,1.7-5.3c1.2-1.3,3-2,4.7-1.9c1.7-0.1,3.3,0.5,4.5,1.6c1.1,1.2,1.7,2.9,1.6,4.6v1.8h-8.8
		c0,0.9,0.3,1.8,0.9,2.5c0.7,0.6,1.6,0.9,2.5,0.9c0.8,0,1.6-0.1,2.3-0.3c0.8-0.2,1.6-0.5,2.3-0.8v2.9c-0.7,0.3-1.4,0.6-2.1,0.7
		C1016.3,820.2,1015.4,820.3,1014.5,820.2z M1035.7,820h-3.7v-8c0.1-0.8-0.1-1.5-0.5-2.2c-0.4-0.5-1-0.8-1.7-0.7
		c-0.9-0.1-1.7,0.3-2.3,1c-0.5,1.1-0.8,2.3-0.7,3.5v6.4h-3.7v-13.6h2.8l0.5,1.7h0.2c0.4-0.7,1-1.2,1.7-1.5c0.8-0.3,1.6-0.5,2.5-0.5
		c1.3-0.1,2.6,0.4,3.6,1.3c0.9,1,1.3,2.4,1.2,3.7V820z M1045.2,817.3c0.8,0,1.6-0.2,2.3-0.4v2.8c-1.1,0.4-2.2,0.7-3.4,0.6
		c-1.2,0.1-2.4-0.3-3.3-1.1c-0.7-1-1.1-2.2-1-3.4v-6.6h-1.8v-1.6l2.1-1.2l1.1-2.9h2.4v2.9h3.8v2.8h-3.8v6.6c0,0.4,0.1,0.9,0.4,1.2
		C1044.4,817.2,1044.8,817.3,1045.2,817.3L1045.2,817.3z M1058,806.1c0.4,0,0.8,0,1.3,0.1l-0.3,3.5c-0.4-0.1-0.7-0.1-1.1-0.1
		c-1-0.1-2,0.3-2.8,0.9c-0.7,0.7-1.1,1.6-1,2.6v6.9h-3.7v-13.6h2.8l0.5,2.3h0.2c0.4-0.7,1-1.4,1.7-1.8
		C1056.3,806.3,1057.1,806.1,1058,806.1z M1069.9,820l-0.7-1.9h-0.1c-0.5,0.7-1.2,1.3-1.9,1.6c-0.8,0.3-1.7,0.5-2.6,0.5
		c-1.1,0.1-2.3-0.3-3.1-1.1c-0.8-0.9-1.2-2-1.1-3.2c-0.1-1.3,0.5-2.5,1.5-3.2c1.4-0.8,3-1.2,4.6-1.1l2.4-0.1v-0.6
		c0.1-1-0.6-1.9-1.6-2.1c-0.2,0-0.4,0-0.5,0c-1.3,0.1-2.6,0.4-3.8,1l-1.2-2.5c1.6-0.8,3.4-1.3,5.2-1.2c1.5-0.1,3,0.3,4.2,1.2
		c1,0.9,1.6,2.3,1.5,3.6v9.1H1069.9z M1068.8,813.7l-1.4,0c-0.8,0-1.7,0.2-2.4,0.6c-0.5,0.4-0.8,1-0.8,1.6c0,1,0.6,1.6,1.8,1.6
		c0.8,0,1.5-0.2,2.1-0.7c0.5-0.5,0.8-1.2,0.8-2L1068.8,813.7z M1080.6,820.2c-1.5,0.1-2.9-0.6-3.8-1.9c-1-1.5-1.5-3.3-1.4-5.2
		c-0.1-1.8,0.4-3.7,1.4-5.2c0.9-1.2,2.3-1.9,3.9-1.9c1.6-0.1,3.1,0.7,3.9,2h0.1c-0.2-0.9-0.3-1.8-0.3-2.7V801h3.7v19h-2.9l-0.7-1.8
		h-0.2C1083.7,819.6,1082.2,820.3,1080.6,820.2z M1081.9,817.3c0.8,0.1,1.6-0.2,2.1-0.8c0.5-0.8,0.8-1.8,0.7-2.8v-0.4
		c0.1-1.1-0.1-2.2-0.7-3.1c-0.5-0.7-1.4-1-2.2-1c-0.8,0-1.5,0.4-1.9,1.1c-0.5,0.9-0.8,2-0.7,3.1c-0.1,1.1,0.2,2.1,0.7,3
		C1080.4,816.9,1081.1,817.3,1081.9,817.3z M1095.1,813.2c-0.1,1.1,0.2,2.1,0.7,3.1c0.5,0.7,1.3,1.1,2.2,1c0.8,0.1,1.7-0.3,2.1-1
		c0.5-0.9,0.7-2,0.7-3.1c0.1-1.1-0.2-2.1-0.7-3c-0.5-0.7-1.3-1.1-2.2-1c-0.8-0.1-1.7,0.3-2.1,1C1095.2,811,1095,812.1,1095.1,813.2
		L1095.1,813.2z M1104.5,813.2c0.1,1.9-0.5,3.8-1.8,5.2c-1.3,1.3-3.1,2-4.9,1.9c-1.2,0-2.4-0.3-3.5-0.9c-1-0.6-1.8-1.4-2.3-2.5
		c-0.6-1.2-0.8-2.5-0.8-3.8c-0.1-1.9,0.5-3.8,1.7-5.2c1.3-1.3,3.1-2,4.9-1.9c1.2,0,2.4,0.3,3.5,0.9c1,0.6,1.8,1.4,2.3,2.5
		C1104.3,810.6,1104.6,811.9,1104.5,813.2L1104.5,813.2z M1117.1,816c0.1,1.2-0.5,2.4-1.5,3.2c-1.3,0.8-2.8,1.2-4.4,1.1
		c-0.9,0-1.7-0.1-2.5-0.2c-0.7-0.1-1.3-0.3-2-0.6v-3.1c0.8,0.3,1.5,0.6,2.3,0.8c0.7,0.2,1.5,0.3,2.3,0.3c1.4,0,2-0.4,2-1.2
		c0-0.3-0.1-0.5-0.3-0.7c-0.3-0.3-0.6-0.5-0.9-0.6c-0.4-0.2-1-0.5-1.8-0.8c-0.8-0.3-1.6-0.7-2.3-1.2c-0.5-0.3-0.8-0.8-1.1-1.3
		c-0.2-0.6-0.4-1.2-0.3-1.8c0-1.1,0.5-2.2,1.4-2.8c1.2-0.7,2.6-1.1,4-1c1.7,0,3.3,0.4,4.8,1.1l-1.1,2.7c-0.7-0.3-1.3-0.5-1.9-0.7
		c-0.6-0.2-1.2-0.3-1.8-0.3c-1.1,0-1.6,0.3-1.6,0.9c0,0.4,0.2,0.7,0.5,0.9c0.7,0.4,1.5,0.8,2.3,1.1c0.8,0.3,1.6,0.7,2.3,1.2
		c0.5,0.3,0.8,0.8,1.1,1.3C1117,814.7,1117.1,815.3,1117.1,816L1117.1,816z M592,820l-0.5-1.7h-0.2c-0.4,0.6-1,1.2-1.7,1.5
		c-0.8,0.4-1.6,0.5-2.5,0.5c-1.3,0.1-2.7-0.4-3.6-1.3c-0.9-1-1.3-2.4-1.2-3.7v-8.9h3.7v8c-0.1,0.8,0.1,1.5,0.5,2.2
		c0.4,0.5,1,0.8,1.7,0.7c0.9,0.1,1.7-0.3,2.3-1c0.5-1.1,0.8-2.3,0.7-3.5v-6.4h3.7V820H592z M604.5,817.3c0.8,0,1.6-0.2,2.3-0.4v2.8
		c-1.1,0.4-2.2,0.7-3.4,0.6c-1.2,0.1-2.4-0.3-3.3-1.1c-0.7-1-1.1-2.2-1-3.4v-6.6h-1.8v-1.6l2.1-1.2l1.1-2.9h2.4v2.9h3.8v2.8h-3.8
		v6.6c0,0.4,0.1,0.9,0.4,1.2C603.7,817.2,604.1,817.3,604.5,817.3z M617.2,806.1c0.4,0,0.8,0,1.3,0.1l-0.3,3.5
		c-0.4-0.1-0.7-0.1-1.1-0.1c-1-0.1-2,0.3-2.8,0.9c-0.7,0.7-1.1,1.6-1,2.6v6.9h-3.7v-13.6h2.8l0.6,2.3h0.2c0.4-0.7,1-1.4,1.7-1.8
		C615.6,806.3,616.4,806.1,617.2,806.1z M620.8,802.8c0-1.2,0.7-1.8,2-1.8c1.4,0,2,0.6,2,1.8c0,0.5-0.2,1-0.5,1.3
		c-0.4,0.4-1,0.5-1.5,0.5C621.5,804.7,620.8,804,620.8,802.8L620.8,802.8z M624.7,820H621v-13.6h3.7V820z M634.4,817.3
		c0.8,0,1.6-0.2,2.3-0.4v2.8c-1.1,0.4-2.2,0.7-3.4,0.6c-1.2,0.1-2.4-0.3-3.2-1.1c-0.7-1-1.1-2.2-1-3.4v-6.6h-1.8v-1.6l2.1-1.2
		l1.1-2.9h2.4v2.9h3.8v2.8h-3.8v6.6c0,0.4,0.1,0.9,0.4,1.2C633.5,817.2,633.9,817.3,634.4,817.3L634.4,817.3z M639.3,802.8
		c0-1.2,0.7-1.8,2-1.8c1.4,0,2,0.6,2,1.8c0,0.5-0.2,1-0.5,1.3c-0.4,0.4-1,0.5-1.5,0.5C640,804.7,639.3,804,639.3,802.8z M643.2,820
		h-3.7v-13.6h3.7V820z M650.3,820l-5.2-13.6h3.9l2.6,7.8c0.3,0.9,0.5,1.9,0.5,2.8h0.1c0.1-1,0.3-1.9,0.5-2.8l2.6-7.8h3.9l-5.2,13.6
		H650.3z M670,820l-0.7-1.9h-0.1c-0.5,0.7-1.2,1.3-1.9,1.6c-0.8,0.3-1.7,0.5-2.6,0.5c-1.1,0.1-2.3-0.3-3.1-1.1
		c-0.8-0.9-1.2-2-1.1-3.2c-0.1-1.3,0.5-2.5,1.5-3.2c1.4-0.8,3-1.2,4.6-1.1l2.4-0.1v-0.6c0.1-1-0.6-1.9-1.6-2.1c-0.2,0-0.4,0-0.5,0
		c-1.3,0.1-2.6,0.4-3.8,1l-1.2-2.5c1.6-0.8,3.4-1.3,5.2-1.2c1.5-0.1,3,0.3,4.2,1.2c1,0.9,1.6,2.3,1.5,3.6v9.1H670z M668.9,813.7
		l-1.4,0c-0.8,0-1.7,0.2-2.4,0.6c-0.5,0.4-0.8,1-0.8,1.6c0,1,0.6,1.6,1.8,1.6c0.8,0,1.5-0.2,2.1-0.7c0.5-0.5,0.8-1.2,0.8-2
		L668.9,813.7z M685.9,815.9c0.1,1.2-0.5,2.4-1.5,3.2c-1.3,0.8-2.8,1.2-4.4,1.1c-0.9,0-1.7-0.1-2.5-0.2c-0.7-0.1-1.3-0.3-2-0.6v-3.1
		c0.8,0.3,1.5,0.6,2.3,0.8c0.7,0.2,1.5,0.3,2.3,0.3c1.4,0,2-0.4,2-1.2c0-0.3-0.1-0.5-0.3-0.7c-0.3-0.3-0.6-0.5-0.9-0.6
		c-0.4-0.2-1-0.5-1.8-0.8c-0.8-0.3-1.6-0.7-2.3-1.2c-0.5-0.3-0.8-0.8-1.1-1.3c-0.2-0.6-0.4-1.2-0.3-1.8c0-1.1,0.5-2.2,1.4-2.8
		c1.2-0.7,2.6-1.1,4-1c1.7,0,3.3,0.4,4.8,1.1l-1.1,2.7c-0.7-0.3-1.3-0.5-1.9-0.7c-0.6-0.2-1.2-0.3-1.8-0.3c-1.1,0-1.6,0.3-1.6,0.9
		c0,0.4,0.2,0.7,0.5,0.9c0.7,0.4,1.5,0.8,2.3,1.1c0.8,0.3,1.6,0.7,2.3,1.2c0.5,0.3,0.8,0.8,1.1,1.3
		C685.8,814.7,686,815.3,685.9,815.9L685.9,815.9z M579.5,820h-3.7v-8c0.1-0.8-0.1-1.5-0.5-2.2c-0.4-0.5-1-0.8-1.7-0.7
		c-0.9-0.1-1.7,0.3-2.3,1c-0.5,1.1-0.8,2.3-0.7,3.5v6.4h-3.7v-13.6h2.8l0.5,1.7h0.2c0.4-0.7,1-1.2,1.7-1.5c0.8-0.3,1.6-0.5,2.5-0.5
		c1.3-0.1,2.6,0.4,3.6,1.3c0.9,1,1.3,2.4,1.2,3.7V820z M729.1,820.2c-1.5,0.1-2.9-0.6-3.8-1.7h-0.2c0.1,1.1,0.2,1.8,0.2,2v5.5h-3.7
		v-19.7h3l0.5,1.8h0.2c0.8-1.3,2.3-2.1,3.9-2c1.5-0.1,2.9,0.6,3.8,1.9c1,1.5,1.5,3.4,1.4,5.2c0,1.3-0.2,2.6-0.6,3.8
		c-0.4,1-1,1.8-1.8,2.4C731.1,820,730.1,820.3,729.1,820.2L729.1,820.2z M728,809.1c-0.8-0.1-1.5,0.3-2,0.8
		c-0.5,0.8-0.7,1.8-0.7,2.8v0.4c-0.1,1.1,0.1,2.2,0.7,3.1c0.5,0.7,1.3,1,2.1,1c1.7,0,2.5-1.4,2.5-4.1c0.1-1-0.1-2.1-0.6-3
		C729.6,809.4,728.8,809,728,809.1L728,809.1z M846.9,820h-3.7v-19h3.7V820z M956,820.2c-4.2,0-6.4-2.3-6.4-7
		c-0.1-1.9,0.5-3.8,1.7-5.3c1.3-1.3,3.1-2,5-1.8c1.5,0,2.9,0.3,4.2,0.9l-1.1,2.9c-0.6-0.2-1.1-0.4-1.6-0.6c-0.5-0.1-1-0.2-1.5-0.2
		c-1.9,0-2.9,1.4-2.9,4.1c0,2.7,1,4,2.9,4c0.7,0,1.3-0.1,2-0.3c0.7-0.2,1.3-0.5,1.8-0.9v3.2c-0.6,0.4-1.2,0.6-1.8,0.8
		C957.5,820.2,956.8,820.3,956,820.2z"/>
	<path id="Rectángulo_2079" class="st0" d="M395,855h832c2.8,0,5,2.2,5,5v34c0,2.8-2.2,5-5,5H395c-2.8,0-5-2.2-5-5v-34
		C390,857.2,392.2,855,395,855z"/>
	<path id="Trazado_17175" class="st1" d="M436.7,880c0.1,1.5-0.6,2.9-1.7,3.8c-1.4,1-3.1,1.5-4.8,1.4c-1.7,0-3.5-0.3-5.1-1.1v-3.5
		c1,0.5,2,0.8,3.1,1.1c0.7,0.2,1.5,0.3,2.3,0.3c0.7,0,1.3-0.1,1.9-0.5c0.4-0.3,0.7-0.9,0.7-1.4c0-0.3-0.1-0.7-0.3-0.9
		c-0.2-0.3-0.5-0.6-0.9-0.8c-0.7-0.4-1.5-0.8-2.3-1.2c-0.9-0.4-1.7-0.9-2.5-1.5c-0.5-0.5-1-1-1.3-1.6c-0.3-0.7-0.5-1.4-0.5-2.2
		c-0.1-1.4,0.5-2.8,1.6-3.7c1.3-1,2.8-1.4,4.4-1.4c0.9,0,1.8,0.1,2.7,0.3c0.9,0.2,1.8,0.6,2.6,0.9l-1.2,2.9
		c-0.8-0.3-1.6-0.6-2.4-0.8c-0.6-0.2-1.2-0.2-1.8-0.2c-0.6,0-1.2,0.1-1.6,0.5c-0.4,0.3-0.6,0.8-0.6,1.3c0,0.3,0.1,0.6,0.2,0.9
		c0.2,0.3,0.4,0.5,0.7,0.7c0.8,0.5,1.6,0.9,2.4,1.3c1.3,0.5,2.5,1.4,3.4,2.4C436.4,877.9,436.7,879,436.7,880z M442.6,878.2
		c-0.1,1.1,0.2,2.1,0.7,3.1c0.5,0.7,1.3,1.1,2.2,1c0.8,0.1,1.7-0.3,2.1-1c0.5-0.9,0.7-2,0.7-3.1c0.1-1.1-0.2-2.1-0.7-3
		c-0.5-0.7-1.3-1.1-2.2-1c-0.8-0.1-1.7,0.3-2.1,1C442.8,876,442.6,877.1,442.6,878.2z M452.1,878.2c0.1,1.9-0.5,3.8-1.8,5.2
		c-1.3,1.3-3.1,2-4.9,1.9c-1.2,0-2.4-0.3-3.5-0.9c-1-0.6-1.8-1.4-2.3-2.5c-0.6-1.2-0.8-2.5-0.8-3.8c-0.1-1.9,0.5-3.8,1.7-5.2
		c1.3-1.3,3.1-2,4.9-1.9c1.2,0,2.4,0.3,3.5,0.9c1,0.6,1.8,1.4,2.3,2.5C451.8,875.6,452.1,876.9,452.1,878.2z M458.9,885h-3.7v-19
		h3.7V885z M472.4,885l-0.5-1.7h-0.2c-0.4,0.6-1,1.2-1.7,1.5c-0.8,0.4-1.6,0.5-2.5,0.5c-1.3,0.1-2.7-0.4-3.6-1.3
		c-0.9-1-1.3-2.4-1.2-3.7v-8.9h3.7v8c-0.1,0.8,0.1,1.5,0.5,2.2c0.4,0.5,1,0.8,1.7,0.7c0.9,0.1,1.7-0.3,2.3-1
		c0.5-1.1,0.8-2.3,0.7-3.5v-6.4h3.7V885H472.4z M484.7,885.2c-4.2,0-6.4-2.3-6.4-7c-0.1-1.9,0.5-3.8,1.7-5.3c1.3-1.3,3.1-2,5-1.8
		c1.5,0,2.9,0.3,4.2,0.9l-1.1,2.9c-0.6-0.2-1.1-0.4-1.6-0.6c-0.5-0.1-1-0.2-1.5-0.2c-1.9,0-2.9,1.4-2.9,4.1c0,2.7,1,4,2.9,4
		c0.7,0,1.3-0.1,2-0.3c0.7-0.2,1.3-0.5,1.8-0.9v3.2c-0.6,0.4-1.2,0.6-1.8,0.8C486.3,885.2,485.5,885.3,484.7,885.2L484.7,885.2z
		 M491.9,867.8c0-1.2,0.7-1.8,2-1.8s2,0.6,2,1.8c0,0.5-0.2,1-0.5,1.3c-0.4,0.4-1,0.5-1.5,0.5C492.6,869.7,491.9,869,491.9,867.8
		L491.9,867.8z M495.8,885h-3.7v-13.6h3.7V885z M502.6,878.2c-0.1,1.1,0.2,2.1,0.7,3.1c0.5,0.7,1.3,1.1,2.2,1c0.8,0.1,1.7-0.3,2.1-1
		c0.5-0.9,0.7-2,0.7-3.1c0.1-1.1-0.2-2.1-0.7-3c-0.5-0.7-1.3-1.1-2.2-1c-0.8-0.1-1.7,0.3-2.1,1C502.8,876,502.6,877.1,502.6,878.2z
		 M512.1,878.2c0.1,1.9-0.5,3.8-1.8,5.2c-1.3,1.3-3.1,2-4.9,1.9c-1.2,0-2.4-0.3-3.5-0.9c-1-0.6-1.8-1.4-2.3-2.5
		c-0.6-1.2-0.8-2.5-0.8-3.8c-0.1-1.9,0.5-3.8,1.7-5.2c1.3-1.3,3.1-2,4.9-1.9c1.2,0,2.4,0.3,3.5,0.9c1,0.6,1.8,1.4,2.3,2.5
		C511.8,875.6,512.1,876.9,512.1,878.2z M527.8,885H524v-8c0.1-0.8-0.1-1.5-0.5-2.2c-0.4-0.5-1-0.8-1.7-0.7c-0.9-0.1-1.7,0.3-2.3,1
		c-0.5,1.1-0.8,2.3-0.7,3.5v6.4h-3.7v-13.6h2.8l0.5,1.7h0.2c0.4-0.7,1-1.2,1.7-1.5c0.8-0.3,1.6-0.5,2.5-0.5c1.3-0.1,2.6,0.4,3.6,1.3
		c0.9,1,1.3,2.4,1.2,3.7V885z M537.2,873.7c-0.7,0-1.4,0.2-1.9,0.8c-0.5,0.6-0.8,1.4-0.8,2.1h5.2c0-0.8-0.2-1.5-0.7-2.1
		C538.6,874,537.9,873.7,537.2,873.7z M537.8,885.2c-1.9,0.1-3.7-0.5-5.2-1.8c-1.3-1.4-2-3.3-1.9-5.2c-0.1-1.9,0.5-3.8,1.7-5.3
		c1.2-1.3,3-2,4.7-1.9c1.7-0.1,3.3,0.5,4.5,1.6c1.1,1.2,1.7,2.9,1.6,4.6v1.8h-8.8c0,0.9,0.3,1.8,0.9,2.5c0.7,0.6,1.6,0.9,2.5,0.9
		c0.8,0,1.6-0.1,2.3-0.3c0.8-0.2,1.6-0.5,2.3-0.8v2.9c-0.7,0.3-1.4,0.6-2.1,0.7C539.6,885.2,538.7,885.3,537.8,885.2L537.8,885.2z
		 M555.9,880.9c0.1,1.2-0.5,2.4-1.5,3.2c-1.3,0.8-2.8,1.2-4.4,1.1c-0.9,0-1.7-0.1-2.5-0.2c-0.7-0.1-1.3-0.3-2-0.6v-3.1
		c0.8,0.3,1.5,0.6,2.3,0.8c0.7,0.2,1.5,0.3,2.3,0.3c1.4,0,2-0.4,2-1.2c0-0.3-0.1-0.5-0.3-0.7c-0.3-0.3-0.6-0.5-0.9-0.6
		c-0.4-0.2-1-0.5-1.8-0.8c-0.8-0.3-1.6-0.7-2.3-1.2c-0.5-0.3-0.8-0.8-1.1-1.3c-0.2-0.6-0.4-1.2-0.3-1.8c0-1.1,0.5-2.2,1.4-2.8
		c1.2-0.7,2.6-1.1,4-1c1.7,0,3.3,0.4,4.8,1.1l-1.1,2.7c-0.7-0.3-1.3-0.5-1.9-0.7c-0.6-0.2-1.2-0.3-1.8-0.3c-1.1,0-1.6,0.3-1.6,0.9
		c0,0.4,0.2,0.7,0.5,0.9c0.7,0.4,1.5,0.8,2.3,1.1c0.8,0.3,1.6,0.7,2.3,1.2c0.5,0.3,0.8,0.8,1.1,1.3
		C555.8,879.7,555.9,880.3,555.9,880.9L555.9,880.9z M707.3,885l-0.7-1.9h-0.1c-0.5,0.7-1.2,1.3-1.9,1.6c-0.8,0.3-1.7,0.5-2.6,0.5
		c-1.1,0.1-2.3-0.3-3.1-1.1c-0.8-0.9-1.2-2-1.1-3.2c-0.1-1.3,0.5-2.5,1.5-3.2c1.4-0.8,3-1.2,4.6-1.1l2.4-0.1v-0.6
		c0.1-1-0.6-1.9-1.6-2.1c-0.2,0-0.4,0-0.5,0c-1.3,0.1-2.6,0.4-3.8,1l-1.2-2.5c1.6-0.8,3.4-1.3,5.2-1.2c1.5-0.1,3,0.3,4.2,1.2
		c1,0.9,1.6,2.3,1.5,3.6v9.1H707.3z M706.2,878.7l-1.4,0c-0.8,0-1.7,0.2-2.4,0.6c-0.5,0.4-0.8,1-0.8,1.6c0,1,0.6,1.6,1.8,1.6
		c0.8,0,1.5-0.2,2.1-0.7c0.5-0.5,0.8-1.2,0.8-2L706.2,878.7z M744.6,885l-0.7-1.9h-0.1c-0.5,0.7-1.2,1.3-1.9,1.6
		c-0.8,0.3-1.7,0.5-2.6,0.5c-1.1,0.1-2.3-0.3-3.1-1.1c-0.8-0.9-1.2-2-1.1-3.2c-0.1-1.3,0.5-2.5,1.5-3.2c1.4-0.8,3-1.2,4.6-1.1
		l2.4-0.1v-0.6c0.1-1-0.6-1.9-1.6-2.1c-0.2,0-0.4,0-0.5,0c-1.3,0.1-2.6,0.4-3.8,1l-1.2-2.5c1.6-0.8,3.4-1.3,5.2-1.2
		c1.5-0.1,3,0.3,4.2,1.2c1,0.9,1.6,2.3,1.5,3.6v9.1H744.6z M743.5,878.7l-1.4,0c-0.8,0-1.7,0.2-2.4,0.6c-0.5,0.4-0.8,1-0.8,1.6
		c0,1,0.6,1.6,1.8,1.6c0.8,0,1.5-0.2,2.1-0.7c0.5-0.5,0.8-1.2,0.8-2L743.5,878.7z M758.6,871.1c0.4,0,0.8,0,1.3,0.1l-0.3,3.5
		c-0.4-0.1-0.7-0.1-1.1-0.1c-1-0.1-2,0.3-2.8,0.9c-0.7,0.7-1.1,1.6-1,2.6v6.9H751v-13.6h2.8l0.5,2.3h0.2c0.4-0.7,1-1.4,1.7-1.8
		C756.9,871.3,757.8,871.1,758.6,871.1z M768.1,882.3c0.8,0,1.6-0.2,2.3-0.4v2.8c-1.1,0.4-2.2,0.7-3.4,0.6c-1.2,0.1-2.4-0.3-3.3-1.1
		c-0.7-1-1.1-2.2-1-3.4v-6.6H761v-1.6l2.1-1.2l1.1-2.9h2.4v2.9h3.8v2.8h-3.8v6.6c0,0.4,0.1,0.9,0.4,1.2
		C767.2,882.2,767.7,882.3,768.1,882.3L768.1,882.3z M773,867.8c0-1.2,0.7-1.8,2-1.8s2,0.6,2,1.8c0,0.5-0.2,1-0.5,1.3
		c-0.4,0.4-1,0.5-1.5,0.5C773.7,869.7,773,869,773,867.8L773,867.8z M776.9,885h-3.7v-13.6h3.7L776.9,885z M788.4,871.1
		c0.4,0,0.8,0,1.3,0.1l-0.3,3.5c-0.4-0.1-0.7-0.1-1.1-0.1c-1-0.1-2,0.3-2.8,0.9c-0.7,0.7-1.1,1.6-1,2.6v6.9h-3.7v-13.6h2.8l0.5,2.3
		h0.2c0.4-0.7,1-1.4,1.7-1.8C786.8,871.3,787.6,871.1,788.4,871.1z M803,885.2c-1.5,0.1-2.9-0.6-3.8-1.9c-1-1.5-1.5-3.3-1.4-5.2
		c-0.1-1.8,0.4-3.7,1.4-5.2c0.9-1.2,2.3-1.9,3.8-1.9c1.6-0.1,3.1,0.7,3.9,2h0.1c-0.2-0.9-0.3-1.8-0.3-2.7V866h3.7v19h-2.9l-0.7-1.8
		h-0.2C806,884.6,804.5,885.3,803,885.2z M804.3,882.3c0.8,0.1,1.6-0.2,2.1-0.8c0.5-0.8,0.8-1.8,0.7-2.8v-0.4
		c0.1-1.1-0.1-2.2-0.7-3.1c-0.5-0.7-1.4-1-2.2-1c-0.8,0-1.5,0.4-1.9,1.1c-0.5,0.9-0.8,2-0.7,3.1c-0.1,1.1,0.2,2.1,0.7,3
		C802.7,881.9,803.5,882.3,804.3,882.3z M820.1,873.7c-0.7,0-1.4,0.2-1.9,0.8c-0.5,0.6-0.8,1.4-0.8,2.1h5.2c0-0.8-0.2-1.5-0.7-2.1
		C821.5,874,820.8,873.7,820.1,873.7z M820.7,885.2c-1.9,0.1-3.7-0.5-5.2-1.8c-1.3-1.4-2-3.3-1.9-5.2c-0.1-1.9,0.5-3.8,1.7-5.3
		c1.2-1.3,3-2,4.7-1.9c1.7-0.1,3.3,0.5,4.5,1.6c1.1,1.2,1.7,2.9,1.6,4.6v1.8h-8.8c0,0.9,0.3,1.8,0.9,2.5c0.7,0.6,1.6,0.9,2.5,0.9
		c0.8,0,1.6-0.1,2.3-0.3c0.8-0.2,1.6-0.5,2.3-0.8v2.9c-0.7,0.3-1.4,0.6-2.1,0.7C822.5,885.2,821.6,885.3,820.7,885.2L820.7,885.2z
		 M860.6,871.1c1.5-0.1,2.9,0.7,3.8,1.9c1,1.5,1.5,3.3,1.4,5.2c0.1,1.9-0.4,3.7-1.4,5.2c-0.9,1.2-2.3,1.9-3.8,1.9
		c-1.5,0.1-2.9-0.6-3.8-1.7h-0.3l-0.6,1.5H853v-19h3.7v4.4c0,0.6,0,1.5-0.1,2.7h0.1C857.5,871.8,859,871,860.6,871.1z M859.4,874.1
		c-0.8-0.1-1.5,0.3-2,0.8c-0.5,0.8-0.7,1.8-0.7,2.8v0.4c-0.1,1.1,0.1,2.2,0.7,3.1c0.5,0.7,1.3,1,2.1,1c0.8,0,1.5-0.4,1.8-1.1
		c0.5-0.9,0.7-2,0.7-3.1c0.1-1.1-0.2-2.1-0.7-3C860.9,874.4,860.2,874.1,859.4,874.1L859.4,874.1z M871.8,878.2
		c-0.1,1.1,0.2,2.1,0.7,3.1c0.5,0.7,1.3,1.1,2.2,1c0.8,0.1,1.7-0.3,2.1-1c0.5-0.9,0.7-2,0.7-3.1c0.1-1.1-0.2-2.1-0.7-3
		c-0.5-0.7-1.3-1.1-2.2-1c-0.8-0.1-1.7,0.3-2.1,1C871.9,876,871.7,877.1,871.8,878.2L871.8,878.2z M881.2,878.2
		c0.1,1.9-0.5,3.8-1.8,5.2c-1.3,1.3-3.1,2-4.9,1.9c-1.2,0-2.4-0.3-3.5-0.9c-1-0.6-1.8-1.4-2.3-2.5c-0.6-1.2-0.8-2.5-0.8-3.8
		c-0.1-1.9,0.5-3.8,1.7-5.2c1.3-1.3,3.1-2,4.9-1.9c1.2,0,2.4,0.3,3.5,0.9c1,0.6,1.8,1.4,2.3,2.4C881,875.6,881.3,876.9,881.2,878.2
		L881.2,878.2z M896.9,885h-3.7v-8c0.1-0.8-0.1-1.5-0.5-2.2c-0.4-0.5-1-0.8-1.7-0.7c-0.9-0.1-1.7,0.3-2.3,1
		c-0.5,1.1-0.8,2.3-0.7,3.5v6.4h-3.7v-13.6h2.8l0.5,1.7h0.2c0.4-0.7,1-1.2,1.7-1.5c0.8-0.3,1.6-0.5,2.5-0.5c1.3-0.1,2.6,0.4,3.6,1.3
		c0.9,1,1.3,2.4,1.2,3.7V885z M903.7,878.2c-0.1,1.1,0.2,2.1,0.7,3.1c0.5,0.7,1.3,1.1,2.2,1c0.8,0.1,1.7-0.3,2.1-1
		c0.5-0.9,0.7-2,0.7-3.1c0.1-1.1-0.2-2.1-0.7-3c-0.5-0.7-1.3-1.1-2.2-1c-0.8-0.1-1.7,0.3-2.1,1C903.9,876,903.6,877.1,903.7,878.2z
		 M913.1,878.2c0.1,1.9-0.5,3.8-1.8,5.2c-1.3,1.3-3.1,2-4.9,1.9c-1.2,0-2.4-0.3-3.5-0.9c-1-0.6-1.8-1.4-2.3-2.5
		c-0.6-1.2-0.8-2.5-0.8-3.8c-0.1-1.9,0.5-3.8,1.7-5.2c1.3-1.3,3.1-2,4.9-1.9c1.2,0,2.4,0.3,3.5,0.9c1,0.6,1.8,1.4,2.3,2.5
		C912.9,875.6,913.2,876.9,913.1,878.2L913.1,878.2z M925.7,881c0.1,1.2-0.5,2.4-1.5,3.2c-1.3,0.8-2.8,1.2-4.4,1.1
		c-0.9,0-1.7-0.1-2.5-0.2c-0.7-0.1-1.3-0.3-2-0.6v-3.1c0.8,0.3,1.5,0.6,2.3,0.8c0.7,0.2,1.5,0.3,2.3,0.3c1.4,0,2-0.4,2-1.2
		c0-0.3-0.1-0.5-0.3-0.7c-0.3-0.3-0.6-0.5-0.9-0.6c-0.4-0.2-1-0.5-1.8-0.8c-0.8-0.3-1.6-0.7-2.3-1.2c-0.5-0.3-0.8-0.8-1.1-1.3
		c-0.2-0.6-0.4-1.2-0.3-1.8c0-1.1,0.5-2.2,1.4-2.8c1.2-0.7,2.6-1.1,4-1c1.7,0,3.3,0.4,4.8,1.1l-1.1,2.7c-0.7-0.3-1.3-0.5-1.9-0.7
		c-0.6-0.2-1.2-0.3-1.8-0.3c-1.1,0-1.6,0.3-1.6,0.9c0,0.4,0.2,0.7,0.5,0.9c0.7,0.4,1.5,0.8,2.3,1.1c0.8,0.3,1.6,0.7,2.3,1.2
		c0.5,0.3,0.8,0.8,1.1,1.3C925.6,879.7,925.7,880.3,925.7,881L925.7,881z M954,878.2c-0.1,1.1,0.2,2.1,0.7,3.1
		c0.5,0.7,1.3,1.1,2.2,1c0.8,0.1,1.7-0.3,2.1-1c0.5-0.9,0.7-2,0.7-3.1c0.1-1.1-0.2-2.1-0.7-3c-0.5-0.7-1.3-1.1-2.2-1
		c-0.8-0.1-1.7,0.3-2.1,1C954.2,876,954,877.1,954,878.2L954,878.2z M963.5,878.2c0.1,1.9-0.5,3.8-1.8,5.2c-1.3,1.3-3.1,2-4.9,1.9
		c-1.2,0-2.4-0.3-3.5-0.9c-1-0.6-1.8-1.4-2.3-2.5c-0.6-1.2-0.8-2.5-0.8-3.8c-0.1-1.9,0.5-3.8,1.7-5.2c1.3-1.3,3.1-2,4.9-1.9
		c1.2,0,2.4,0.3,3.5,0.9c1,0.6,1.8,1.4,2.3,2.5C963.2,875.6,963.5,876.9,963.5,878.2L963.5,878.2z M978.8,885H975v-8
		c0.1-0.8-0.1-1.5-0.5-2.2c-0.4-0.5-0.9-0.8-1.6-0.7c-0.8-0.1-1.6,0.3-2.1,1.1c-0.5,1.1-0.7,2.3-0.6,3.5v6.4h-3.7v-13.6h2.8l0.5,1.7
		h0.2c0.4-0.6,0.9-1.1,1.6-1.5c0.7-0.4,1.6-0.5,2.4-0.5c2,0,3.4,0.7,4.2,2h0.3c0.4-0.6,0.9-1.2,1.6-1.5c0.8-0.4,1.6-0.5,2.4-0.5
		c1.3-0.1,2.5,0.3,3.5,1.2c0.9,1.1,1.3,2.4,1.2,3.8v8.9h-3.7v-8c0.1-0.8-0.1-1.5-0.5-2.2c-0.4-0.5-0.9-0.8-1.6-0.7
		c-0.8-0.1-1.6,0.3-2,1c-0.5,0.9-0.8,2-0.7,3.1L978.8,885z M998.6,885.2c-1.5,0.1-2.9-0.6-3.8-1.7h-0.2c0.1,1.1,0.2,1.8,0.2,2v5.5
		h-3.7v-19.7h3l0.5,1.8h0.2c0.8-1.3,2.3-2.1,3.9-2c1.5-0.1,2.9,0.6,3.8,1.9c1,1.5,1.5,3.4,1.4,5.2c0,1.3-0.2,2.6-0.6,3.8
		c-0.4,1-1,1.8-1.8,2.4C1000.5,885,999.6,885.3,998.6,885.2L998.6,885.2z M997.5,874.1c-0.8-0.1-1.5,0.3-2,0.8
		c-0.5,0.8-0.7,1.8-0.7,2.8v0.4c-0.1,1.1,0.1,2.2,0.7,3.1c0.5,0.7,1.3,1,2.1,1c1.7,0,2.5-1.4,2.5-4.1c0.1-1-0.1-2.1-0.6-3
		C999,874.4,998.3,874,997.5,874.1L997.5,874.1z M1016.6,885l-0.5-1.7h-0.2c-0.4,0.6-1,1.2-1.7,1.5c-0.8,0.4-1.6,0.5-2.5,0.5
		c-1.3,0.1-2.7-0.4-3.6-1.3c-0.9-1-1.3-2.4-1.2-3.7v-8.9h3.7v8c-0.1,0.8,0.1,1.5,0.5,2.2c0.4,0.5,1,0.8,1.7,0.7
		c0.9,0.1,1.7-0.3,2.3-1c0.5-1.1,0.8-2.3,0.7-3.5v-6.4h3.7V885H1016.6z M1029,873.7c-0.7,0-1.4,0.2-1.9,0.8
		c-0.5,0.6-0.8,1.4-0.8,2.1h5.2c0-0.8-0.2-1.5-0.7-2.1C1030.4,874,1029.7,873.7,1029,873.7z M1029.5,885.2c-1.9,0.1-3.7-0.5-5.2-1.8
		c-1.3-1.4-2-3.3-1.9-5.2c-0.1-1.9,0.5-3.8,1.7-5.3c1.2-1.3,3-2,4.7-1.9c1.7-0.1,3.3,0.5,4.5,1.6c1.1,1.2,1.7,2.9,1.6,4.6v1.8h-8.8
		c0,0.9,0.3,1.8,0.9,2.5c0.7,0.6,1.6,0.9,2.5,0.9c0.8,0,1.6-0.1,2.3-0.3c0.8-0.2,1.6-0.5,2.3-0.8v2.9c-0.7,0.3-1.4,0.6-2.1,0.7
		C1031.3,885.2,1030.4,885.3,1029.5,885.2L1029.5,885.2z M1047.6,880.9c0.1,1.2-0.5,2.4-1.5,3.2c-1.3,0.8-2.8,1.2-4.4,1.1
		c-0.9,0-1.7-0.1-2.5-0.2c-0.7-0.1-1.3-0.3-2-0.6v-3.1c0.8,0.3,1.5,0.6,2.3,0.8c0.7,0.2,1.5,0.3,2.3,0.3c1.4,0,2-0.4,2-1.2
		c0-0.3-0.1-0.5-0.3-0.7c-0.3-0.3-0.6-0.5-0.9-0.6c-0.4-0.2-1-0.5-1.8-0.8c-0.8-0.3-1.6-0.7-2.3-1.2c-0.5-0.3-0.8-0.8-1.1-1.3
		c-0.2-0.6-0.4-1.2-0.3-1.8c0-1.1,0.5-2.2,1.4-2.8c1.2-0.7,2.6-1.1,4-1c1.7,0,3.3,0.4,4.8,1.1l-1.1,2.7c-0.7-0.3-1.3-0.5-1.9-0.7
		c-0.6-0.2-1.2-0.3-1.8-0.3c-1.1,0-1.6,0.3-1.6,0.9c0,0.4,0.2,0.7,0.5,0.9c0.7,0.4,1.5,0.8,2.3,1.1c0.8,0.3,1.6,0.7,2.3,1.2
		c0.5,0.3,0.8,0.8,1.1,1.3C1047.5,879.7,1047.6,880.3,1047.6,880.9L1047.6,880.9z M1056.3,882.3c0.8,0,1.6-0.2,2.3-0.4v2.8
		c-1.1,0.4-2.2,0.7-3.4,0.6c-1.2,0.1-2.4-0.3-3.3-1.1c-0.7-1-1.1-2.2-1-3.4v-6.6h-1.8v-1.6l2.1-1.2l1.1-2.9h2.4v2.9h3.8v2.8h-3.8
		v6.6c0,0.4,0.1,0.9,0.4,1.2C1055.4,882.2,1055.9,882.3,1056.3,882.3L1056.3,882.3z M1064.4,878.2c-0.1,1.1,0.2,2.1,0.7,3.1
		c0.5,0.7,1.3,1.1,2.2,1c0.8,0.1,1.7-0.3,2.1-1c0.5-0.9,0.7-2,0.7-3.1c0.1-1.1-0.2-2.1-0.7-3c-0.5-0.7-1.3-1.1-2.2-1
		c-0.8-0.1-1.7,0.3-2.1,1C1064.5,876,1064.3,877.1,1064.4,878.2L1064.4,878.2z M1073.8,878.2c0.1,1.9-0.5,3.8-1.8,5.2
		c-1.3,1.3-3.1,2-4.9,1.9c-1.2,0-2.4-0.3-3.5-0.9c-1-0.6-1.8-1.4-2.3-2.5c-0.6-1.2-0.8-2.5-0.8-3.8c-0.1-1.9,0.5-3.8,1.7-5.2
		c1.3-1.3,3.1-2,4.9-1.9c1.2,0,2.4,0.3,3.5,0.9c1,0.6,1.8,1.4,2.3,2.5C1073.5,875.6,1073.8,876.9,1073.8,878.2L1073.8,878.2z
		 M1086.4,881c0.1,1.2-0.5,2.4-1.5,3.2c-1.3,0.8-2.8,1.2-4.4,1.1c-0.9,0-1.7-0.1-2.5-0.2c-0.7-0.1-1.3-0.3-2-0.6v-3.1
		c0.8,0.3,1.5,0.6,2.3,0.8c0.7,0.2,1.5,0.3,2.3,0.3c1.4,0,2-0.4,2-1.2c0-0.3-0.1-0.5-0.3-0.7c-0.3-0.3-0.6-0.5-0.9-0.6
		c-0.4-0.2-1-0.5-1.8-0.8c-0.8-0.3-1.6-0.7-2.3-1.2c-0.5-0.3-0.8-0.8-1.1-1.3c-0.2-0.6-0.4-1.2-0.3-1.8c0-1.1,0.5-2.2,1.4-2.8
		c1.2-0.7,2.6-1.1,4-1c1.7,0,3.3,0.4,4.8,1.1l-1.1,2.7c-0.7-0.3-1.3-0.5-1.9-0.7c-0.6-0.2-1.2-0.3-1.8-0.3c-1.1,0-1.6,0.3-1.6,0.9
		c0,0.4,0.2,0.7,0.5,0.9c0.7,0.4,1.5,0.8,2.3,1.1c0.8,0.3,1.6,0.7,2.3,1.2c0.5,0.3,0.8,0.8,1.1,1.3
		C1086.3,879.7,1086.4,880.3,1086.4,881L1086.4,881z M1112.5,878.2c-0.1,1.1,0.2,2.1,0.7,3.1c0.5,0.7,1.3,1.1,2.2,1
		c0.9,0.1,1.7-0.3,2.1-1c0.5-0.9,0.7-2,0.7-3.1c0.1-1.1-0.2-2.1-0.7-3c-0.5-0.7-1.3-1.1-2.2-1c-0.8-0.1-1.7,0.3-2.1,1
		C1112.7,876,1112.5,877.1,1112.5,878.2L1112.5,878.2z M1122,878.2c0.1,1.9-0.5,3.8-1.8,5.2c-1.3,1.3-3.1,2-4.9,1.9
		c-1.2,0-2.4-0.3-3.5-0.9c-1-0.6-1.8-1.4-2.3-2.5c-0.6-1.2-0.8-2.5-0.8-3.8c-0.1-1.9,0.5-3.8,1.7-5.2c1.3-1.3,3.1-2,4.9-1.9
		c1.2,0,2.4,0.3,3.5,0.9c1,0.6,1.8,1.4,2.3,2.5C1121.7,875.6,1122,876.9,1122,878.2L1122,878.2z M1113.3,869.9v-0.3
		c1-1.2,2-2.4,2.9-3.7h4.2v0.3c-0.4,0.4-1.1,1.1-2.2,1.9c-1,0.8-1.8,1.5-2.4,1.9H1113.3z M1128.8,885h-3.7v-19h3.7V885z
		 M1132.5,867.8c0-1.2,0.7-1.8,2-1.8s2,0.6,2,1.8c0,0.5-0.2,1-0.5,1.3c-0.4,0.4-1,0.5-1.5,0.5C1133.2,869.7,1132.5,869,1132.5,867.8
		z M1136.4,885h-3.7v-13.6h3.7V885z M1144.6,885.2c-1.5,0.1-2.9-0.6-3.8-1.9c-1-1.5-1.5-3.3-1.4-5.2c-0.1-1.8,0.4-3.7,1.4-5.2
		c0.9-1.2,2.3-1.9,3.9-1.9c1.6-0.1,3.1,0.7,3.9,2h0.1c-0.2-0.9-0.3-1.8-0.3-2.7V866h3.7v19h-2.9l-0.7-1.8h-0.2
		C1147.7,884.6,1146.2,885.3,1144.6,885.2L1144.6,885.2z M1145.9,882.3c0.8,0.1,1.6-0.2,2.1-0.8c0.5-0.8,0.8-1.8,0.7-2.8v-0.4
		c0.1-1.1-0.1-2.2-0.7-3.1c-0.5-0.7-1.4-1-2.2-1c-0.8,0-1.5,0.4-1.9,1.1c-0.5,0.9-0.8,2-0.7,3.1c-0.1,1.1,0.2,2.1,0.7,3
		C1144.4,881.9,1145.1,882.3,1145.9,882.3L1145.9,882.3z M1159.1,878.2c-0.1,1.1,0.2,2.1,0.7,3.1c0.5,0.7,1.3,1.1,2.2,1
		c0.8,0.1,1.7-0.3,2.1-1c0.5-0.9,0.7-2,0.7-3.1c0.1-1.1-0.2-2.1-0.7-3c-0.5-0.7-1.3-1.1-2.2-1c-0.8-0.1-1.7,0.3-2.1,1
		C1159.2,876,1159,877.1,1159.1,878.2L1159.1,878.2z M1168.5,878.2c0.1,1.9-0.5,3.8-1.8,5.2c-1.3,1.3-3.1,2-4.9,1.9
		c-1.2,0-2.4-0.3-3.5-0.9c-1-0.6-1.8-1.4-2.3-2.5c-0.6-1.2-0.8-2.5-0.8-3.8c-0.1-1.9,0.5-3.8,1.7-5.2c1.3-1.3,3.1-2,4.9-1.9
		c1.2,0,2.4,0.3,3.5,0.9c1,0.6,1.8,1.4,2.3,2.5C1168.3,875.6,1168.5,876.9,1168.5,878.2L1168.5,878.2z M1181.1,881
		c0.1,1.2-0.5,2.4-1.5,3.2c-1.3,0.8-2.8,1.2-4.4,1.1c-0.9,0-1.7-0.1-2.5-0.2c-0.7-0.1-1.3-0.3-2-0.6v-3.1c0.8,0.3,1.5,0.6,2.3,0.8
		c0.7,0.2,1.5,0.3,2.3,0.3c1.4,0,2-0.4,2-1.2c0-0.3-0.1-0.5-0.3-0.7c-0.3-0.3-0.6-0.5-0.9-0.6c-0.4-0.2-1-0.5-1.8-0.8
		c-0.8-0.3-1.6-0.7-2.3-1.2c-0.5-0.3-0.8-0.8-1.1-1.3c-0.2-0.6-0.4-1.2-0.3-1.8c0-1.1,0.5-2.2,1.4-2.8c1.2-0.7,2.6-1.1,4-1
		c1.7,0,3.3,0.4,4.8,1.1l-1.1,2.7c-0.7-0.3-1.3-0.5-1.9-0.7c-0.6-0.2-1.2-0.3-1.8-0.3c-1.1,0-1.6,0.3-1.6,0.9c0,0.4,0.2,0.7,0.5,0.9
		c0.7,0.4,1.5,0.8,2.3,1.1c0.8,0.3,1.6,0.7,2.3,1.2c0.5,0.3,0.8,0.8,1.1,1.3C1181,879.7,1181.1,880.3,1181.1,881L1181.1,881z
		 M593,886l-0.5-1.7h-0.2c-0.4,0.6-1,1.2-1.7,1.5c-0.8,0.4-1.6,0.5-2.5,0.5c-1.3,0.1-2.7-0.4-3.6-1.3c-0.9-1-1.3-2.4-1.2-3.7v-8.9
		h3.7v8c-0.1,0.8,0.1,1.5,0.5,2.2c0.4,0.5,1,0.8,1.7,0.7c0.9,0.1,1.7-0.3,2.3-1c0.5-1.1,0.8-2.3,0.7-3.5v-6.4h3.7V886H593z
		 M605.5,883.3c0.8,0,1.6-0.2,2.3-0.4v2.8c-1.1,0.4-2.2,0.7-3.4,0.6c-1.2,0.1-2.4-0.3-3.3-1.1c-0.7-1-1.1-2.2-1-3.4v-6.6h-1.8v-1.6
		l2.1-1.2l1.1-2.9h2.4v2.9h3.8v2.8h-3.8v6.6c0,0.4,0.1,0.9,0.4,1.2C604.7,883.2,605.1,883.3,605.5,883.3z M618.2,872.1
		c0.4,0,0.8,0,1.3,0.1l-0.3,3.5c-0.4-0.1-0.7-0.1-1.1-0.1c-1-0.1-2,0.3-2.8,0.9c-0.7,0.7-1.1,1.6-1,2.6v6.9h-3.7v-13.6h2.8l0.6,2.3
		h0.2c0.4-0.7,1-1.4,1.7-1.8C616.6,872.3,617.4,872.1,618.2,872.1z M621.8,868.8c0-1.2,0.7-1.8,2-1.8c1.4,0,2,0.6,2,1.8
		c0,0.5-0.2,1-0.5,1.3c-0.4,0.4-1,0.5-1.5,0.5C622.5,870.7,621.8,870,621.8,868.8L621.8,868.8z M625.7,886H622v-13.6h3.7V886z
		 M635.4,883.3c0.8,0,1.6-0.2,2.3-0.4v2.8c-1.1,0.4-2.2,0.7-3.4,0.6c-1.2,0.1-2.4-0.3-3.2-1.1c-0.7-1-1.1-2.2-1-3.4v-6.6h-1.8v-1.6
		l2.1-1.2l1.1-2.9h2.4v2.9h3.8v2.8h-3.8v6.6c0,0.4,0.1,0.9,0.4,1.2C634.5,883.2,634.9,883.3,635.4,883.3L635.4,883.3z M640.3,868.8
		c0-1.2,0.7-1.8,2-1.8c1.4,0,2,0.6,2,1.8c0,0.5-0.2,1-0.5,1.3c-0.4,0.4-1,0.5-1.5,0.5C641,870.7,640.3,870,640.3,868.8z M644.2,886
		h-3.7v-13.6h3.7V886z M651.3,886l-5.2-13.6h3.9l2.6,7.8c0.3,0.9,0.5,1.9,0.5,2.8h0.1c0.1-1,0.3-1.9,0.5-2.8l2.6-7.8h3.9l-5.2,13.6
		H651.3z M671,886l-0.7-1.9h-0.1c-0.5,0.7-1.2,1.3-1.9,1.6c-0.8,0.3-1.7,0.5-2.6,0.5c-1.1,0.1-2.3-0.3-3.1-1.1
		c-0.8-0.9-1.2-2-1.1-3.2c-0.1-1.3,0.5-2.5,1.5-3.2c1.4-0.8,3-1.2,4.6-1.1l2.4-0.1v-0.6c0.1-1-0.6-1.9-1.6-2.1c-0.2,0-0.4,0-0.5,0
		c-1.3,0.1-2.6,0.4-3.8,1l-1.2-2.5c1.6-0.8,3.4-1.3,5.2-1.2c1.5-0.1,3,0.3,4.2,1.2c1,0.9,1.6,2.3,1.5,3.6v9.1H671z M669.9,879.7
		l-1.4,0c-0.8,0-1.7,0.2-2.4,0.6c-0.5,0.4-0.8,1-0.8,1.6c0,1,0.6,1.6,1.8,1.6c0.8,0,1.5-0.2,2.1-0.7c0.5-0.5,0.8-1.2,0.8-2
		L669.9,879.7z M686.9,881.9c0.1,1.2-0.5,2.4-1.5,3.2c-1.3,0.8-2.8,1.2-4.4,1.1c-0.9,0-1.7-0.1-2.5-0.2c-0.7-0.1-1.3-0.3-2-0.6v-3.1
		c0.8,0.3,1.5,0.6,2.3,0.8c0.7,0.2,1.5,0.3,2.3,0.3c1.4,0,2-0.4,2-1.2c0-0.3-0.1-0.5-0.3-0.7c-0.3-0.3-0.6-0.5-0.9-0.6
		c-0.4-0.2-1-0.5-1.8-0.8c-0.8-0.3-1.6-0.7-2.3-1.2c-0.5-0.3-0.8-0.8-1.1-1.3c-0.2-0.6-0.4-1.2-0.3-1.8c0-1.1,0.5-2.2,1.4-2.8
		c1.2-0.7,2.6-1.1,4-1c1.7,0,3.3,0.4,4.8,1.1l-1.1,2.7c-0.7-0.3-1.3-0.5-1.9-0.7c-0.6-0.2-1.2-0.3-1.8-0.3c-1.1,0-1.6,0.3-1.6,0.9
		c0,0.4,0.2,0.7,0.5,0.9c0.7,0.4,1.5,0.8,2.3,1.1c0.8,0.3,1.6,0.7,2.3,1.2c0.5,0.3,0.8,0.8,1.1,1.3
		C686.8,880.7,687,881.3,686.9,881.9L686.9,881.9z M580.5,886h-3.7v-8c0.1-0.8-0.1-1.5-0.5-2.2c-0.4-0.5-1-0.8-1.7-0.7
		c-0.9-0.1-1.7,0.3-2.3,1c-0.5,1.1-0.8,2.3-0.7,3.5v6.4h-3.7v-13.6h2.8l0.5,1.7h0.2c0.4-0.7,1-1.2,1.7-1.5c0.8-0.3,1.6-0.5,2.5-0.5
		c1.3-0.1,2.6,0.4,3.6,1.3c0.9,1,1.3,2.4,1.2,3.7V886z M729.1,885.2c-1.5,0.1-2.9-0.6-3.8-1.7h-0.2c0.1,1.1,0.2,1.8,0.2,2v5.5h-3.7
		v-19.7h3l0.5,1.8h0.2c0.8-1.3,2.3-2.1,3.9-2c1.5-0.1,2.9,0.6,3.8,1.9c1,1.5,1.5,3.4,1.4,5.2c0,1.3-0.2,2.6-0.6,3.8
		c-0.4,1-1,1.8-1.8,2.4C731.1,885,730.1,885.3,729.1,885.2L729.1,885.2z M728,874.1c-0.8-0.1-1.5,0.3-2,0.8
		c-0.5,0.8-0.7,1.8-0.7,2.8v0.4c-0.1,1.1,0.1,2.2,0.7,3.1c0.5,0.7,1.3,1,2.1,1c1.7,0,2.5-1.4,2.5-4.1c0.1-1-0.1-2.1-0.6-3
		C729.6,874.4,728.8,874,728,874.1L728,874.1z M945,885.2c-4.2,0-6.4-2.3-6.4-7c-0.1-1.9,0.5-3.8,1.7-5.3c1.3-1.3,3.1-2,5-1.8
		c1.5,0,2.9,0.3,4.2,0.9l-1.1,2.9c-0.6-0.2-1.1-0.4-1.6-0.6c-0.5-0.1-1-0.2-1.5-0.2c-1.9,0-2.9,1.4-2.9,4.1c0,2.7,1,4,2.9,4
		c0.7,0,1.3-0.1,2-0.3c0.7-0.2,1.3-0.5,1.8-0.9v3.2c-0.6,0.4-1.2,0.6-1.8,0.8C946.5,885.2,945.8,885.3,945,885.2z M1107.1,881
		c0.1,1.2-0.5,2.4-1.5,3.2c-1.3,0.8-2.8,1.2-4.4,1.1c-0.9,0-1.7-0.1-2.5-0.2c-0.7-0.1-1.3-0.3-2-0.6v-3.1c0.8,0.3,1.5,0.6,2.3,0.8
		c0.7,0.2,1.5,0.3,2.3,0.3c1.4,0,2-0.4,2-1.2c0-0.3-0.1-0.5-0.3-0.7c-0.3-0.3-0.6-0.5-0.9-0.6c-0.4-0.2-1-0.5-1.8-0.8
		c-0.8-0.3-1.6-0.7-2.3-1.2c-0.5-0.3-0.8-0.8-1.1-1.3c-0.2-0.6-0.4-1.2-0.3-1.8c0-1.1,0.5-2.2,1.4-2.8c1.2-0.7,2.6-1.1,4-1
		c1.7,0,3.3,0.4,4.8,1.1l-1.1,2.7c-0.7-0.3-1.3-0.5-1.9-0.7c-0.6-0.2-1.2-0.3-1.8-0.3c-1.1,0-1.6,0.3-1.6,0.9c0,0.4,0.2,0.7,0.5,0.9
		c0.7,0.4,1.5,0.8,2.3,1.1c0.8,0.3,1.6,0.7,2.3,1.2c0.5,0.3,0.8,0.8,1.1,1.3C1107,879.7,1107.1,880.3,1107.1,881L1107.1,881z
		 M847.3,884l-0.7-1.9h-0.1c-0.5,0.7-1.2,1.3-1.9,1.6c-0.8,0.3-1.7,0.5-2.6,0.5c-1.1,0.1-2.3-0.3-3.1-1.1c-0.8-0.9-1.2-2-1.1-3.2
		c-0.1-1.3,0.5-2.5,1.5-3.2c1.4-0.8,3-1.2,4.6-1.1l2.4-0.1v-0.6c0.1-1-0.6-1.9-1.6-2.1c-0.2,0-0.4,0-0.5,0c-1.3,0.1-2.6,0.4-3.8,1
		l-1.2-2.5c1.6-0.8,3.4-1.3,5.2-1.2c1.5-0.1,3,0.3,4.2,1.2c1,0.9,1.6,2.3,1.5,3.6v9.1H847.3z M846.2,877.7l-1.4,0
		c-0.8,0-1.7,0.2-2.4,0.6c-0.5,0.4-0.8,1-0.8,1.6c0,1,0.6,1.6,1.8,1.6c0.8,0,1.5-0.2,2.1-0.7c0.5-0.5,0.8-1.2,0.8-2L846.2,877.7z"/>
</g>
</svg>
