<svg xmlns="http://www.w3.org/2000/svg" width="1919.551" height="344.706" viewBox="0 0 1919.551 344.706">
  <g id="Grupo_8365" data-name="Grupo 8365" transform="translate(0 -24.094)">
    <path id="Trazado_13366" data-name="Trazado 13366" d="M1176.437,682.332v39.89l-27.541-4.336v46.491h-39.575V642.29h-5.136V631.553h6.537V622.39H1041.7v9.163h6.537V642.29H1043.1V875.173h188.421V671.47Zm-97.351-50.779h6.8V642.29h-6.8Zm-12.55,0h6.8V642.29h-6.8Zm-12.549,0h6.8V642.29h-6.8ZM1096.912,837.2h-38.9v-7h38.9Zm0-17.442h-38.9v-7h38.9Zm0-17.439h-38.9v-7h38.9Zm0-17.442h-38.9v-7h38.9Zm0-17.439h-38.9v-7h38.9Zm0-17.442h-38.9v-7h38.9Zm0-17.439h-38.9v-7h38.9Zm0-17.442h-38.9v-7h38.9Zm0-17.439h-38.9v-7h38.9Zm0-17.442h-36.126v-7h36.126Zm0-17.439h-38.9v-7h38.9Zm1.522-20.5h-6.8V631.553h6.8ZM1219.01,863.432h-31.147v-6.523h31.147Zm0-16.245h-31.147v-6.52h31.147Zm0-16.242h-31.147v-6.523h31.147Zm0-16.245h-31.147v-6.52h31.147Zm0-16.242h-31.147v-6.523h31.147Zm0-16.245h-31.147v-6.523h31.147Zm0-16.245h-31.147v-6.52h31.147Zm0-16.242h-31.147V743.2h31.147Zm0-16.245h-31.147v-6.52h31.147Zm0-16.242h-31.147v-6.523h31.147Zm0-16.245h-31.147v-6.523h31.147Z" transform="translate(-745.79 -506.39)" fill="#376f1d" opacity="0.072"/>
    <path id="Trazado_13368" data-name="Trazado 13368" d="M2099.23,522.539v-66.4l-79.882-54.96v85.3h-6.6V425.7h-47.254v60.775h-28.635V363.3h-10.164V335.627h-18.915V292.31h-5.085v43.317h-18.915V363.3h-10.688v58.436H1819.4v14.422h5.443v198.5H2099.23v-.071h46.494V504.9Zm-254.661,87.442h-10.037v-4.29h10.037Zm0-15.993h-10.037V589.7h10.037Zm0-15.99h-10.037v-4.29h10.037Zm0-15.99h-10.037v-4.29h10.037Zm0-15.993h-10.037v-4.29h10.037Zm0-15.993h-10.037v-4.287h10.037Zm0-15.99h-10.037v-4.29h10.037Zm0-15.99h-10.037v-4.29h10.037Zm0-15.993h-10.037v-4.29h10.037Zm0-15.99h-10.037v-4.29h10.037Zm0-15.993h-10.037v-4.29h10.037Zm14.69,159.914h-10.037v-4.29h10.037Zm0-15.993h-10.037V589.7h10.037Zm0-15.99h-10.037v-4.29h10.037Zm0-15.99h-10.037v-4.29h10.037Zm0-15.993h-10.037v-4.29h10.037Zm0-15.993h-10.037v-4.287h10.037Zm0-15.99h-10.037v-4.29h10.037Zm0-15.99h-10.037v-4.29h10.037Zm0-15.993h-10.037v-4.29h10.037Zm0-15.99h-10.037v-4.29h10.037Zm0-15.993h-10.037v-4.29h10.037Zm13.828,159.914h-9.174v-4.29h9.174Zm0-15.993h-9.174V589.7h9.174Zm0-15.99h-9.174v-4.29h9.174Zm0-15.99h-9.174v-4.29h9.174Zm0-15.993h-9.174v-4.29h9.174Zm0-15.993h-9.174v-4.287h9.174Zm0-15.99h-9.174v-4.29h9.174Zm0-15.99h-9.174v-4.29h9.174Zm.863-15.993h-10.037v-4.29h10.037Zm0-15.99h-10.037v-4.29h10.037Zm0-15.993h-10.037v-4.29h10.037Zm50.885,142.1h-39.678V588.1h39.678Zm0-10.137h-39.678v-4.07h39.678Zm0-10.137h-39.678v-4.073h39.678Zm0-10.14h-39.678v-4.07h39.678Zm0-10.137h-39.678v-4.07h39.678Zm0-10.14h-39.678v-4.07h39.678Zm0-10.137h-39.678v-4.07h39.678Zm0-10.137h-39.678v-4.073h39.678Zm0-10.14h-39.678v-4.07h39.678Zm0-10.137h-39.678v-4.07h39.678Zm0-10.14h-39.678v-4.07h39.678Zm0-9.323h-39.678v-4.07h39.678Zm0-10.137h-39.678v-4.073h39.678Zm0-10.14h-39.678v-4.07h39.678Zm0-10.137h-39.678v-4.07h39.678Zm0-10.14h-39.678v-4.07h39.678Zm0-10.137h-39.678V426.7h39.678Zm0-10.137h-39.678v-4.073h39.678Zm0-10.14h-39.678v-4.07h39.678Zm0-10.137h-39.678v-4.07h39.678Zm0-10.14h-39.678v-4.07h39.678Zm0-10.137h-39.678v-4.07h39.678Zm80.178,237.512h-31.15v-6.523h31.15Zm0-16.245h-31.15v-6.52h31.15Zm0-16.242h-31.15v-6.523h31.15Zm0-16.245h-31.15v-6.52h31.15Zm0-16.242h-31.15v-6.523h31.15Zm0-16.245h-31.15v-6.523h31.15Zm0-16.245h-31.15v-6.52h31.15Zm0-16.242h-31.15v-6.523h31.15Zm0-17.409h-31.15v-5.356h31.15Zm0-15.078h-31.15v-6.523h31.15Zm0-16.245h-31.15v-6.52h31.15Zm21.81,34.438h9.928v3.424h-9.928Zm9.928,118.283h-9.928v-3.422h9.928Zm0-12.761h-9.928v-3.424h9.928Zm0-12.764h-9.928v-3.422h9.928Zm0-12.761h-9.928v-3.424h9.928Zm0-12.761h-9.928V553.4h9.928Zm0-12.764h-9.928V540.64h9.928Zm0-12.761h-9.928v-3.424h9.928Zm.635-12.764h-10.563v-3.422h10.563Zm0-12.761h-10.563v-3.424h10.563Zm0-25.525h-10.563v-3.424h10.563Zm22.67,127.622h-10.563v-3.422h10.563Zm0-12.761h-10.563v-3.424h10.563Zm0-12.764h-10.563v-3.422h10.563Zm0-12.761h-10.563v-3.424h10.563Zm0-12.761h-10.563V553.4h10.563Zm0-12.764h-10.563V540.64h10.563Zm0-12.761h-10.563v-3.424h10.563Zm0-12.764h-10.563v-3.422h10.563Zm0-12.761h-10.563v-3.424h10.563Zm0-12.761h-10.563V489.59h10.563Zm0-12.764h-10.563v-3.424h10.563Zm22.673,127.622h-10.563v-3.422h10.563Zm0-12.761h-10.563v-3.424h10.563Zm0-12.764h-10.563v-3.422h10.563Zm0-12.761h-10.563v-3.424h10.563Zm0-12.761h-10.563V553.4h10.563Zm0-12.764h-10.563V540.64h10.563Zm0-12.761h-10.563v-3.424h10.563Zm0-12.764h-10.563v-3.422h10.563Zm0-12.761h-10.563v-3.424h10.563Zm0-12.761h-10.563V489.59h10.563Zm0-12.764h-10.563v-3.424h10.563Z" transform="translate(-509.469 -268.216)" fill="#376f1d" opacity="0.062"/>
    <path id="Trazado_13367" data-name="Trazado 13367" d="M3294.221,734.776V710.423L3274.942,692.8l-19.281,17.621v25.688l-11.749.407v-82.93h-14.058V642.629h-11.828V626.044H3183.65v16.584h-8.189V586.342l-24.82.361v-19.55H3146.2v19.612l-13.925.2V561.11h-4.436v25.921l-5.777.084V567.153h-4.436V587.18l-22.866.331v89.16h-11.48V661.261H3068.7v-12.43l-26.656-23.324-26.659,23.324v12.43h-8.819v15.409h-5.76V830.8h111.323v-.35h197.734V734.233ZM3028.5,803.737H3017.94v-3.422H3028.5Zm0-12.761H3017.94v-3.424H3028.5Zm0-12.764H3017.94V774.79H3028.5Zm0-12.761H3017.94v-3.424H3028.5Zm0-12.761H3017.94v-3.424H3028.5Zm0-12.764H3017.94V736.5H3028.5Zm0-12.761H3017.94V723.74H3028.5Zm0-12.764H3017.94v-3.422H3028.5Zm0-12.761H3017.94v-3.424H3028.5Zm0-12.761H3017.94v-3.424H3028.5Zm0-12.764H3017.94V672.69H3028.5Zm22.673,127.622H3040.61v-3.422h10.563Zm0-12.761H3040.61v-3.424h10.563Zm0-12.764H3040.61V774.79h10.563Zm0-12.761H3040.61v-3.424h10.563Zm0-12.761H3040.61v-3.424h10.563Zm0-12.764H3040.61V736.5h10.563Zm0-12.761H3040.61V723.74h10.563Zm0-12.764H3040.61v-3.422h10.563Zm0-12.761H3040.61v-3.424h10.563Zm0-12.761H3040.61v-3.424h10.563Zm0-12.764H3040.61V672.69h10.563Zm22.673,127.622h-10.563v-3.422h10.563Zm0-12.761h-10.563v-3.424h10.563Zm0-12.764h-10.563V774.79h10.563Zm0-12.761h-10.563v-3.424h10.563Zm0-12.761h-10.563v-3.424h10.563Zm0-12.764h-10.563V736.5h10.563Zm0-12.761h-10.563V723.74h10.563Zm0-12.764h-10.563v-3.422h10.563Zm0-12.761h-10.563v-3.424h10.563Zm0-12.761h-10.563v-3.424h10.563Zm0-12.764h-10.563V672.69h10.563Zm92.1,88.533h-56.68v-4.29h56.68Zm0-15.64h-56.68V744.72h56.68Zm0-15.637h-56.68v-4.29h56.68Zm0-15.637h-56.68v-4.29h56.68Zm0-15.637h-56.68v-4.29h56.68Zm0-15.637h-56.68v-4.29h56.68Zm0-15.637h-56.68v-4.29h56.68Zm0-15.637h-56.68v-4.29h56.68Zm0-15.64h-56.68v-4.287h56.68Zm0-15.637h-56.68v-4.29h56.68Zm0-15.637h-56.68v-4.29h56.68Z" transform="translate(-1410.316 -463.08)" fill="#376f1d" opacity="0.12"/>
    <path id="Trazado_13365" data-name="Trazado 13365" d="M292.988,656.434v59.022h-3.622v-15.5h-45v15.5H228.881V725.7h-18.4v26.41l-70.893,2.29v53.69L94.88,808.8V890.98H308.69v-17h39.382V644.18Zm-8.764,227.925H223.576v-6.523h60.647Zm0-16.245H223.576v-6.52h60.647Zm0-16.242H223.576v-6.523h60.647Zm0-16.245H223.576v-6.52h60.647Zm0-16.245H223.576v-6.52h60.647Zm0-16.242H223.576v-6.523h60.647Zm0-16.245H223.576v-6.52h60.647Zm0-16.242H223.576v-6.523h60.647Zm0-16.245H223.576v-6.52h60.647Zm0-16.242H223.576v-6.523h60.647Zm29,93.064H308.69v-4.29h4.534Zm0-15.99H308.69v-4.29h4.534Zm0-15.993H308.69v-4.29h4.534Zm0-15.99H308.69v-4.29h4.534Zm0-15.993H308.69v-4.29h4.534Zm0-15.99H308.69v-4.29h4.534Zm0-15.993H308.69v-4.29h4.534Zm0-15.99H308.69v-3.834h-5.505V715h10.04Zm0-15.993h-10.04v-4.29h10.04Zm0-15.99h-10.04v-4.29h10.04Zm0-15.993h-10.04v-4.29h10.04Zm14.69,159.914h-10.04v-4.29h10.04Zm0-15.99h-10.04v-4.29h10.04Zm0-15.993h-10.04v-4.29h10.04Zm0-15.99h-10.04v-4.29h10.04Zm0-15.993h-10.04v-4.29h10.04Zm0-15.99h-10.04v-4.29h10.04Zm0-15.993h-10.04v-4.29h10.04Zm0-15.99h-10.04V715h10.04Zm0-15.993h-10.04v-4.29h10.04Zm0-15.99h-10.04v-4.29h10.04Zm0-15.993h-10.04v-4.29h10.04ZM342.6,831.228H332.566v-4.29H342.6Zm0-15.99H332.566v-4.29H342.6Zm0-15.993H332.566v-4.29H342.6Zm0-15.99H332.566v-4.29H342.6Zm0-15.993H332.566v-4.29H342.6Zm0-15.99H332.566v-4.29H342.6Zm0-15.993H332.566v-4.29H342.6Zm0-15.99H332.566V715H342.6Zm0-15.993H332.566v-4.29H342.6Zm0-15.99H332.566v-4.29H342.6Zm0-15.993H332.566v-4.29H342.6Z" transform="translate(-64.88 -524.18)" fill="#376f1d" opacity="0.066"/>
    <path id="Trazado_13319" data-name="Trazado 13319" d="M3294.221,734.776V710.423L3274.942,692.8l-19.281,17.621v25.688l-11.749.407v-82.93h-14.058V642.629h-11.828V626.044H3183.65v16.584h-8.189V523.971l-24.819.361-4.437.062-13.925.2-4.436.062-5.777.084-4.436.065-22.866.331V676.671h-11.48V661.261H3068.7V635.256h-53.315v26.005h-8.819v15.409h-5.76V830.8h111.323v-.35h197.734V734.233ZM3028.5,803.737H3017.94v-3.422H3028.5Zm0-12.761H3017.94v-3.424H3028.5Zm0-12.764H3017.94V774.79H3028.5Zm0-12.761H3017.94v-3.424H3028.5Zm0-12.761H3017.94v-3.424H3028.5Zm0-12.764H3017.94V736.5H3028.5Zm0-12.761H3017.94V723.74H3028.5Zm0-12.764H3017.94v-3.422H3028.5Zm0-12.761H3017.94v-3.424H3028.5Zm0-12.761H3017.94v-3.424H3028.5Zm0-12.764H3017.94V672.69H3028.5Zm22.673,127.622H3040.61v-3.422h10.563Zm0-12.761H3040.61v-3.424h10.563Zm0-12.764H3040.61V774.79h10.563Zm0-12.761H3040.61v-3.424h10.563Zm0-12.761H3040.61v-3.424h10.563Zm0-12.764H3040.61V736.5h10.563Zm0-12.761H3040.61V723.74h10.563Zm0-12.764H3040.61v-3.422h10.563Zm0-12.761H3040.61v-3.424h10.563Zm0-12.761H3040.61v-3.424h10.563Zm0-12.764H3040.61V672.69h10.563Zm22.673,127.622h-10.563v-3.422h10.563Zm0-12.761h-10.563v-3.424h10.563Zm0-12.764h-10.563V774.79h10.563Zm0-12.761h-10.563v-3.424h10.563Zm0-12.761h-10.563v-3.424h10.563Zm0-12.764h-10.563V736.5h10.563Zm0-12.761h-10.563V723.74h10.563Zm0-12.764h-10.563v-3.422h10.563Zm0-12.761h-10.563v-3.424h10.563Zm0-12.761h-10.563v-3.424h10.563Zm0-12.764h-10.563V672.69h10.563Zm92.1,88.533h-56.68v-4.29h56.68Zm0-15.64h-56.68V744.72h56.68Zm0-15.637h-56.68v-4.29h56.68Zm0-15.637h-56.68v-4.29h56.68Zm0-15.637h-56.68v-4.29h56.68Zm0-15.637h-56.68v-4.29h56.68Zm0-15.637h-56.68v-4.29h56.68Zm0-15.637h-56.68v-4.29h56.68Zm0-15.64h-56.68v-4.287h56.68Zm0-15.637h-56.68v-4.29h56.68Zm0-15.637h-56.68v-4.29h56.68Z" transform="translate(-2212.316 -464.08)" fill="#376f1d" opacity="0.087"/>
    <path id="Trazado_13318" data-name="Trazado 13318" d="M2099.23,522.539v-66.4l-79.882-54.96v85.3h-6.6V425.7h-47.254v60.775h-28.635V363.3h-10.164V335.627h-42.915V363.3h-10.688v58.436H1819.4v14.422h5.443v198.5H2099.23v-.071h46.494V504.9Zm-254.661,87.442h-10.037v-4.29h10.037Zm0-15.993h-10.037V589.7h10.037Zm0-15.99h-10.037v-4.29h10.037Zm0-15.99h-10.037v-4.29h10.037Zm0-15.993h-10.037v-4.29h10.037Zm0-15.993h-10.037v-4.287h10.037Zm0-15.99h-10.037v-4.29h10.037Zm0-15.99h-10.037v-4.29h10.037Zm0-15.993h-10.037v-4.29h10.037Zm0-15.99h-10.037v-4.29h10.037Zm0-15.993h-10.037v-4.29h10.037Zm14.69,159.914h-10.037v-4.29h10.037Zm0-15.993h-10.037V589.7h10.037Zm0-15.99h-10.037v-4.29h10.037Zm0-15.99h-10.037v-4.29h10.037Zm0-15.993h-10.037v-4.29h10.037Zm0-15.993h-10.037v-4.287h10.037Zm0-15.99h-10.037v-4.29h10.037Zm0-15.99h-10.037v-4.29h10.037Zm0-15.993h-10.037v-4.29h10.037Zm0-15.99h-10.037v-4.29h10.037Zm0-15.993h-10.037v-4.29h10.037Zm13.828,159.914h-9.174v-4.29h9.174Zm0-15.993h-9.174V589.7h9.174Zm0-15.99h-9.174v-4.29h9.174Zm0-15.99h-9.174v-4.29h9.174Zm0-15.993h-9.174v-4.29h9.174Zm0-15.993h-9.174v-4.287h9.174Zm0-15.99h-9.174v-4.29h9.174Zm0-15.99h-9.174v-4.29h9.174Zm.863-15.993h-10.037v-4.29h10.037Zm0-15.99h-10.037v-4.29h10.037Zm0-15.993h-10.037v-4.29h10.037Zm50.885,142.1h-39.678V588.1h39.678Zm0-10.137h-39.678v-4.07h39.678Zm0-10.137h-39.678v-4.073h39.678Zm0-10.14h-39.678v-4.07h39.678Zm0-10.137h-39.678v-4.07h39.678Zm0-10.14h-39.678v-4.07h39.678Zm0-10.137h-39.678v-4.07h39.678Zm0-10.137h-39.678v-4.073h39.678Zm0-10.14h-39.678v-4.07h39.678Zm0-10.137h-39.678v-4.07h39.678Zm0-10.14h-39.678v-4.07h39.678Zm0-9.323h-39.678v-4.07h39.678Zm0-10.137h-39.678v-4.073h39.678Zm0-10.14h-39.678v-4.07h39.678Zm0-10.137h-39.678v-4.07h39.678Zm0-10.14h-39.678v-4.07h39.678Zm0-10.137h-39.678V426.7h39.678Zm0-10.137h-39.678v-4.073h39.678Zm0-10.14h-39.678v-4.07h39.678Zm0-10.137h-39.678v-4.07h39.678Zm0-10.14h-39.678v-4.07h39.678Zm0-10.137h-39.678v-4.07h39.678Zm80.178,237.512h-31.15v-6.523h31.15Zm0-16.245h-31.15v-6.52h31.15Zm0-16.242h-31.15v-6.523h31.15Zm0-16.245h-31.15v-6.52h31.15Zm0-16.242h-31.15v-6.523h31.15Zm0-16.245h-31.15v-6.523h31.15Zm0-16.245h-31.15v-6.52h31.15Zm0-16.242h-31.15v-6.523h31.15Zm0-17.409h-31.15v-5.356h31.15Zm0-15.078h-31.15v-6.523h31.15Zm0-16.245h-31.15v-6.52h31.15Zm21.81,34.438h9.928v3.424h-9.928Zm9.928,118.283h-9.928v-3.422h9.928Zm0-12.761h-9.928v-3.424h9.928Zm0-12.764h-9.928v-3.422h9.928Zm0-12.761h-9.928v-3.424h9.928Zm0-12.761h-9.928V553.4h9.928Zm0-12.764h-9.928V540.64h9.928Zm0-12.761h-9.928v-3.424h9.928Zm.635-12.764h-10.563v-3.422h10.563Zm0-12.761h-10.563v-3.424h10.563Zm0-25.525h-10.563v-3.424h10.563Zm22.67,127.622h-10.563v-3.422h10.563Zm0-12.761h-10.563v-3.424h10.563Zm0-12.764h-10.563v-3.422h10.563Zm0-12.761h-10.563v-3.424h10.563Zm0-12.761h-10.563V553.4h10.563Zm0-12.764h-10.563V540.64h10.563Zm0-12.761h-10.563v-3.424h10.563Zm0-12.764h-10.563v-3.422h10.563Zm0-12.761h-10.563v-3.424h10.563Zm0-12.761h-10.563V489.59h10.563Zm0-12.764h-10.563v-3.424h10.563Zm22.673,127.622h-10.563v-3.422h10.563Zm0-12.761h-10.563v-3.424h10.563Zm0-12.764h-10.563v-3.422h10.563Zm0-12.761h-10.563v-3.424h10.563Zm0-12.761h-10.563V553.4h10.563Zm0-12.764h-10.563V540.64h10.563Zm0-12.761h-10.563v-3.424h10.563Zm0-12.764h-10.563v-3.422h10.563Zm0-12.761h-10.563v-3.424h10.563Zm0-12.761h-10.563V489.59h10.563Zm0-12.764h-10.563v-3.424h10.563Z" transform="translate(-1358.469 -268.216)" fill="#376f1d" opacity="0.096"/>
    <path id="Trazado_13310" data-name="Trazado 13310" d="M1176.437,682.332v39.89l-27.541-4.336v46.491h-39.575V642.29h-5.136V631.553h6.537V622.39H1041.7v9.163h6.537V642.29H1043.1V875.173h188.421V671.47Zm-97.351-50.779h6.8V642.29h-6.8Zm-12.55,0h6.8V642.29h-6.8Zm-12.549,0h6.8V642.29h-6.8ZM1096.912,837.2h-38.9v-7h38.9Zm0-17.442h-38.9v-7h38.9Zm0-17.439h-38.9v-7h38.9Zm0-17.442h-38.9v-7h38.9Zm0-17.439h-38.9v-7h38.9Zm0-17.442h-38.9v-7h38.9Zm0-17.439h-38.9v-7h38.9Zm0-17.442h-38.9v-7h38.9Zm0-17.439h-38.9v-7h38.9Zm0-17.442h-36.126v-7h36.126Zm0-17.439h-38.9v-7h38.9Zm1.522-20.5h-6.8V631.553h6.8ZM1219.01,863.432h-31.147v-6.523h31.147Zm0-16.245h-31.147v-6.52h31.147Zm0-16.242h-31.147v-6.523h31.147Zm0-16.245h-31.147v-6.52h31.147Zm0-16.242h-31.147v-6.523h31.147Zm0-16.245h-31.147v-6.523h31.147Zm0-16.245h-31.147v-6.52h31.147Zm0-16.242h-31.147V743.2h31.147Zm0-16.245h-31.147v-6.52h31.147Zm0-16.242h-31.147v-6.523h31.147Zm0-16.245h-31.147v-6.523h31.147Z" transform="translate(-776.79 -506.39)" fill="#376f1d" opacity="0.12"/>
    <path id="Trazado_13312" data-name="Trazado 13312" d="M2099.23,522.539v-66.4l-79.882-54.96v85.3h-6.6V425.7h-47.254v60.775h-28.635V363.3h-10.164V335.627h-18.915V292.31h-5.085v43.317h-18.915V363.3h-10.688v58.436H1819.4v14.422h5.443v198.5H2099.23v-.071h46.494V504.9Zm-254.661,87.442h-10.037v-4.29h10.037Zm0-15.993h-10.037V589.7h10.037Zm0-15.99h-10.037v-4.29h10.037Zm0-15.99h-10.037v-4.29h10.037Zm0-15.993h-10.037v-4.29h10.037Zm0-15.993h-10.037v-4.287h10.037Zm0-15.99h-10.037v-4.29h10.037Zm0-15.99h-10.037v-4.29h10.037Zm0-15.993h-10.037v-4.29h10.037Zm0-15.99h-10.037v-4.29h10.037Zm0-15.993h-10.037v-4.29h10.037Zm14.69,159.914h-10.037v-4.29h10.037Zm0-15.993h-10.037V589.7h10.037Zm0-15.99h-10.037v-4.29h10.037Zm0-15.99h-10.037v-4.29h10.037Zm0-15.993h-10.037v-4.29h10.037Zm0-15.993h-10.037v-4.287h10.037Zm0-15.99h-10.037v-4.29h10.037Zm0-15.99h-10.037v-4.29h10.037Zm0-15.993h-10.037v-4.29h10.037Zm0-15.99h-10.037v-4.29h10.037Zm0-15.993h-10.037v-4.29h10.037Zm13.828,159.914h-9.174v-4.29h9.174Zm0-15.993h-9.174V589.7h9.174Zm0-15.99h-9.174v-4.29h9.174Zm0-15.99h-9.174v-4.29h9.174Zm0-15.993h-9.174v-4.29h9.174Zm0-15.993h-9.174v-4.287h9.174Zm0-15.99h-9.174v-4.29h9.174Zm0-15.99h-9.174v-4.29h9.174Zm.863-15.993h-10.037v-4.29h10.037Zm0-15.99h-10.037v-4.29h10.037Zm0-15.993h-10.037v-4.29h10.037Zm50.885,142.1h-39.678V588.1h39.678Zm0-10.137h-39.678v-4.07h39.678Zm0-10.137h-39.678v-4.073h39.678Zm0-10.14h-39.678v-4.07h39.678Zm0-10.137h-39.678v-4.07h39.678Zm0-10.14h-39.678v-4.07h39.678Zm0-10.137h-39.678v-4.07h39.678Zm0-10.137h-39.678v-4.073h39.678Zm0-10.14h-39.678v-4.07h39.678Zm0-10.137h-39.678v-4.07h39.678Zm0-10.14h-39.678v-4.07h39.678Zm0-9.323h-39.678v-4.07h39.678Zm0-10.137h-39.678v-4.073h39.678Zm0-10.14h-39.678v-4.07h39.678Zm0-10.137h-39.678v-4.07h39.678Zm0-10.14h-39.678v-4.07h39.678Zm0-10.137h-39.678V426.7h39.678Zm0-10.137h-39.678v-4.073h39.678Zm0-10.14h-39.678v-4.07h39.678Zm0-10.137h-39.678v-4.07h39.678Zm0-10.14h-39.678v-4.07h39.678Zm0-10.137h-39.678v-4.07h39.678Zm80.178,237.512h-31.15v-6.523h31.15Zm0-16.245h-31.15v-6.52h31.15Zm0-16.242h-31.15v-6.523h31.15Zm0-16.245h-31.15v-6.52h31.15Zm0-16.242h-31.15v-6.523h31.15Zm0-16.245h-31.15v-6.523h31.15Zm0-16.245h-31.15v-6.52h31.15Zm0-16.242h-31.15v-6.523h31.15Zm0-17.409h-31.15v-5.356h31.15Zm0-15.078h-31.15v-6.523h31.15Zm0-16.245h-31.15v-6.52h31.15Zm21.81,34.438h9.928v3.424h-9.928Zm9.928,118.283h-9.928v-3.422h9.928Zm0-12.761h-9.928v-3.424h9.928Zm0-12.764h-9.928v-3.422h9.928Zm0-12.761h-9.928v-3.424h9.928Zm0-12.761h-9.928V553.4h9.928Zm0-12.764h-9.928V540.64h9.928Zm0-12.761h-9.928v-3.424h9.928Zm.635-12.764h-10.563v-3.422h10.563Zm0-12.761h-10.563v-3.424h10.563Zm0-25.525h-10.563v-3.424h10.563Zm22.67,127.622h-10.563v-3.422h10.563Zm0-12.761h-10.563v-3.424h10.563Zm0-12.764h-10.563v-3.422h10.563Zm0-12.761h-10.563v-3.424h10.563Zm0-12.761h-10.563V553.4h10.563Zm0-12.764h-10.563V540.64h10.563Zm0-12.761h-10.563v-3.424h10.563Zm0-12.764h-10.563v-3.422h10.563Zm0-12.761h-10.563v-3.424h10.563Zm0-12.761h-10.563V489.59h10.563Zm0-12.764h-10.563v-3.424h10.563Zm22.673,127.622h-10.563v-3.422h10.563Zm0-12.761h-10.563v-3.424h10.563Zm0-12.764h-10.563v-3.422h10.563Zm0-12.761h-10.563v-3.424h10.563Zm0-12.761h-10.563V553.4h10.563Zm0-12.764h-10.563V540.64h10.563Zm0-12.761h-10.563v-3.424h10.563Zm0-12.764h-10.563v-3.422h10.563Zm0-12.761h-10.563v-3.424h10.563Zm0-12.761h-10.563V489.59h10.563Zm0-12.764h-10.563v-3.424h10.563Z" transform="translate(-536.469 -268.216)" fill="#376f1d" opacity="0.12"/>
    <path id="Trazado_13313" data-name="Trazado 13313" d="M292.988,656.434v59.022h-3.622v-15.5h-45v15.5H228.881V725.7h-18.4v26.41l-70.893,2.29v53.69L94.88,808.8V890.98H308.69v-17h39.382V644.18Zm-8.764,227.925H223.576v-6.523h60.647Zm0-16.245H223.576v-6.52h60.647Zm0-16.242H223.576v-6.523h60.647Zm0-16.245H223.576v-6.52h60.647Zm0-16.245H223.576v-6.52h60.647Zm0-16.242H223.576v-6.523h60.647Zm0-16.245H223.576v-6.52h60.647Zm0-16.242H223.576v-6.523h60.647Zm0-16.245H223.576v-6.52h60.647Zm0-16.242H223.576v-6.523h60.647Zm29,93.064H308.69v-4.29h4.534Zm0-15.99H308.69v-4.29h4.534Zm0-15.993H308.69v-4.29h4.534Zm0-15.99H308.69v-4.29h4.534Zm0-15.993H308.69v-4.29h4.534Zm0-15.99H308.69v-4.29h4.534Zm0-15.993H308.69v-4.29h4.534Zm0-15.99H308.69v-3.834h-5.505V715h10.04Zm0-15.993h-10.04v-4.29h10.04Zm0-15.99h-10.04v-4.29h10.04Zm0-15.993h-10.04v-4.29h10.04Zm14.69,159.914h-10.04v-4.29h10.04Zm0-15.99h-10.04v-4.29h10.04Zm0-15.993h-10.04v-4.29h10.04Zm0-15.99h-10.04v-4.29h10.04Zm0-15.993h-10.04v-4.29h10.04Zm0-15.99h-10.04v-4.29h10.04Zm0-15.993h-10.04v-4.29h10.04Zm0-15.99h-10.04V715h10.04Zm0-15.993h-10.04v-4.29h10.04Zm0-15.99h-10.04v-4.29h10.04Zm0-15.993h-10.04v-4.29h10.04ZM342.6,831.228H332.566v-4.29H342.6Zm0-15.99H332.566v-4.29H342.6Zm0-15.993H332.566v-4.29H342.6Zm0-15.99H332.566v-4.29H342.6Zm0-15.993H332.566v-4.29H342.6Zm0-15.99H332.566v-4.29H342.6Zm0-15.993H332.566v-4.29H342.6Zm0-15.99H332.566V715H342.6Zm0-15.993H332.566v-4.29H342.6Zm0-15.99H332.566v-4.29H342.6Zm0-15.993H332.566v-4.29H342.6Z" transform="translate(-94.88 -522.18)" fill="#376f1d" opacity="0.12"/>
    <path id="Trazado_13317" data-name="Trazado 13317" d="M3294.221,734.776V710.423L3274.942,692.8l-19.281,17.621v25.688l-11.749.407v-82.93h-14.058V642.629h-11.828V626.044H3183.65v16.584h-8.189V586.342l-24.82.361v-19.55H3146.2v19.612l-13.925.2V561.11h-4.436v25.921l-5.777.084V567.153h-4.436V587.18l-22.866.331v89.16h-11.48V661.261H3068.7v-12.43l-26.656-23.324-26.659,23.324v12.43h-8.819v15.409h-5.76V830.8h111.323v-.35h197.734V734.233ZM3028.5,803.737H3017.94v-3.422H3028.5Zm0-12.761H3017.94v-3.424H3028.5Zm0-12.764H3017.94V774.79H3028.5Zm0-12.761H3017.94v-3.424H3028.5Zm0-12.761H3017.94v-3.424H3028.5Zm0-12.764H3017.94V736.5H3028.5Zm0-12.761H3017.94V723.74H3028.5Zm0-12.764H3017.94v-3.422H3028.5Zm0-12.761H3017.94v-3.424H3028.5Zm0-12.761H3017.94v-3.424H3028.5Zm0-12.764H3017.94V672.69H3028.5Zm22.673,127.622H3040.61v-3.422h10.563Zm0-12.761H3040.61v-3.424h10.563Zm0-12.764H3040.61V774.79h10.563Zm0-12.761H3040.61v-3.424h10.563Zm0-12.761H3040.61v-3.424h10.563Zm0-12.764H3040.61V736.5h10.563Zm0-12.761H3040.61V723.74h10.563Zm0-12.764H3040.61v-3.422h10.563Zm0-12.761H3040.61v-3.424h10.563Zm0-12.761H3040.61v-3.424h10.563Zm0-12.764H3040.61V672.69h10.563Zm22.673,127.622h-10.563v-3.422h10.563Zm0-12.761h-10.563v-3.424h10.563Zm0-12.764h-10.563V774.79h10.563Zm0-12.761h-10.563v-3.424h10.563Zm0-12.761h-10.563v-3.424h10.563Zm0-12.764h-10.563V736.5h10.563Zm0-12.761h-10.563V723.74h10.563Zm0-12.764h-10.563v-3.422h10.563Zm0-12.761h-10.563v-3.424h10.563Zm0-12.761h-10.563v-3.424h10.563Zm0-12.764h-10.563V672.69h10.563Zm92.1,88.533h-56.68v-4.29h56.68Zm0-15.64h-56.68V744.72h56.68Zm0-15.637h-56.68v-4.29h56.68Zm0-15.637h-56.68v-4.29h56.68Zm0-15.637h-56.68v-4.29h56.68Zm0-15.637h-56.68v-4.29h56.68Zm0-15.637h-56.68v-4.29h56.68Zm0-15.637h-56.68v-4.29h56.68Zm0-15.64h-56.68v-4.287h56.68Zm0-15.637h-56.68v-4.29h56.68Zm0-15.637h-56.68v-4.29h56.68Z" transform="translate(-1390.316 -464.08)" fill="#376f1d" opacity="0.12"/>
    <path id="Trazado_13320" data-name="Trazado 13320" d="M1145.724,668.669v30.8l-21.263-3.348v35.894h-30.554V637.754h-3.966v-8.289h5.047V622.39H1041.7v7.075h5.047v8.289h-3.966v179.8h145.472V660.283Zm-75.161-39.2h5.25v8.289h-5.25Zm-9.689,0h5.25v8.289h-5.25Zm-9.689,0h5.25v8.289h-5.25Zm33.141,158.768h-30.035v-5.407h30.035Zm0-13.466h-30.035V769.36h30.035Zm0-13.464h-30.035V755.9h30.035Zm0-13.466h-30.035v-5.4h30.035Zm0-13.464h-30.035v-5.407h30.035Zm0-13.466h-30.035v-5.4h30.035Zm0-13.464h-30.035v-5.407h30.035Zm0-13.466h-30.035v-5.4h30.035Zm0-13.464h-30.035v-5.407h30.035Zm0-13.466h-27.891v-5.4h27.891Zm0-13.464h-30.035v-5.407h30.035Zm1.175-15.829h-5.25v-8.289h5.25Zm93.091,170.734h-24.047v-5.036h24.047Zm0-12.542h-24.047v-5.034h24.047Zm0-12.54h-24.047V778.37h24.047Zm0-12.542h-24.047V765.83h24.047Zm0-12.54h-24.047v-5.036h24.047Zm0-12.542h-24.047v-5.036h24.047Zm0-12.542h-24.047v-5.034h24.047Zm0-12.54h-24.047v-5.036h24.047Zm0-12.542h-24.047v-5.034h24.047Zm0-12.54h-24.047v-5.036h24.047Zm0-12.542h-24.047v-5.036h24.047Z" transform="translate(81.478 -448.77)" fill="#376f1d" opacity="0.12"/>
    <path id="Trazado_13321" data-name="Trazado 13321" d="M402.331,855.755c3.947-16.663,25.14-13.155,25.14-13.155s5.846-13.593,23.678-14.762S476.728,841.8,476.728,841.8a21.165,21.165,0,0,1,17.17-3.656c6.943,1.535,10.747,9.283,10.747,9.283s17.759-7.527,27.625,8.331Z" transform="translate(1135.669 -730.884)" fill="#fff" opacity="0.656"/>
    <path id="Trazado_13322" data-name="Trazado 13322" d="M402.331,855.755c3.947-16.663,25.14-13.155,25.14-13.155s5.846-13.593,23.678-14.762S476.728,841.8,476.728,841.8a21.165,21.165,0,0,1,17.17-3.656c6.943,1.535,10.747,9.283,10.747,9.283s17.759-7.527,27.625,8.331Z" transform="translate(1232.669 -760.884)" fill="#fff"/>
    <path id="Trazado_13323" data-name="Trazado 13323" d="M402.331,846.661c2.664-11.247,16.97-8.879,16.97-8.879s3.946-9.175,15.983-9.965,17.265,9.422,17.265,9.422a14.286,14.286,0,0,1,11.59-2.468c4.686,1.036,7.254,6.266,7.254,6.266s11.987-5.081,18.647,5.624Z" transform="translate(-355.331 -730.79)" fill="#fff"/>
    <path id="Trazado_13324" data-name="Trazado 13324" d="M402.331,846.661c2.664-11.247,16.97-8.879,16.97-8.879s3.946-9.175,15.983-9.965,17.265,9.422,17.265,9.422a14.286,14.286,0,0,1,11.59-2.468c4.686,1.036,7.254,6.266,7.254,6.266s11.987-5.081,18.647,5.624Z" transform="translate(-275.331 -769.79)" fill="#fff"/>
    <g id="Grupo_8353" data-name="Grupo 8353" transform="translate(41.24 -658.14)">
      <path id="Trazado_13373" data-name="Trazado 13373" d="M137.311,1076.64l-4.433,37.654H113.193l-4.433-37.654Z" transform="translate(0 -88.474)" fill="#fdf292"/>
      <ellipse id="Elipse_513" data-name="Elipse 513" cx="14.251" cy="3.602" rx="14.251" ry="3.602" transform="translate(108.792 984.734)" fill="#ebe291"/>
      <path id="Trazado_13374" data-name="Trazado 13374" d="M120.5,1073.57a.773.773,0,0,1-.063-.287c0-.632.79-1.145,1.764-1.145a2.388,2.388,0,0,1,1.1.257,1.539,1.539,0,0,1,2.982-.34,1.263,1.263,0,0,1,2.093.351,1.747,1.747,0,0,1,3.233-.207,1.96,1.96,0,0,1,1.887-1.3,1.928,1.928,0,0,1,1.953,1.575,2.037,2.037,0,0,1,1.482-.584,1.674,1.674,0,0,1,1.817,1.329l.283.054a1.269,1.269,0,0,1,1.365-.671,1.8,1.8,0,0,1,1.362.712c.118.127.375.581.228.72.152.053.3.106.441.161-2.537.994-6.953,1.652-11.98,1.652s-9.443-.658-11.98-1.652C118.718,1073.34,119.216,1072.84,120.5,1073.57Z" transform="translate(-7.404 -84.096)" fill="#34211f"/>
      <path id="Trazado_13375" data-name="Trazado 13375" d="M130.277,991.646a1.654,1.654,0,0,1-.785-.224l-.082-.043.01-.092a75.36,75.36,0,0,0,.464-9.077c-.164-4.474-3.633-8.734-5.117-10.358a32.956,32.956,0,0,0-2.617-2.421c-2.069-1.79-4.207-3.641-4.227-5.092a1.4,1.4,0,0,1,.493-1.08,2.506,2.506,0,0,1,1.749-.645c2.576,0,5.893,2.923,7.886,6.951,1.834,3.706,2.622,8.938,2.857,10.812.339-1.263,1.057-4.009,1.392-5.764.264-1.381.435-2.772.6-4.118.44-3.564.855-6.931,2.924-8.724a2.454,2.454,0,0,1,1.591-.564,2.127,2.127,0,0,1,1.746.831c.371.5.7,1.459.175,3.155a64.366,64.366,0,0,1-3.07,6.686c-2.162,4.366-4.613,9.315-4.909,11.612a17.117,17.117,0,0,0-.269,3.52c.016.745.041,1.872-.009,4.355l0,.092-.086.032a2.022,2.022,0,0,1-.717.156Z" transform="translate(-6.988 -0.433)" fill="#365d13"/>
      <path id="Trazado_13376" data-name="Trazado 13376" d="M136.983,960.909c1.319,0,2.642,1.079,1.793,3.811-1.016,3.269-7.489,14.483-7.984,18.32s-.155,1.7-.279,7.89a1.921,1.921,0,0,1-.67.147,1.522,1.522,0,0,1-.723-.209,75.046,75.046,0,0,0,.464-9.1c-.139-3.806-2.716-7.778-5.153-10.445-2.46-2.692-8.495-6.452-6.359-8.4a2.384,2.384,0,0,1,1.658-.609c2.363,0,5.692,2.688,7.765,6.876,2.274,4.6,2.924,11.466,2.924,11.466s1.128-4.091,1.578-6.452c.975-5.106.7-10.352,3.481-12.766a2.329,2.329,0,0,1,1.5-.531Zm0-.269h0a2.589,2.589,0,0,0-1.679.6c-2.108,1.827-2.526,5.218-2.97,8.809-.166,1.344-.337,2.733-.6,4.109-.284,1.49-.846,3.7-1.216,5.1a36.8,36.8,0,0,0-2.78-10.182c-2.015-4.071-5.382-7.026-8.007-7.026a2.639,2.639,0,0,0-1.84.68,1.527,1.527,0,0,0-.537,1.181c.02,1.511,2.182,3.382,4.273,5.192a32.925,32.925,0,0,1,2.606,2.409c1.474,1.613,4.92,5.843,5.082,10.273a75.263,75.263,0,0,1-.462,9.057l-.021.183.164.086a1.78,1.78,0,0,0,.848.24,2.171,2.171,0,0,0,.763-.164l.172-.064,0-.183c.05-2.486.025-3.615.009-4.361a17.048,17.048,0,0,1,.268-3.5c.293-2.274,2.739-7.212,4.9-11.569a64.363,64.363,0,0,0,3.078-6.706c.543-1.749.194-2.747-.2-3.275a2.26,2.26,0,0,0-1.855-.886Z" transform="translate(-6.555)" fill="#03643b"/>
    </g>
    <g id="Grupo_8354" data-name="Grupo 8354" transform="translate(7.24 -658.14)">
      <path id="Trazado_13373-2" data-name="Trazado 13373" d="M137.311,1076.64l-4.433,37.654H113.193l-4.433-37.654Z" transform="translate(0 -88.474)" fill="#fdf292"/>
      <ellipse id="Elipse_513-2" data-name="Elipse 513" cx="14.251" cy="3.602" rx="14.251" ry="3.602" transform="translate(108.792 984.734)" fill="#ebe291"/>
      <path id="Trazado_13374-2" data-name="Trazado 13374" d="M120.5,1073.57a.773.773,0,0,1-.063-.287c0-.632.79-1.145,1.764-1.145a2.388,2.388,0,0,1,1.1.257,1.539,1.539,0,0,1,2.982-.34,1.263,1.263,0,0,1,2.093.351,1.747,1.747,0,0,1,3.233-.207,1.96,1.96,0,0,1,1.887-1.3,1.928,1.928,0,0,1,1.953,1.575,2.037,2.037,0,0,1,1.482-.584,1.674,1.674,0,0,1,1.817,1.329l.283.054a1.269,1.269,0,0,1,1.365-.671,1.8,1.8,0,0,1,1.362.712c.118.127.375.581.228.72.152.053.3.106.441.161-2.537.994-6.953,1.652-11.98,1.652s-9.443-.658-11.98-1.652C118.718,1073.34,119.216,1072.84,120.5,1073.57Z" transform="translate(-7.404 -84.096)" fill="#34211f"/>
      <path id="Trazado_13375-2" data-name="Trazado 13375" d="M130.277,991.646a1.654,1.654,0,0,1-.785-.224l-.082-.043.01-.092a75.36,75.36,0,0,0,.464-9.077c-.164-4.474-3.633-8.734-5.117-10.358a32.956,32.956,0,0,0-2.617-2.421c-2.069-1.79-4.207-3.641-4.227-5.092a1.4,1.4,0,0,1,.493-1.08,2.506,2.506,0,0,1,1.749-.645c2.576,0,5.893,2.923,7.886,6.951,1.834,3.706,2.622,8.938,2.857,10.812.339-1.263,1.057-4.009,1.392-5.764.264-1.381.435-2.772.6-4.118.44-3.564.855-6.931,2.924-8.724a2.454,2.454,0,0,1,1.591-.564,2.127,2.127,0,0,1,1.746.831c.371.5.7,1.459.175,3.155a64.366,64.366,0,0,1-3.07,6.686c-2.162,4.366-4.613,9.315-4.909,11.612a17.117,17.117,0,0,0-.269,3.52c.016.745.041,1.872-.009,4.355l0,.092-.086.032a2.022,2.022,0,0,1-.717.156Z" transform="translate(-6.988 -0.433)" fill="#365d13"/>
      <path id="Trazado_13376-2" data-name="Trazado 13376" d="M136.983,960.909c1.319,0,2.642,1.079,1.793,3.811-1.016,3.269-7.489,14.483-7.984,18.32s-.155,1.7-.279,7.89a1.921,1.921,0,0,1-.67.147,1.522,1.522,0,0,1-.723-.209,75.046,75.046,0,0,0,.464-9.1c-.139-3.806-2.716-7.778-5.153-10.445-2.46-2.692-8.495-6.452-6.359-8.4a2.384,2.384,0,0,1,1.658-.609c2.363,0,5.692,2.688,7.765,6.876,2.274,4.6,2.924,11.466,2.924,11.466s1.128-4.091,1.578-6.452c.975-5.106.7-10.352,3.481-12.766a2.329,2.329,0,0,1,1.5-.531Zm0-.269h0a2.589,2.589,0,0,0-1.679.6c-2.108,1.827-2.526,5.218-2.97,8.809-.166,1.344-.337,2.733-.6,4.109-.284,1.49-.846,3.7-1.216,5.1a36.8,36.8,0,0,0-2.78-10.182c-2.015-4.071-5.382-7.026-8.007-7.026a2.639,2.639,0,0,0-1.84.68,1.527,1.527,0,0,0-.537,1.181c.02,1.511,2.182,3.382,4.273,5.192a32.925,32.925,0,0,1,2.606,2.409c1.474,1.613,4.92,5.843,5.082,10.273a75.263,75.263,0,0,1-.462,9.057l-.021.183.164.086a1.78,1.78,0,0,0,.848.24,2.171,2.171,0,0,0,.763-.164l.172-.064,0-.183c.05-2.486.025-3.615.009-4.361a17.048,17.048,0,0,1,.268-3.5c.293-2.274,2.739-7.212,4.9-11.569a64.363,64.363,0,0,0,3.078-6.706c.543-1.749.194-2.747-.2-3.275a2.26,2.26,0,0,0-1.855-.886Z" transform="translate(-6.555)" fill="#03643b"/>
    </g>
    <g id="Grupo_8355" data-name="Grupo 8355" transform="translate(80.24 -658.14)">
      <path id="Trazado_13373-3" data-name="Trazado 13373" d="M137.311,1076.64l-4.433,37.654H113.193l-4.433-37.654Z" transform="translate(0 -88.474)" fill="#fdf292"/>
      <ellipse id="Elipse_513-3" data-name="Elipse 513" cx="14.251" cy="3.602" rx="14.251" ry="3.602" transform="translate(108.792 984.734)" fill="#ebe291"/>
      <path id="Trazado_13374-3" data-name="Trazado 13374" d="M120.5,1073.57a.773.773,0,0,1-.063-.287c0-.632.79-1.145,1.764-1.145a2.388,2.388,0,0,1,1.1.257,1.539,1.539,0,0,1,2.982-.34,1.263,1.263,0,0,1,2.093.351,1.747,1.747,0,0,1,3.233-.207,1.96,1.96,0,0,1,1.887-1.3,1.928,1.928,0,0,1,1.953,1.575,2.037,2.037,0,0,1,1.482-.584,1.674,1.674,0,0,1,1.817,1.329l.283.054a1.269,1.269,0,0,1,1.365-.671,1.8,1.8,0,0,1,1.362.712c.118.127.375.581.228.72.152.053.3.106.441.161-2.537.994-6.953,1.652-11.98,1.652s-9.443-.658-11.98-1.652C118.718,1073.34,119.216,1072.84,120.5,1073.57Z" transform="translate(-7.404 -84.096)" fill="#34211f"/>
      <path id="Trazado_13375-3" data-name="Trazado 13375" d="M130.277,991.646a1.654,1.654,0,0,1-.785-.224l-.082-.043.01-.092a75.36,75.36,0,0,0,.464-9.077c-.164-4.474-3.633-8.734-5.117-10.358a32.956,32.956,0,0,0-2.617-2.421c-2.069-1.79-4.207-3.641-4.227-5.092a1.4,1.4,0,0,1,.493-1.08,2.506,2.506,0,0,1,1.749-.645c2.576,0,5.893,2.923,7.886,6.951,1.834,3.706,2.622,8.938,2.857,10.812.339-1.263,1.057-4.009,1.392-5.764.264-1.381.435-2.772.6-4.118.44-3.564.855-6.931,2.924-8.724a2.454,2.454,0,0,1,1.591-.564,2.127,2.127,0,0,1,1.746.831c.371.5.7,1.459.175,3.155a64.366,64.366,0,0,1-3.07,6.686c-2.162,4.366-4.613,9.315-4.909,11.612a17.117,17.117,0,0,0-.269,3.52c.016.745.041,1.872-.009,4.355l0,.092-.086.032a2.022,2.022,0,0,1-.717.156Z" transform="translate(-6.988 -0.433)" fill="#365d13"/>
      <path id="Trazado_13376-3" data-name="Trazado 13376" d="M136.983,960.909c1.319,0,2.642,1.079,1.793,3.811-1.016,3.269-7.489,14.483-7.984,18.32s-.155,1.7-.279,7.89a1.921,1.921,0,0,1-.67.147,1.522,1.522,0,0,1-.723-.209,75.046,75.046,0,0,0,.464-9.1c-.139-3.806-2.716-7.778-5.153-10.445-2.46-2.692-8.495-6.452-6.359-8.4a2.384,2.384,0,0,1,1.658-.609c2.363,0,5.692,2.688,7.765,6.876,2.274,4.6,2.924,11.466,2.924,11.466s1.128-4.091,1.578-6.452c.975-5.106.7-10.352,3.481-12.766a2.329,2.329,0,0,1,1.5-.531Zm0-.269h0a2.589,2.589,0,0,0-1.679.6c-2.108,1.827-2.526,5.218-2.97,8.809-.166,1.344-.337,2.733-.6,4.109-.284,1.49-.846,3.7-1.216,5.1a36.8,36.8,0,0,0-2.78-10.182c-2.015-4.071-5.382-7.026-8.007-7.026a2.639,2.639,0,0,0-1.84.68,1.527,1.527,0,0,0-.537,1.181c.02,1.511,2.182,3.382,4.273,5.192a32.925,32.925,0,0,1,2.606,2.409c1.474,1.613,4.92,5.843,5.082,10.273a75.263,75.263,0,0,1-.462,9.057l-.021.183.164.086a1.78,1.78,0,0,0,.848.24,2.171,2.171,0,0,0,.763-.164l.172-.064,0-.183c.05-2.486.025-3.615.009-4.361a17.048,17.048,0,0,1,.268-3.5c.293-2.274,2.739-7.212,4.9-11.569a64.363,64.363,0,0,0,3.078-6.706c.543-1.749.194-2.747-.2-3.275a2.26,2.26,0,0,0-1.855-.886Z" transform="translate(-6.555)" fill="#03643b"/>
    </g>
    <g id="Grupo_8356" data-name="Grupo 8356" transform="translate(1595.24 -658.14)">
      <path id="Trazado_13373-4" data-name="Trazado 13373" d="M137.311,1076.64l-4.433,37.654H113.193l-4.433-37.654Z" transform="translate(0 -88.474)" fill="#fdf292"/>
      <ellipse id="Elipse_513-4" data-name="Elipse 513" cx="14.251" cy="3.602" rx="14.251" ry="3.602" transform="translate(108.792 984.734)" fill="#ebe291"/>
      <path id="Trazado_13374-4" data-name="Trazado 13374" d="M120.5,1073.57a.773.773,0,0,1-.063-.287c0-.632.79-1.145,1.764-1.145a2.388,2.388,0,0,1,1.1.257,1.539,1.539,0,0,1,2.982-.34,1.263,1.263,0,0,1,2.093.351,1.747,1.747,0,0,1,3.233-.207,1.96,1.96,0,0,1,1.887-1.3,1.928,1.928,0,0,1,1.953,1.575,2.037,2.037,0,0,1,1.482-.584,1.674,1.674,0,0,1,1.817,1.329l.283.054a1.269,1.269,0,0,1,1.365-.671,1.8,1.8,0,0,1,1.362.712c.118.127.375.581.228.72.152.053.3.106.441.161-2.537.994-6.953,1.652-11.98,1.652s-9.443-.658-11.98-1.652C118.718,1073.34,119.216,1072.84,120.5,1073.57Z" transform="translate(-7.404 -84.096)" fill="#34211f"/>
      <path id="Trazado_13375-4" data-name="Trazado 13375" d="M130.277,991.646a1.654,1.654,0,0,1-.785-.224l-.082-.043.01-.092a75.36,75.36,0,0,0,.464-9.077c-.164-4.474-3.633-8.734-5.117-10.358a32.956,32.956,0,0,0-2.617-2.421c-2.069-1.79-4.207-3.641-4.227-5.092a1.4,1.4,0,0,1,.493-1.08,2.506,2.506,0,0,1,1.749-.645c2.576,0,5.893,2.923,7.886,6.951,1.834,3.706,2.622,8.938,2.857,10.812.339-1.263,1.057-4.009,1.392-5.764.264-1.381.435-2.772.6-4.118.44-3.564.855-6.931,2.924-8.724a2.454,2.454,0,0,1,1.591-.564,2.127,2.127,0,0,1,1.746.831c.371.5.7,1.459.175,3.155a64.366,64.366,0,0,1-3.07,6.686c-2.162,4.366-4.613,9.315-4.909,11.612a17.117,17.117,0,0,0-.269,3.52c.016.745.041,1.872-.009,4.355l0,.092-.086.032a2.022,2.022,0,0,1-.717.156Z" transform="translate(-6.988 -0.433)" fill="#365d13"/>
      <path id="Trazado_13376-4" data-name="Trazado 13376" d="M136.983,960.909c1.319,0,2.642,1.079,1.793,3.811-1.016,3.269-7.489,14.483-7.984,18.32s-.155,1.7-.279,7.89a1.921,1.921,0,0,1-.67.147,1.522,1.522,0,0,1-.723-.209,75.046,75.046,0,0,0,.464-9.1c-.139-3.806-2.716-7.778-5.153-10.445-2.46-2.692-8.495-6.452-6.359-8.4a2.384,2.384,0,0,1,1.658-.609c2.363,0,5.692,2.688,7.765,6.876,2.274,4.6,2.924,11.466,2.924,11.466s1.128-4.091,1.578-6.452c.975-5.106.7-10.352,3.481-12.766a2.329,2.329,0,0,1,1.5-.531Zm0-.269h0a2.589,2.589,0,0,0-1.679.6c-2.108,1.827-2.526,5.218-2.97,8.809-.166,1.344-.337,2.733-.6,4.109-.284,1.49-.846,3.7-1.216,5.1a36.8,36.8,0,0,0-2.78-10.182c-2.015-4.071-5.382-7.026-8.007-7.026a2.639,2.639,0,0,0-1.84.68,1.527,1.527,0,0,0-.537,1.181c.02,1.511,2.182,3.382,4.273,5.192a32.925,32.925,0,0,1,2.606,2.409c1.474,1.613,4.92,5.843,5.082,10.273a75.263,75.263,0,0,1-.462,9.057l-.021.183.164.086a1.78,1.78,0,0,0,.848.24,2.171,2.171,0,0,0,.763-.164l.172-.064,0-.183c.05-2.486.025-3.615.009-4.361a17.048,17.048,0,0,1,.268-3.5c.293-2.274,2.739-7.212,4.9-11.569a64.363,64.363,0,0,0,3.078-6.706c.543-1.749.194-2.747-.2-3.275a2.26,2.26,0,0,0-1.855-.886Z" transform="translate(-6.555)" fill="#03643b"/>
    </g>
    <g id="Grupo_8357" data-name="Grupo 8357" transform="translate(1558.24 -658.14)">
      <path id="Trazado_13373-5" data-name="Trazado 13373" d="M137.311,1076.64l-4.433,37.654H113.193l-4.433-37.654Z" transform="translate(0 -88.474)" fill="#fdf292"/>
      <ellipse id="Elipse_513-5" data-name="Elipse 513" cx="14.251" cy="3.602" rx="14.251" ry="3.602" transform="translate(108.792 984.734)" fill="#ebe291"/>
      <path id="Trazado_13374-5" data-name="Trazado 13374" d="M120.5,1073.57a.773.773,0,0,1-.063-.287c0-.632.79-1.145,1.764-1.145a2.388,2.388,0,0,1,1.1.257,1.539,1.539,0,0,1,2.982-.34,1.263,1.263,0,0,1,2.093.351,1.747,1.747,0,0,1,3.233-.207,1.96,1.96,0,0,1,1.887-1.3,1.928,1.928,0,0,1,1.953,1.575,2.037,2.037,0,0,1,1.482-.584,1.674,1.674,0,0,1,1.817,1.329l.283.054a1.269,1.269,0,0,1,1.365-.671,1.8,1.8,0,0,1,1.362.712c.118.127.375.581.228.72.152.053.3.106.441.161-2.537.994-6.953,1.652-11.98,1.652s-9.443-.658-11.98-1.652C118.718,1073.34,119.216,1072.84,120.5,1073.57Z" transform="translate(-7.404 -84.096)" fill="#34211f"/>
      <path id="Trazado_13375-5" data-name="Trazado 13375" d="M130.277,991.646a1.654,1.654,0,0,1-.785-.224l-.082-.043.01-.092a75.36,75.36,0,0,0,.464-9.077c-.164-4.474-3.633-8.734-5.117-10.358a32.956,32.956,0,0,0-2.617-2.421c-2.069-1.79-4.207-3.641-4.227-5.092a1.4,1.4,0,0,1,.493-1.08,2.506,2.506,0,0,1,1.749-.645c2.576,0,5.893,2.923,7.886,6.951,1.834,3.706,2.622,8.938,2.857,10.812.339-1.263,1.057-4.009,1.392-5.764.264-1.381.435-2.772.6-4.118.44-3.564.855-6.931,2.924-8.724a2.454,2.454,0,0,1,1.591-.564,2.127,2.127,0,0,1,1.746.831c.371.5.7,1.459.175,3.155a64.366,64.366,0,0,1-3.07,6.686c-2.162,4.366-4.613,9.315-4.909,11.612a17.117,17.117,0,0,0-.269,3.52c.016.745.041,1.872-.009,4.355l0,.092-.086.032a2.022,2.022,0,0,1-.717.156Z" transform="translate(-6.988 -0.433)" fill="#365d13"/>
      <path id="Trazado_13376-5" data-name="Trazado 13376" d="M136.983,960.909c1.319,0,2.642,1.079,1.793,3.811-1.016,3.269-7.489,14.483-7.984,18.32s-.155,1.7-.279,7.89a1.921,1.921,0,0,1-.67.147,1.522,1.522,0,0,1-.723-.209,75.046,75.046,0,0,0,.464-9.1c-.139-3.806-2.716-7.778-5.153-10.445-2.46-2.692-8.495-6.452-6.359-8.4a2.384,2.384,0,0,1,1.658-.609c2.363,0,5.692,2.688,7.765,6.876,2.274,4.6,2.924,11.466,2.924,11.466s1.128-4.091,1.578-6.452c.975-5.106.7-10.352,3.481-12.766a2.329,2.329,0,0,1,1.5-.531Zm0-.269h0a2.589,2.589,0,0,0-1.679.6c-2.108,1.827-2.526,5.218-2.97,8.809-.166,1.344-.337,2.733-.6,4.109-.284,1.49-.846,3.7-1.216,5.1a36.8,36.8,0,0,0-2.78-10.182c-2.015-4.071-5.382-7.026-8.007-7.026a2.639,2.639,0,0,0-1.84.68,1.527,1.527,0,0,0-.537,1.181c.02,1.511,2.182,3.382,4.273,5.192a32.925,32.925,0,0,1,2.606,2.409c1.474,1.613,4.92,5.843,5.082,10.273a75.263,75.263,0,0,1-.462,9.057l-.021.183.164.086a1.78,1.78,0,0,0,.848.24,2.171,2.171,0,0,0,.763-.164l.172-.064,0-.183c.05-2.486.025-3.615.009-4.361a17.048,17.048,0,0,1,.268-3.5c.293-2.274,2.739-7.212,4.9-11.569a64.363,64.363,0,0,0,3.078-6.706c.543-1.749.194-2.747-.2-3.275a2.26,2.26,0,0,0-1.855-.886Z" transform="translate(-6.555)" fill="#03643b"/>
    </g>
  </g>
</svg>
