<svg xmlns="http://www.w3.org/2000/svg" width="496.38" height="346.108" viewBox="0 0 496.38 346.108">
  <g id="Grupo_9323" data-name="Grupo 9323" transform="translate(1546 1714.658)">
    <path id="Trazado_13383" data-name="Trazado 13383" d="M219.605,12.129c121.285,0,219.605-48.707,219.605,49.093S340.89,238.3,219.605,238.3,0,159.022,0,61.222,98.321,12.129,219.605,12.129Z" transform="matrix(0.996, 0.087, -0.087, 0.996, -1516.79, -1674.996)" fill="#fff" opacity="0.273"/>
    <path id="Trazado_13400" data-name="Trazado 13400" d="M203.146,11.22c112.194,0,203.146-45.056,203.146,45.413s-90.951,163.81-203.146,163.81S0,147.1,0,56.633,90.951,11.22,203.146,11.22Z" transform="matrix(0.94, 0.342, -0.342, 0.94, -1431.408, -1714.658)" fill="#fff" opacity="0.149"/>
    <path id="path1061" d="M732.933,1016.292a6.141,6.141,0,0,0-6.155,6.155v10.119H953.616v-10.119a6.141,6.141,0,0,0-6.155-6.155Z" transform="translate(-2146.142 -2569.608)" fill="#7a4522"/>
    <path id="path1063" d="M654.1,1097.345H916.17l-22.095,26.034H676.2Z" transform="translate(-2091.08 -2631.015)" fill="#64381c"/>
    <path id="path1065" d="M728.4,1101.875l15.173,121.336c1.248,9.979,8.1,18.154,18.154,18.154h159.4c10.057,0,16.9-8.175,18.151-18.154l15.174-121.336Z" transform="translate(-2147.373 -2634.447)" fill="#7a4522"/>
    <g id="g1079" transform="translate(-1404.697 -1530.823)">
      <path id="path1067" d="M788.57,1109.089h.954a1.279,1.279,0,0,1,1.282,1.282v12.543a1.28,1.28,0,0,1-1.282,1.282h-.954a1.28,1.28,0,0,1-1.282-1.282v-12.543A1.28,1.28,0,0,1,788.57,1109.089Z" transform="translate(-787.288 -1109.089)" fill="#64381c"/>
      <path id="path1069" d="M948.633,1109.089h.954a1.28,1.28,0,0,1,1.283,1.282v12.543a1.28,1.28,0,0,1-1.283,1.282h-.954a1.28,1.28,0,0,1-1.283-1.282v-12.543A1.28,1.28,0,0,1,948.633,1109.089Z" transform="translate(-908.553 -1109.089)" fill="#64381c"/>
      <path id="path1071" d="M1108.7,1109.089h.954a1.279,1.279,0,0,1,1.282,1.282v12.543a1.28,1.28,0,0,1-1.282,1.282h-.954a1.28,1.28,0,0,1-1.283-1.282v-12.543A1.28,1.28,0,0,1,1108.7,1109.089Z" transform="translate(-1029.819 -1109.089)" fill="#64381c"/>
      <path id="path1073" d="M1268.757,1109.089h.954a1.28,1.28,0,0,1,1.282,1.282v12.543a1.28,1.28,0,0,1-1.282,1.282h-.954a1.28,1.28,0,0,1-1.282-1.282v-12.543A1.28,1.28,0,0,1,1268.757,1109.089Z" transform="translate(-1151.084 -1109.089)" fill="#64381c"/>
      <path id="path1075" d="M1428.819,1109.089h.954a1.28,1.28,0,0,1,1.283,1.282v12.543a1.28,1.28,0,0,1-1.283,1.282h-.954a1.28,1.28,0,0,1-1.283-1.282v-12.543A1.28,1.28,0,0,1,1428.819,1109.089Z" transform="translate(-1272.349 -1109.089)" fill="#64381c"/>
      <path id="path1077" d="M1588.881,1109.089h.954a1.279,1.279,0,0,1,1.282,1.282v12.543a1.279,1.279,0,0,1-1.282,1.282h-.954a1.28,1.28,0,0,1-1.282-1.282v-12.543A1.28,1.28,0,0,1,1588.881,1109.089Z" transform="translate(-1393.614 -1109.089)" fill="#64381c"/>
    </g>
    <path id="path1081" d="M649.893,1066.045H914v12.526H649.893Z" transform="translate(-2087.893 -2607.302)" fill="#935329"/>
    <g id="g1101" transform="translate(-1335.362 -1473.449)">
      <g id="g1087" transform="translate(0 22.628)">
        <path id="path1083" d="M1129.229,1503.535h-13l-5.854,10.139c-.035.061-.068.125-.1.189s-.058.136-.082.206a2.19,2.19,0,0,0-.061.214,2.116,2.116,0,0,0-.039.218q-.014.11-.017.221c0,.074,0,.148,0,.222s.015.147.027.22.029.145.049.216a2.264,2.264,0,0,0,.161.413l0,.008h0a2.152,2.152,0,0,0,.112.192q.061.093.13.179a2.209,2.209,0,0,0,.147.166,2.113,2.113,0,0,0,.163.15,2.159,2.159,0,0,0,.177.133c.061.041.125.08.19.115s.132.066.2.094a2.1,2.1,0,0,0,.208.075c.071.021.143.039.215.053s.146.025.22.032.138.01.206.01h16.938Z" transform="translate(-1101.17 -1487.928)" fill="#fff"/>
        <path id="path1085" d="M1093.989,1453.2l-5.489-14.05-14.912,2.271,4.37,2.523-4.322,7.487a2.145,2.145,0,0,0-.1.2,2.107,2.107,0,0,0-.081.206,2.15,2.15,0,0,0-.06.213c-.016.072-.029.145-.038.219s-.014.147-.016.221,0,.148.005.222a2.114,2.114,0,0,0,.028.22c.013.073.029.145.05.216s.044.142.071.211.058.135.092.2a2.14,2.14,0,0,0,.111.192l7.658,13.265a2.154,2.154,0,0,1-.091-.2c-.027-.069-.051-.14-.071-.211s-.036-.143-.049-.216-.022-.146-.027-.22a2.064,2.064,0,0,1,0-.222c0-.074.008-.147.017-.221s.023-.146.039-.218.037-.144.061-.214.051-.138.082-.205a2.117,2.117,0,0,1,.1-.189l5.854-10.139,2.355-4.081Z" transform="translate(-1073.339 -1439.147)" fill="#fff"/>
      </g>
      <g id="g1093" transform="translate(31.13 19.262)">
        <path id="path1089" d="M1230.927,1431.994l6.5,11.262h11.708c.071,0,.142,0,.212-.011a2.143,2.143,0,0,0,.219-.032,2.211,2.211,0,0,0,.215-.054c.071-.022.14-.047.208-.075a2.162,2.162,0,0,0,.2-.1c.065-.035.128-.073.19-.115s.12-.086.177-.133.111-.1.163-.15a2.22,2.22,0,0,0,.147-.167,2.153,2.153,0,0,0,.13-.179l.005-.007h0q.06-.093.11-.192a2.212,2.212,0,0,0,.09-.2,2.107,2.107,0,0,0,.07-.21,2.217,2.217,0,0,0,.049-.217c.013-.073.021-.146.027-.22s.007-.148,0-.222-.009-.148-.018-.221a2.163,2.163,0,0,0-.039-.218,2.206,2.206,0,0,0-.061-.213q-.036-.105-.082-.206t-.1-.184h0l-8.469-14.669Z" transform="translate(-1223.86 -1425.262)" fill="#fff"/>
        <path id="path1091" d="M1211.2,1482.721l-9.423,11.779,9.423,11.779v-5.047h8.645a2.2,2.2,0,0,0,.221-.012,2.082,2.082,0,0,0,.219-.033,2.194,2.194,0,0,0,.215-.054c.071-.022.14-.047.208-.076a2.2,2.2,0,0,0,.2-.1q.1-.053.19-.116a2.08,2.08,0,0,0,.176-.134c.057-.048.111-.1.162-.151s.1-.109.147-.167a2.211,2.211,0,0,0,.128-.18,2.167,2.167,0,0,0,.111-.192l7.658-13.265a2.206,2.206,0,0,1-.13.18c-.046.058-.1.114-.147.167a2.185,2.185,0,0,1-.163.151q-.085.071-.177.133a2.034,2.034,0,0,1-.19.115c-.065.035-.132.067-.2.1a2.1,2.1,0,0,1-.208.075,2.16,2.16,0,0,1-.215.054c-.073.014-.146.025-.219.032s-.141.01-.212.01H1211.2Z" transform="translate(-1201.772 -1468.794)" fill="#fff"/>
      </g>
      <g id="g1099" transform="translate(10.778 0)">
        <path id="path1095" d="M1129.466,1372.343l6.5-11.262-5.853-10.139c-.035-.061-.074-.121-.115-.179a2.187,2.187,0,0,0-.137-.174,2.211,2.211,0,0,0-.154-.159q-.081-.076-.169-.143a2.195,2.195,0,0,0-.183-.125q-.095-.058-.194-.107c-.066-.032-.135-.061-.2-.086s-.14-.047-.212-.066-.144-.033-.218-.044-.146-.019-.22-.022h-.009a2.1,2.1,0,0,0-.222,0c-.074,0-.147.012-.221.023s-.145.026-.217.045-.142.041-.212.066-.137.055-.2.087a2.2,2.2,0,0,0-.195.107q-.094.059-.182.126a2.134,2.134,0,0,0-.169.143,2.2,2.2,0,0,0-.154.159,2.174,2.174,0,0,0-.137.175q-.06.085-.112.174h0l-8.469,14.668Z" transform="translate(-1117.805 -1348.853)" fill="#fff"/>
        <path id="path1097" d="M1169.109,1363.643l14.912,2.271,5.489-14.05-4.37,2.523-4.323-7.487a2.067,2.067,0,0,0-.12-.186,2.111,2.111,0,0,0-.138-.173,2.183,2.183,0,0,0-.155-.159c-.054-.05-.111-.1-.17-.143s-.12-.086-.183-.124-.129-.074-.2-.106a2.106,2.106,0,0,0-.2-.086,2.212,2.212,0,0,0-.212-.065c-.072-.018-.145-.033-.218-.044a2.18,2.18,0,0,0-.22-.021c-.074,0-.148,0-.222,0h-15.317c.074,0,.147.011.22.023s.146.026.218.044.142.041.212.066.137.055.2.087a2.025,2.025,0,0,1,.194.107c.063.039.124.081.183.125s.115.093.169.143a2.153,2.153,0,0,1,.292.333c.042.058.08.117.115.179l5.854,10.139,2.356,4.08Z" transform="translate(-1152.395 -1345.792)" fill="#fff"/>
      </g>
    </g>
    <g id="g1107" transform="translate(-1355.663 -1512.277)">
      <path id="rect1103" d="M992.65,1185.6h0a3.062,3.062,0,0,0-3.062,3.062v94.8a3.062,3.062,0,0,0,3.062,3.062h0a3.062,3.062,0,0,0,3.062-3.062v-94.8A3.062,3.062,0,0,0,992.65,1185.6Z" transform="translate(-989.588 -1185.604)" fill="#64381c"/>
      <path id="path1105" d="M992.649,1185.6v100.921a3.056,3.056,0,0,1-3.062-3.064v-94.794a3.056,3.056,0,0,1,3.062-3.063Z" transform="translate(-989.587 -1185.603)" fill="#935329"/>
    </g>
    <g id="g1113" transform="translate(-1387.618 -1512.277)">
      <path id="rect1109" d="M860.816,1185.6h0a3.062,3.062,0,0,0-3.062,3.062v94.8a3.062,3.062,0,0,0,3.062,3.062h0a3.062,3.062,0,0,0,3.062-3.062v-94.8A3.062,3.062,0,0,0,860.816,1185.6Z" transform="translate(-857.754 -1185.604)" fill="#64381c"/>
      <path id="path1111" d="M860.815,1185.6v100.921a3.056,3.056,0,0,1-3.062-3.064v-94.794a3.056,3.056,0,0,1,3.062-3.063Z" transform="translate(-857.753 -1185.603)" fill="#935329"/>
    </g>
    <g id="g1119" transform="translate(-1230.397 -1512.277)">
      <rect id="rect1115" width="6.124" height="100.919" rx="3.062" transform="translate(0 0.001)" fill="#64381c"/>
      <path id="path1117" d="M1509.448,1185.6v100.921a3.056,3.056,0,0,1-3.062-3.064v-94.794a3.056,3.056,0,0,1,3.062-3.063Z" transform="translate(-1506.386 -1185.603)" fill="#935329"/>
    </g>
    <g id="g1125" transform="translate(-1262.352 -1512.277)">
      <rect id="rect1121" width="6.124" height="100.919" rx="3.062" transform="translate(0 0.001)" fill="#64381c"/>
      <path id="path1123" d="M1377.614,1185.6v100.921a3.056,3.056,0,0,1-3.062-3.064v-94.794a3.056,3.056,0,0,1,3.062-3.063Z" transform="translate(-1374.552 -1185.603)" fill="#935329"/>
    </g>
    <g id="g1141" transform="translate(-1346.004 -1498.963)">
      <path id="path1127" d="M1035.39,1242.695a2.488,2.488,0,0,0-2.117,1.008,5.717,5.717,0,0,0,0,5.669,2.735,2.735,0,0,0,4.242,0,5.716,5.716,0,0,0,0-5.669A2.5,2.5,0,0,0,1035.39,1242.695Zm0-2.164a5.878,5.878,0,0,1,4.374,1.6,6.934,6.934,0,0,1,0,8.818,6.787,6.787,0,0,1-8.749,0,6.935,6.935,0,0,1,0-8.818A5.9,5.9,0,0,1,1035.39,1240.531Z" transform="translate(-1029.434 -1240.531)" fill="#fff"/>
      <path id="path1129" d="M1092.1,1246.529a2.047,2.047,0,0,0,1.342-.349,1.43,1.43,0,0,0,.411-1.148,1.4,1.4,0,0,0-.411-1.132,2.082,2.082,0,0,0-1.342-.341h-1.256v2.971Zm-1.256,2.063v4.382h-2.986V1241.4h4.561a5.785,5.785,0,0,1,3.35.768,2.783,2.783,0,0,1,1.07,2.428,3.033,3.033,0,0,1-.558,1.885,3.189,3.189,0,0,1-1.667,1.086,2.179,2.179,0,0,1,1.094.636,5.721,5.721,0,0,1,.985,1.489l1.621,3.288h-3.18l-1.411-2.877a3.177,3.177,0,0,0-.869-1.187,1.928,1.928,0,0,0-1.164-.318Z" transform="translate(-1073.7 -1241.186)" fill="#fff"/>
      <path id="path1131" d="M1146.615,1251.46a10.666,10.666,0,0,1-2.319.814,11.229,11.229,0,0,1-2.482.272,6.365,6.365,0,0,1-4.584-1.613,5.8,5.8,0,0,1-1.691-4.39,5.729,5.729,0,0,1,1.722-4.405,6.643,6.643,0,0,1,4.716-1.605,10.921,10.921,0,0,1,2.21.217,9.354,9.354,0,0,1,2,.644v2.4a8.721,8.721,0,0,0-1.931-.822,6.97,6.97,0,0,0-1.916-.271,3.657,3.657,0,0,0-2.754,1,3.927,3.927,0,0,0-.961,2.846,4.015,4.015,0,0,0,.93,2.839,3.435,3.435,0,0,0,2.645,1,6.373,6.373,0,0,0,.861-.054,3.392,3.392,0,0,0,.721-.186v-2.249h-1.823v-2h4.653Z" transform="translate(-1109.82 -1240.532)" fill="#fff"/>
      <path id="path1133" d="M1194.759,1250.865h-4.669l-.737,2.11h-3l4.289-11.579h3.56l4.289,11.579h-3Zm-3.924-2.148h3.172l-1.582-4.607Z" transform="translate(-1148.317 -1241.186)" fill="#fff"/>
      <path id="path1135" d="M1242.733,1241.4h3.335l4.211,7.942V1241.4h2.831v11.579h-3.335l-4.211-7.942v7.942h-2.831Z" transform="translate(-1191.032 -1241.186)" fill="#fff"/>
      <path id="path1137" d="M1297.641,1241.4h2.986v11.579h-2.986Z" transform="translate(-1232.631 -1241.186)" fill="#fff"/>
      <path id="path1139" d="M1329.186,1251.684a7.635,7.635,0,0,1-1.714.644,7.842,7.842,0,0,1-1.862.217,6.364,6.364,0,0,1-4.583-1.613,6.544,6.544,0,0,1,0-8.78,6.345,6.345,0,0,1,4.583-1.621,7.83,7.83,0,0,1,1.862.217,7.63,7.63,0,0,1,1.714.644v2.4a6.513,6.513,0,0,0-1.636-.83,5.433,5.433,0,0,0-1.7-.264,3.2,3.2,0,0,0-2.513,1.024,4.8,4.8,0,0,0,0,5.639,3.2,3.2,0,0,0,2.513,1.024,5.429,5.429,0,0,0,1.7-.264,6.512,6.512,0,0,0,1.636-.83Z" transform="translate(-1249.068 -1240.531)" fill="#fff"/>
    </g>
    <g id="g1588" transform="translate(-1656.106 -2409.19)">
      <g id="g1584" transform="translate(141.694 850.274)">
        <path id="path1568" d="M246.378,936.068c-1.909.488-15.634-6.144-21.035,1.465,5.482,7,13.035,18.148,13.035,29.622,0,9.4-6.5,18.148-10.4,24.984,5.157,5.615,16.243-.773,18.436-.448,2.68-.325,12.954,6.022,18.111.407-3.9-6.836-9.38-15.869-9.38-25.269,0-11.475,6.538-22.3,12.02-29.3C261.769,929.924,248.612,936.638,246.378,936.068Z" transform="translate(-225.343 -922.685)" fill="#ffc982"/>
        <path id="path1570" d="M289.971,894.007a5.49,5.49,0,0,1,4.142.285c-4.995,3.581-2.558,10.05-1.381,15.422h-2.315c-.934-5.208-4.67-10.457-.447-15.706Z" transform="translate(-270.561 -893.726)" fill="#6c5353"/>
        <path id="path1572" d="M291.243,1140.189c-1.665,0-4.508,1.912-3.533,2.97.812.855,2.193-1.14,3.492-1.14,1.259.041,2.761,1.506,3.533.651C295.71,1141.654,292.867,1140.189,291.243,1140.189Z" transform="translate(-270.208 -1071.589)" fill="#241c1c"/>
        <path id="path1574" d="M298.587,1142.016a.989.989,0,0,1,1.015,0,3.915,3.915,0,0,0,0,3.5,1.108,1.108,0,0,1-1.015,0A14.429,14.429,0,0,1,298.587,1142.016Z" transform="translate(-278.121 -1072.806)" fill="#241c1c"/>
        <path id="path1576" d="M233.871,933.868a9.093,9.093,0,0,0-1.056,0c-.081,0-.163.041-.244.041a7.3,7.3,0,0,0-.934.081h-.122c-.325.082-.69.122-1.015.2l-.487.122a1.032,1.032,0,0,1-.284.081,2.293,2.293,0,0,1-.487.163l-.244.122a4.241,4.241,0,0,0-.406.163l-.244.122c-.163.081-.365.2-.528.285a1.734,1.734,0,0,0-.284.2,2461.446,2461.446,0,0,0-.568.407,1.236,1.236,0,0,0-.284.2,4.638,4.638,0,0,0-.447.448l-.244.244a1.773,1.773,0,0,0-.244.285c-.122.163-.284.325-.406.488,3.614-.041,9.949,1.912,10.355,5.778a4.233,4.233,0,0,1-.284,1.424,8.38,8.38,0,0,1,3.817-.9,7.666,7.666,0,0,1,5.6,2.238,8.464,8.464,0,0,1,6.213-2.441,9.221,9.221,0,0,1,5.117,1.465,3.624,3.624,0,0,1-.284-1.465c.365-3.866,9.3-6.8,11.289-6.1-.081-.2-.2-.244-.325-.448a9.308,9.308,0,0,0-1.1-1.1,5.775,5.775,0,0,0-.609-.448h0c-.244-.163-.447-.285-.65-.407a10.243,10.243,0,0,0-1.381-.61,14.055,14.055,0,0,0-6.132-.529c-.081,0-.2.041-.284.041-.447.041-.893.081-1.34.163a.244.244,0,0,1-.163.041c-.487.082-.934.163-1.381.244a.142.142,0,0,1-.081.041c-.447.081-.934.2-1.381.285-.244.082-.447.122-.691.2-.69.163-1.381.326-1.949.489-.365.122-.731.2-1.056.285h0c-.2.041-.365.081-.528.122s-.325.081-.447.122c-.162,0-.284.041-.447.041a.892.892,0,0,1-.325.041.511.511,0,0,1-.244.041h-.041a.513.513,0,0,0-.244-.041h-.568c-.081-.041-.2-.041-.325-.081-.2-.041-.406-.081-.65-.122-.122-.041-.244-.041-.365-.081-1.015-.244-2.355-.61-3.817-.976l-.487-.122-.609-.122c-.406-.082-.812-.163-1.178-.244a10.377,10.377,0,0,0-1.1-.2.245.245,0,0,1-.163-.041c-.487-.041-.974-.122-1.462-.163-.163,0-.325-.041-.487-.041a1.124,1.124,0,0,1-.365-.041h-.934Z" transform="translate(-225.343 -922.682)" fill="#cc1b06"/>
        <path id="path1578" d="M245.79,1115.19c-.2,1.994-2.558,3.54-5.441,3.54a5.6,5.6,0,0,1-2.639-.57c-1.015,1.668-1.99,3.337-2.883,4.842,5.157,5.615,16.243-.773,18.436-.448a6.086,6.086,0,0,1,2.355.448c.284.081.65.2,1.015.326,4.264,1.383,10.924,3.825,14.741-.366-1.1-1.912-2.315-3.988-3.492-6.185a5,5,0,0,1-3.289.9,6.011,6.011,0,0,1-4.792-2.034,11.161,11.161,0,0,1-6.741,2.075,10.865,10.865,0,0,1-7.269-2.523Z" transform="translate(-232.187 -1053.548)" fill="#cb1d05"/>
        <path id="path1580" d="M287.839,1034.251c-.487,1.627-1.584,3.255-2.274,3.052-.731-.163-.812-2.075-.325-3.662.487-1.628,1.3-2.36,2.03-2.157C287.96,1031.647,288.285,1032.664,287.839,1034.251Z" transform="translate(-268.346 -993.117)" fill="#241c1c"/>
        <path id="path1582" d="M305.132,1034.251c.447,1.627,1.543,3.255,2.274,3.052.69-.163.772-2.075.284-3.662-.447-1.628-1.3-2.36-1.99-2.157C304.969,1031.647,304.644,1032.664,305.132,1034.251Z" transform="translate(-282.756 -993.117)" fill="#241c1c"/>
      </g>
      <path id="path1586" d="M110.264,889.824l1.769-.091-.156-2.992v-.093l.011-.351-1.756-.091-.026.442v.093Zm1.809-7.052.066-1.3v-.011l.325-2.095-1.743-.273-.338,2.186v.093l-.078,1.314Zm-.95,14.143,1.743-.261-.534-3.5-1.743.273Zm1.913-20.948.872-3.422-1.7-.442-.885,3.422Zm-.585,26.3.011.04.015.04.572,1.548,1.652-.611-.534-1.457v-.026l-.026-.053-.442-1.757-1.717.442ZM115,869.28l.846-2.3.429-.885-1.587-.768-.442.9-.015.04-.011.039-.872,2.381Zm.833,41.179,1.587-.768L115.9,906.5l-1.6.768ZM117.81,862.9l.169-.364.04-.067,1.535-2.537-1.509-.911-1.574,2.6-.026.04-.026.04-.208.43Zm1.236,53.11.026.026.026.04.429.586,1.418-1.067-.39-.508-.04-.066L119.1,912.7l-1.509.911Zm2.42-58.939,1.965-2.628.011-.011.04-.053.066-.053-1.314-1.184-.1.117-.04.026-.026.04-2,2.693Zm.6,62.972.026.04.04.026,1.887,2.095,1.314-1.184L123.484,919l-.026-.04-.026-.026-.364-.495-1.418,1.054Zm3.851-68.333.846-.924,1.627-1.47-1.184-1.314-1.692,1.536-.026.026-.026.026-.846.937Zm3.253,75.45,1.184-1.314-2.615-2.368-1.184,1.3Zm1.822-80.108,2.823-2.121-1.054-1.405-2.836,2.108Zm2.225,83.139.04.026.04.026,1.769,1.08.924-1.509-1.7-1.028-.04-.026-.04-.026-1.093-.82-1.054,1.405Zm3.513-87.082,1.652-1.015.066-.026.011-.011,1.275-.612-.755-1.587-1.353.651-.04.011-.04.026-1.73,1.054Zm4.645,91.557.755-1.587-3.175-1.535-.768,1.6Zm1.47-94.719,3.318-1.21-.611-1.665-3.318,1.21Zm4.112,96.866.04.011.04.011,1.132.286.442-1.7-1.041-.273-.026-.011-.066-.011-2.134-.781L144.729,936Zm2.5-99.078,2.889-.742.456-.078-.273-1.743-.456.078h-.04l-.04.011-2.98.768Zm2.537,100.378h.04l.04.011,3.084.469.273-1.743-3.005-.456h-.011l-.067-.011-.312-.091-.442,1.718Zm4.294-101.732,1.184-.169,2.238-.117-.092-1.756-2.329.117h-.094l-1.184.181Zm5.985,102.786.091-1.756-3.526-.182-.091,1.756Zm3.825-103.046.078-1.757-3.526-.181-.078,1.769Zm-.208,102.9,2.043-.1h.053l.04-.011,1.47-.221-.273-1.744-1.379.208h-.011l-2.03.1ZM172.872,837l.04.011.442-1.718-.13-.026-.04-.011h-.04l-3.37-.52-.273,1.743Zm.1,101.159.169-.026.04-.011h.04l3.266-.846-.442-1.7-3.175.82-.078.011-.078.011Zm4.671-99.936.026.012.067.011,1.86.689.611-1.665-1.952-.7-.04-.026h-.04l-1.418-.365-.429,1.7Zm2.29,97.985,3.071-1.132.04-.011.04-.011.235-.117-.768-1.587-.156.078-3.071,1.119ZM186,841.7l.768-1.587-3.188-1.535-.768,1.587Zm.508,91.7,1.08-.52.04-.026.04-.011,1.991-1.21-.924-1.509-1.9,1.158-1.093.534Zm4.437-88.8.066.039.859.651,1.054-1.405-.924-.7-.04-.026-.04-.012-2.017-1.236-.924,1.509Zm1.743,85.078,2.836-2.108-1.067-1.418-2.823,2.121Zm2.16-82.163.026.026.04.026,2.342,2.147,1.2-1.314-2.42-2.186-.026-.026-.04-.026-.208-.169-1.067,1.418Zm3.383,77.662,1.47-1.327.026-.04.026-.026,1.041-1.145-1.3-1.184-.976,1.08-.04.026-.026.04-1.405,1.275Zm3.5-70.792.026.04.026.026.2.273,1.418-1.054-.247-.338-.026-.04-.026-.026L201,850.96l-1.314,1.184Zm1.483,65.575,2.121-2.836-1.418-1.054-2.108,2.823Zm1.483-61.593,1.262,2.082,1.509-.924-1.3-2.147-.026-.04-.026-.04-.611-.807-1.405,1.054Zm2.615,55.738,1.431-2.355.026-.026.026-.04.325-.7-1.587-.767-.3.624-.011.011-.026.066L205.8,913.19Zm1.887-47.489,1.587-.768-1.535-3.174-1.587.755Zm1.457,41.192.312-.638.011-.04.015-.04.976-2.654-1.665-.611-.937,2.576-.3.638Zm.39-36.248.015.067.011.026.377,1.457,1.7-.43-.39-1.548-.011-.053-.015-.04-.664-1.809-1.665.6Zm2.043,29.43.872-3.409-1.7-.442-.885,3.422Zm-.247-21.051,1.743-.273-.534-3.487-1.743.273Zm1.7,14.065.287-1.9v-.04l.011-.053.078-1.6-1.769-.091-.078,1.6-.287,1.822Zm-1.2-7.351v.04l-.011.1,1.756.091.011-.143v-.093l-.169-3.383-1.769.091Z" fill="#64381c"/>
    </g>
    <g id="g1610" transform="translate(-2006.604 -1955.154)">
      <g id="g1606" transform="translate(560.052 305.191)">
        <g id="g1596" transform="translate(3.271 38.313)">
          <path id="path1590" d="M653.454,491.137l3.679,2.215,3.189-1.311,2.424-3.592,7.008.2,4.692-2.22,4.366,2.742,3.388-1.7,4.692,2.416,4.366.2,1.95,4.1-8.075,16.791-28.41-7.574Z" transform="translate(-652.682 -486.434)" fill="#fddfb8"/>
          <path id="path1592" d="M669.8,500.459c-1.575,2.292-2.6,3.521-4.114,5.8-1.06-.649-2.288-1.5-3.491-2.3l-5.213,2.089-2.705-4.2-.824-.5,3.269,12.273,28.41,7.574,8.076-16.791-.238-.5-1.581,1.883L688,501.348l-4.952,4.44-2.085-3.4-4.171,3.4Z" transform="translate(-652.682 -496.647)" fill="#fff"/>
          <path id="path1594" d="M691.14,506.5l-1.82,2.165-3.389-4.439-4.952,4.439-2.085-3.4-4.171,3.4-6.99-5.329c-1.575,2.292-2.6,3.521-4.114,5.8-1.06-.649-2.288-1.5-3.491-2.3l-5.213,2.09-3.53-5.483a35.182,35.182,0,0,0-.772,6.873c0,15.046,9.144,23.522,20.424,23.522s20.424-8.477,20.424-23.522A33.99,33.99,0,0,0,691.14,506.5Z" transform="translate(-650.614 -498.746)" fill="#e2ab86"/>
        </g>
        <g id="g1604" transform="translate(0 0)">
          <path id="path1598" d="M640.44,400.844c2.548,1.707,3.959,2.724,3.959,2.724l5.711-2.538,6.717-2.015,5.105.928,3.509-3.781,3.711.761,3.908-3.55,4.9-1.183c.092-1.616.068-2.842.082-5l-12.132-13.728-27.056,21.086c-.087,2.394.571,3.839,1.583,6.3Z" transform="translate(-638.776 -365.853)" fill="#fddfb8"/>
          <path id="path1600" d="M665.918,372.5l-27.056,21.086a10.27,10.27,0,0,0,.024,1.13l4.8,4.359,4.5-3.37c1.32.5,2.684.758,4.227,1.185.523-2.68.812-4.391,1.4-7.419l8.946,4.214,3.152-4.361,2.891,2.739,3.637-5.573,4.42,3.41,1.193-2.552v-.023c-.287-.728-.6-1.447-.933-2.157Z" transform="translate(-638.781 -365.152)" fill="#fff"/>
          <path id="path1602" d="M651.42,345.8c-8.006,2.149-13.586,15.5-12.76,28.366l4.826,4.381,4.5-3.37c1.32.5,2.424.888,3.966,1.316.393-2.581.78-4.684,1.364-7.614l9.239,4.279L665.7,368.8l2.891,2.739,3.637-5.573,4.42,3.41,1.2-2.563c-5.082-12.923-17.778-23.33-26.429-21.008Z" transform="translate(-638.579 -345.478)" fill="#e2ab86"/>
        </g>
      </g>
      <path id="path1608" d="M542.824,307.606l1.318,1.17,2.017-2.2.04-.039.026-.026.249-.227-1.179-1.288-.322.281-.04.039-.027.026Zm6.274-3.654.977-.871.008-.007,1.714-1.233-1.05-1.4-1.787,1.288-.026.026-.04.039-.986.862Zm-10.687,9.195,1.428,1.024,2.091-2.8-1.419-1.034Zm16.2-13.275,3.04-1.777-.9-1.487-3.049,1.768Zm-19.034,17.917-.027.046-.019.039-.682,1.469,1.6.725.654-1.387.019-.019.019-.052.922-1.523-1.53-.889Zm25.151-21.2,2.23-1.015.94-.326-.581-1.641-.949.317-.04.018-.04.019-2.3,1.052Zm-28.56,29.27,1.677.581L535,323.157l-1.668-.571ZM567.229,294.1l.377-.136h.019l.067-.026,2.874-.689-.414-1.7-2.957.716-.047.007-.04.019-.469.154Zm-36.723,37.866-.007.046v.04l-.111.707,1.75.254.111-.707.645-2.612-1.723-.408Zm43.439-39.38,3.252-.462h.04l.047-.007h.092l-.092-1.741-.157.007h-.093l-3.335.49Zm-44.166,44.3v.092l-.129,2.775,1.76.082.12-2.693.008-.046v-.039l.1-.607-1.75-.254ZM580.9,291.947l1.161-.052h.093l2.193.109.083-1.732-2.276-.117h-.04l-.047.008-1.253.052ZM529.779,346.8l1.76-.082-.166-3.482-1.769.09Zm58.013-54.559,3.492.5.258-1.723-3.51-.5Zm-57.3,59.5.008.046.019.039L531,353.81l1.723-.408-.479-1.9-.007-.046-.008-.046-.194-1.333-1.75.254Zm64.158-58.25,1.889.444.067.026h.019l1.345.471.58-1.641-1.419-.49-.047-.007-.04-.019-1.972-.471ZM533.1,360.543l1.667-.571-1.17-3.292-1.667.571Zm68.12-65,3.206,1.469.737-1.578-3.206-1.469ZM535.537,365.92l.019.039.019.039.6.988,1.52-.88-.553-.907-.007-.026-.04-.052-.949-2.04-1.612.734Zm71.925-67.308,2.57,1.5.053.039.008.007.3.227,1.041-1.406-.368-.272-.026-.026-.04-.019-2.653-1.541Zm-69.28,71.724.019.039.026.026,1.852,2.476,1.428-1.025-1.852-2.475-.166-.272-1.52.88Zm75.066-67.9.894.644.008.007,1.723,1.532,1.189-1.3-1.732-1.541-.027-.026-.047-.026-.967-.7Zm-68.535,75.8,1.308-1.161-2.368-2.584-1.318,1.17Zm75.665-69.14,1.318-1.17-2.386-2.584-1.3,1.17Zm-73,71.561,1.52,1.351.04.039.04.022,1.2.871,1.041-1.406-1.2-.871-1.456-1.288Zm77.148-66.3.008.007.04.052.019.039,1.52-.88-.053-.109-.026-.046-.026-.026-2.018-2.711-1.437,1.033Zm-71.51,70.636.138.1.026.026.047.026,2.893,1.687.9-1.505-2.828-1.641-.128-.091ZM627.085,318.6l.007.026.04.052.829,1.777,1.6-.725-.875-1.859-.019-.04-.019-.039-.746-1.242-1.52.9Zm-67.76,69.883,2.967,1.36.04.022.047.007.249.082.581-1.641-.166-.052-2.976-1.351Zm71.206-61.632,1.677-.58-1.179-3.283-1.668.571Zm-64.573,64.262,1.152.39.04.023h.04l2.267.544.406-1.687-2.165-.517-.067-.026h-.019l-1.059-.372ZM632,332.388l.148,1.052,1.75-.254-.166-1.124-.008-.046-.007-.046-.553-2.267-1.723.408Zm-59.027,60.435,3.51.5.249-1.732-3.5-.49Zm59.708-55.756v.019l.007.066.148,3.119,1.769-.073-.157-3.219v-.039l-.008-.046-.04-.254-1.75.236Zm-52.6,56.481,1.99.09h.04l.047.008,1.548-.073-.083-1.75-1.548.072-1.9-.091Zm52.605-46.9-.008.066v.018l-.047.317,1.75.254.067-.408v-.04l.007-.046.148-3.065-1.778-.082Zm-45.373,46.725,3.5-.49-.258-1.723-3.492.5ZM632,351.412l-.019.073-.58,2.33,1.723.408.6-2.4.008-.046v-.039l.148-1-1.751-.236Zm-37.644,40.749,2.681-.644.047-.008.047-.007.728-.263-.59-1.632-.728.245-2.588.626Zm34.972-31.791,1.668.571,1.161-3.283-1.668-.571Zm-28.136,29.723.672-.226.04-.023.04-.022,2.57-1.17-.737-1.578-2.5,1.133-.663.236Zm25.934-24.981-.019.018-.019.052-.774,1.288,1.52.88.82-1.351.019-.04.019-.039.82-1.732-1.612-.734Zm-19.393,21.934,3.04-1.777-.894-1.5-3.049,1.768Zm14.741-14.853,1.419,1.034,2.091-2.8-1.419-1.034Zm-8.761,11,1.557-1.133.026-.026.04-.022,1.2-1.07-1.188-1.3-1.188,1.061-.008.008-1.483,1.061Zm4.367-5.966-.026.026-.083.066,1.188,1.3.1-.1.026-.026.04-.039,2.276-2.476-1.318-1.17Z" fill="#64381c"/>
    </g>
    <g id="g1624" transform="translate(-2418.66 -1902.721)">
      <g id="g1620" transform="translate(1070.349 217.243)">
        <path id="path1612" d="M1134.578,296.178c-1.87-1.414-4.167.034-4.167,2.5-.328,23.706-12.8,33.5-29.959,33.7-3.216.034-5.414,1.414-3.216,3.518,2.231,2.137,6.924,3.912,11.419,3.781,17.227-.427,30.451-11.574,28.679-33.208-.263-2.959-.525-8.187-2.756-10.291Z" transform="translate(-1096.349 -282.5)" fill="#e8c900"/>
        <path id="path1614" d="M1218.434,314.393c.918-2.137,3.609-2.039,4.889.066,12.075,20.385,27.793,22.621,42.723,14.2,2.822-1.578,5.414-1.48,4.561,1.446-.886,2.959-4.069,6.839-8.006,9.009-15.127,8.22-32.157,5.195-41.378-14.4-1.28-2.7-3.675-7.365-2.789-10.324Z" transform="translate(-1182.732 -294.698)" fill="#e8c900"/>
        <path id="path1616" d="M1207.575,271.87c2.658-2.038,5.906.034,5.939,3.518.46,33.635,18.146,47.511,42.46,47.807,4.561.066,7.678,2.005,4.528,5s-9.811,5.524-16.177,5.359c-24.38-.625-43.15-16.44-40.623-47.083.361-4.208.722-11.606,3.872-14.6Z" transform="translate(-1172.267 -265.096)" fill="#f9e100"/>
        <path id="path1618" d="M1218.224,257.252l3.938-.034c-1.28-1.94-1.116-4.274-.787-6.642h-2.068c.034,2.335.034,4.8-1.083,6.674Z" transform="translate(-1182.719 -250.577)" fill="#f9e100"/>
      </g>
      <path id="path1622" d="M1111.792,203.7l.1,1.869,3.175-.165h.1l.358.016.1-1.855-.454-.028h-.1Zm7.449,1.91,1.388.07,2.227.343.275-1.842-2.309-.357h-.1l-1.388-.082Zm-14.94-1,.288,1.842,3.683-.564-.288-1.842Zm22.128,2.02,3.615.921.467-1.8-3.615-.935Zm-27.777-.6h-.042l-.042.028-1.622.591.632,1.746,1.539-.564.07-.016.028-.016,1.842-.467-.467-1.814Zm34.841,2.68,2.433.893.948.454.811-1.677-.948-.454-.042-.028-.042-.016-2.515-.921Zm-43.487.88.811,1.691,3.354-1.622-.811-1.677Zm50.221,2.089.385.179.012.016.07.028,2.667,1.622.976-1.594-2.763-1.663-.028-.028-.042-.012-.467-.234Zm-56.09,1.306-.042.028-.042.028-.6.454,1.113,1.5.619-.454,2.46-1.5-.976-1.594Zm62.247,2.556,2.776,2.075.028.028.042.028.071.07,1.25-1.388-.137-.11-.028-.043-.042-.028-2.845-2.116Zm-66.522.633-.042.028-.028.042-2.213,2.007,1.265,1.374,2.13-1.952.042-.028.028-.028.536-.385-1.127-1.5Zm72.184,4.068.921.824.028.043.042.028,1.553,1.718,1.375-1.251-1.608-1.787-.042-.028-.028-.028-.976-.893Zm-79.688,3.436,1.374,1.251,2.515-2.763-1.388-1.251Zm84.609,1.924,2.24,2.983,1.5-1.113-2.24-3Zm-87.825,2.35-.028.042-.028.042-1.127,1.869,1.581.976,1.1-1.8.921-1.237-1.5-1.113Zm92,3.711,1.072,1.759h-.012l.7,1.429,1.677-.811-.687-1.43-.028-.042-.012-.042-1.114-1.828Zm-96.731,4.907,1.677.811,1.622-3.367-1.677-.811Zm100.071,1.553,1.278,3.5,1.746-.646-1.278-3.5Zm-102.325,4.343-.028.043v.042l-.316,1.2,1.814.467.275-1.1.012-.028.016-.07.838-2.254-1.759-.646Zm104.648,2.639.8,3.051.012.07v.016l.056.4,1.842-.288-.07-.482-.012-.042-.012-.042-.8-3.147Zm-106.022,2.68-.016.043-.012.042-.495,3.257,1.842.288.509-3.257.082-.33-1.8-.467Zm107.452,4.536.179,1.154v.016l.124,2.447,1.869-.1-.124-2.46-.012-.042v-.057l-.191-1.251Zm-108.579,6.322,1.869.1.179-3.725-1.856-.1Zm108.854,4.041,1.855.1.192-3.725-1.856-.1Zm-108.689-.219.109,2.158v.1l.248,1.553,1.841-.288-.234-1.457-.11-2.158Zm107.8,7.3v.016l-.012.07-.012.042,1.8.467.028-.124.012-.056.012-.042.536-3.56-1.841-.275Zm-106.888.192.028.179.012.043.016.056.88,3.436,1.814-.467-.866-3.353-.028-.165ZM1166.3,274.9l-.012.057-.012.028-.729,1.966,1.759.646.756-2.061.012-.042.012-.043.385-1.484-1.814-.467ZM1062.807,277.3l1.182,3.244.016.042.028.042.11.248,1.69-.811-.124-.247-1.155-3.161Zm99.824,6.4,1.677.811,1.622-3.367-1.677-.811Zm-96.869.536.564,1.154.016.043.028.028,1.264,2.1,1.594-.976-1.223-2.007-.042-.071v-.012l-.522-1.072Zm93.8,4.687-.042.071-.687.907,1.5,1.113.729-.976.028-.042.028-.042,1.292-2.13-1.594-.976Zm-89.873,1.842,2.24,3,1.485-1.127-2.227-2.983Zm86.795,2.282-.012.012-.042.056-2.254,2.474,1.374,1.264,2.323-2.556.028-.028.028-.042.165-.22-1.484-1.127Zm-82.039,3.573,1.416,1.553.028.028.028.042,1.21,1.1,1.251-1.388-1.141-1.031-.028-.043-.042-.028-1.333-1.484Zm74.782,3.7-.042.028-.028.028-.288.206,1.127,1.5.344-.261.042-.028.028-.028,2.433-2.213-1.251-1.388Zm-69.257,1.567,2.983,2.24,1.113-1.5-2.983-2.227Zm65.134,1.525-.07.043-2.2,1.333.962,1.594,2.268-1.374.042-.028.042-.028.852-.646-1.113-1.484Zm-58.962,2.818,2.488,1.512.042.012.042.028.728.344.811-1.677-.729-.357v.016l-2.419-1.471Zm50.166,1.979.811,1.677,3.367-1.622-.811-1.677Zm-43.5,1.539.659.33.042.016.056.012,2.8,1.031L1097,309.4l-2.721-1-.659-.316Zm38.277.412h-.028l-.056.028-1.553.4.467,1.8,1.635-.412.042-.012.042-.012,1.924-.7-.646-1.759ZM1100,312.324l3.615.921.454-1.8-3.6-.935Zm22.238-.261.288,1.842,3.684-.564-.275-1.842Zm-14.857,1.8,2.007.3h.056l.042.012,1.7.082.082-1.869-1.677-.082h-.016l-1.91-.288Zm7.779-1.265h-.042l-.124-.012-.082,1.869h.25l3.56-.179-.082-1.869Z" transform="translate(0 0)" fill="#64381c"/>
    </g>
    <g id="g1642" transform="translate(-2827.638 -1964.714)">
      <g id="g1638" transform="translate(1611.465 314.543)">
        <path id="path1626" d="M1665.1,428.851c0,15.467,14.182,29.072,33.238,29.072s33.238-13.6,33.238-29.072c0-25.148-20.414-25.819-33.257-22.882C1683.929,409.259,1665.1,404.6,1665.1,428.851Z" transform="translate(-1665.103 -395.607)" fill="#e34314"/>
        <path id="path1628" d="M1726.1,405.5c-5.776.5-11.751.1-16.676,2.151,3.751.148,7.526.024,11.109,1.265-4.67,1.779-10.479,5.9-14.205,8.486,5.9-1.52,11.117-5.136,17.246-5.83a13.936,13.936,0,0,1,8.142.905c3.738,1.623,6.807,4.375,10.26,6.482a34.512,34.512,0,0,0-9.147-9.4c-.76-.657-3.5-1.22-1.394-2.019,4.81-2.116,9.98-2.192,15.179-2.439a30.935,30.935,0,0,0-20.513.4Z" transform="translate(-1694.404 -394.738)" fill="#005e00"/>
        <path id="path1630" d="M1769.439,373.691c.555-.953,3.214-.806,4.324.812-2.552,4.234-7.259,7.3-5.964,12.349l-3.8-.713C1763.434,382.385,1766.84,378.08,1769.439,373.691Z" transform="translate(-1735.353 -373.099)" fill="#005e00"/>
        <g id="g1636" transform="translate(14.103 44.256)">
          <path id="path1632" d="M1727.973,533.8c-.693,2.562-4.377,3.821-8.277,2.823-3.857-1.042-6.413-3.995-5.72-6.6s7.5-5.558,8.233-2.822C1722.6,529.068,1728.667,531.2,1727.973,533.8Z" transform="translate(-1713.863 -526.108)" fill="#661e09"/>
          <path id="path1634" d="M1769.712,557.257a2.744,2.744,0,0,1-5.417,0,2.744,2.744,0,0,1,5.417,0Z" transform="translate(-1749.708 -546.612)" fill="#661e09"/>
        </g>
      </g>
      <path id="path1640" d="M1681.2,304.56l-1.235,1.37,2.335,2.1.028.028.042.042.241.28,1.37-1.235-.309-.347-.027-.028-.042-.042Zm3.889,6.571.917,1.013.008.008,1.312,1.795,1.5-1.09-1.37-1.872-.042-.042-.024-.042-.927-1.023Zm-9.784-11.193-1.1,1.486,2.991,2.2,1.09-1.5Zm14.117,16.953,1.891,3.184,1.592-.936-1.881-3.194Zm-19.067-19.935-.042-.02-.041-.02-1.573-.724-.772,1.679,1.476.685.024.02.056.02,1.631.974.945-1.6Zm22.569,26.352,1.081,2.335.338.975,1.746-.608-.338-.994-.024-.042-.024-.042-1.119-2.412Zm-31.157-29.922-.608,1.746,3.493,1.235.618-1.756Zm33.8,36.734.145.4.024.078.743,3.02,1.795-.444-.762-3.1-.008-.049-.008-.049-.164-.473Zm-40.3-38.471h-.042l-.049-.008-.753-.116-.26,1.843.666.087.078.02,2.779.675.444-1.795Zm41.916,45.5.492,3.406v.042l.008.049v.077l1.843-.087v-.216l-.008-.049-.5-3.493ZM1650.031,290.9l-.049-.008h-.042l-2.962-.145-.1,1.853,2.876.134.07.008h.024l.646.087.26-1.824Zm47.821,53.533.056,1.312-.116,2.3,1.862.087.106-2.383V345.7l.008-.049-.077-1.312Zm-58.367-53.543.1,1.853,3.7-.183-.087-1.843Zm58.058,60.76-.531,3.657,1.833.27.54-3.667Zm-63.307-60.007-.049.008-.049.008-2.113.511.434,1.8,2.123-.521,1.418-.2-.261-1.824Zm61.976,67.186-.473,1.978-.028.07v.02l-.492,1.4,1.737.618.531-1.5.008-.028.008-.049.512-2.075Zm-71.355-64.465.627,1.746,3.483-1.225-.608-1.746Zm69.164,71.345-1.563,3.358,1.689.781,1.563-3.358Zm-74.886-68.788-.042.02-.042.02-1.052.628.936,1.592.974-.569.028-.008.056-.042,2.161-1-.772-1.679Zm71.625,75.33-1.592,2.692-.28.4,1.5,1.09.28-.4.028-.028.024-.042,1.64-2.779Zm-76.324-72.561-.028.028-.042.02-2.634,1.94,1.1,1.486,2.557-1.882.008-.008.056-.042.309-.174-.955-1.592Zm72.262,78.63-.753,1-1.573,1.747,1.37,1.235,1.641-1.814.042-.042.028-.028.743-1.013Zm-80.666-71.789,1.235,1.37,2.75-2.48-1.235-1.37Zm73.584,79.257,1.245,1.361,2.75-2.48-1.254-1.37Zm-76.16-76.469-1.438,1.592-.028.028-.028.049-.926,1.254,1.5,1.09.869-1.177.008-.008,1.428-1.583Zm70.486,80.85-.042.024.945,1.6.116-.077.041-.024.028-.028,2.885-2.113-1.09-1.5Zm-75.1-74.944-.106.144-.024.042-.028.027-1.795,3.049,1.592.936,1.746-2.962.042-.056.008-.008.056-.077Zm70.65,77.578-.027.008-.056.042-1.891.868.772,1.679,1.978-.917.042-.024.042-.024,1.322-.782-.946-1.582Zm-74.365-70.969-1.428,3.107-.028.049-.024.042-.087.261,1.747.608.056-.174,1.447-3.107Zm65.594,74.587.608,1.747,3.5-1.226-.608-1.746Zm-68.383-67.63-.415,1.187-.008.049-.024.042-.579,2.374,1.8.434.54-2.277.027-.07v-.02l.4-1.109Zm62.574,69.136-.049.008-.049.008-1.11.164.261,1.824,1.206-.164.049-.008.042-.024,2.412-.579-.435-1.8Zm-64.4-61.793-.541,3.667,1.843.261.522-3.667Zm59.332,62.536h-.042l-.049.008-3.329.145.087,1.862,3.416-.174h.042l.049-.008.289-.042-.271-1.833Zm-60.1-55.086-.106,2.074v.042l.008.049.078,1.621,1.843-.087-.078-1.525.008-.049-.008-.049.1-1.988Zm49.9,55.1-.049-.008h-.042l-.347-.056-.271,1.833.434.07.049.008.049-.008,3.261.154.087-1.843Zm-49.731-47.531.531,3.676,1.833-.27-.54-3.667Zm44.579,46.779-2.48-.608-.434,1.8,2.557.627.049.008h.042l1.061.154.261-1.824Zm-43.286-39.407.695,2.817v.042l.024.042.271.772,1.746-.608-.24-.685v-.02l-.028-.07-.656-2.721Zm33.83,36.628-.608,1.746,3.493,1.216.617-1.737Zm-31.63-29.468.241.7.024.042.024.042,1.245,2.692,1.689-.781-1.216-2.605-.251-.694ZM1620,392.849l-.056-.042-.028-.008-1.36-.8-.945,1.582,1.438.859.049.028.042.024,1.833.849.791-1.679Zm-23.341-20.311,1.882,3.174,1.592-.936-1.882-3.194Zm15.8,15.429-1.09,1.5,2.981,2.19,1.09-1.5Zm-11.685-9.176,1.187,1.631.028.028.042.042,1.119,1.254,1.38-1.245-1.129-1.245-1.138-1.563Zm6.339,4.564-.07-.07-.042-.042-1.37,1.235.1.116.042.042.028.028,2.634,2.383,1.245-1.38Z" fill="#64381c"/>
    </g>
    <g id="g1660" transform="translate(-3146.365 -2230.079)">
      <g id="g1656" transform="translate(2010.007 675.828)">
        <path id="path1644" d="M2105.787,726.035a5.514,5.514,0,0,1,5.5-1.478l15.335,40.011-9.883,2.442c-5.427-11.137-4.575-23.3-10.957-40.976Z" transform="translate(-2102.763 -724.031)" fill="#89ad14"/>
        <path id="path1646" d="M2153.808,723.87a7.112,7.112,0,0,1,5.757,0c-.823,16.922,1.059,30.049,2.878,43.264l-9.958-1.206c.175-13.943-.579-27.62,1.323-42.057Z" transform="translate(-2136.227 -723.258)" fill="#98bf16"/>
        <path id="path1648" d="M2172.562,730.24c3.092-.416,5.208.307,6.673,1.792-6.016,13.916-6.568,27.341-9.3,40.526l-10.688-2.2c7.129-8.522,9.848-28.747,13.318-40.118Z" transform="translate(-2141.075 -728.179)" fill="#89ad14"/>
        <path id="path1650" d="M2113.9,854.135c-8.45,0-19.738,5.689-18.727,17.017l1.024,11.469h38.406l1.023-11.469c1.011-11.328-10.277-17.017-18.727-17.017Z" transform="translate(-2095.114 -817.057)" fill="#f27224"/>
        <path id="path1652" d="M2132.839,900.662a28.644,28.644,0,0,0-13.241,3.194,55.138,55.138,0,0,1,26.709.133A28.6,28.6,0,0,0,2132.839,900.662Z" transform="translate(-2112.661 -850.402)" fill="#ffb380"/>
        <path id="path1654" d="M2137.357,942.592c0,2.64-8.6,4.78-19.2,4.78s-19.2-2.14-19.2-4.78,8.6-4.78,19.2-4.78S2137.356,939.952,2137.357,942.592Z" transform="translate(-2097.863 -877.027)" fill="#ffb380"/>
      </g>
      <path id="path1658" d="M2084.066,707.776l-1.8.094.16,3.088v.1l-.027.348,1.818.094.011-.441v-.1Zm-1.858,7.244-.068,1.35-.334,2.165,1.791.268.348-2.245.011-.041v-.055l.069-1.35Zm.989-14.529-1.8.28.548,3.582,1.791-.268Zm-1.978,21.533-.9,3.5,1.751.454.909-3.515Zm.6-27.013-.012-.055-.011-.041-.588-1.577-1.7.615.548,1.5.011.069.012.027.468,1.791,1.751-.454Zm-2.62,33.869-.9,2.446-.415.842,1.644.789.441-.922.011-.041.012-.041.9-2.446Zm-.855-42.29-1.631.789,1.577,3.261,1.63-.788Zm-2.019,48.84-.174.374-.011.012-.028.068-1.59,2.593,1.551.949,1.631-2.687.011-.027.027-.041.214-.454Zm-1.283-54.547-.027-.041-.027-.041-.44-.588-1.457,1.082.4.522.027.055.027.027,1.443,2.393,1.55-.949Zm-2.486,60.535-2.018,2.7-.055.068-.054.068,1.336,1.216.121-.133.027-.027.027-.041,2.072-2.767Zm-.615-64.691-.027-.041-.027-.027-1.951-2.152-1.35,1.229,1.9,2.072.041.041.012.027.387.522,1.443-1.082Zm-3.956,70.2-.8.9-.041.027-.027.041-1.671,1.51,1.23,1.337,1.724-1.564.041-.041.027-.027.869-.949Zm-3.328-77.5-1.23,1.337,2.687,2.446,1.216-1.35Zm-1.871,82.281-2.914,2.179,1.1,1.457,2.9-2.179Zm-2.3-85.409-.041-.027-.027-.012-1.831-1.109-.936,1.55,1.751,1.056.068.041,1.123.855,1.083-1.457Zm-3.609,89.472-1.7,1.029-1.39.682.789,1.631,1.39-.669.041-.027.027-.011,1.791-1.083Zm-4.758-94.07-.789,1.631,3.261,1.577.789-1.631Zm-1.524,97.318-3.4,1.243.615,1.7,3.408-1.243Zm-4.224-99.51-.041-.027h-.041l-1.163-.307-.441,1.764,1.069.268.055.027h.027l2.205.815.615-1.711Zm-2.566,101.769-3.047.788-.374.055.267,1.791.468-.069.041-.012h.055l3.047-.788Zm-2.593-103.105-.055-.012h-.041l-3.168-.495-.268,1.791,3.168.495.321.08.441-1.751Zm-4.424,104.5-1.123.174-2.393.121.094,1.818,2.392-.121h.055l.041-.012,1.216-.187Zm-6.148-105.591-.094,1.818,3.622.187.094-1.818Zm-3.916,105.859-.094,1.818,3.622.174.094-1.8Zm.2-105.7-2.1.107h-.1l-1.51.24.281,1.791,1.51-.227,2.005-.107Zm-7.084,104.83-.094-.012-.041-.012-.441,1.751.121.041h.041l.041.012,3.462.522.28-1.791Zm-.2-103.934-.174.027h-.041l-.041.012-3.355.856.454,1.764,3.261-.842.174-.027Zm-4.8,102.651-.027-.012-.069-.012-1.911-.7-.628,1.7,2,.735.041.012.055.012,1.443.375.454-1.764Zm-2.352-100.646-3.141,1.15-.041.012-.041.027-.254.107.789,1.644.241-.121,3.074-1.123Zm-6.229,97.077-.789,1.631,3.275,1.577.789-1.631Zm-.508-94.2-1.123.548-.041.012-.041.027-2.032,1.23.935,1.551,1.965-1.19.069-.041,1.056-.508ZM2001.2,754.25l-.041-.027-.041-.027-.882-.669-1.083,1.457.949.708.041.027.041.027,2.085,1.256.936-1.551Zm-1.8-87.414-2.9,2.179,1.083,1.444,2.9-2.165Zm-2.219,84.406-.012-.012-.055-.041L1994.7,749l-1.216,1.337,2.473,2.259.027.027.041.027.227.16,1.083-1.443Zm-3.475-79.782-1.51,1.377-.027.027-.027.027-1.069,1.176,1.337,1.229,1.016-1.123.027-.027.027-.027,1.443-1.31Zm-3.6,72.724-.041-.055-.012-.012-.2-.267-1.457,1.083.268.334.027.041.027.027,2.152,2.379,1.337-1.23Zm-1.524-67.351-2.179,2.9,1.457,1.083,2.179-2.9Zm-1.47,63.341-1.35-2.205-1.55.935,1.35,2.219.012.027.027.041.628.829,1.457-1.082Zm-2.74-57.34-1.47,2.419-.027.041-.012.041-.348.708,1.631.789.307-.641.041-.069,1.431-2.352Zm-1.925,48.8-1.644.775,1.577,3.275,1.63-.788Zm-1.51-42.317-.307.655-.027.041-.012.041-1,2.727,1.711.615.962-2.646.307-.641Zm-.4,37.224v-.027l-.027-.055-.387-1.51-1.751.454.414,1.59v.041l.027.041.682,1.871,1.7-.628Zm-2.085-30.234-.909,3.515,1.751.454.909-3.515Zm.241,21.64-1.791.268.548,3.582,1.791-.267Zm-1.738-14.462-.307,1.951v.1l-.094,1.657,1.818.08.08-1.55.294-1.951Zm1.23,7.565v-.163l-1.8-.08-.012.147v.1l.174,3.462,1.818-.08Z" transform="translate(0)" fill="#64381c"/>
    </g>
  </g>
</svg>
